<svg class="main-svg" xmlns="http://www.w3.org/2000/svg" xmlns:xlink="http://www.w3.org/1999/xlink" width="640" height="480" style="" viewBox="0 0 640 480"><rect x="0" y="0" width="640" height="480" style="fill: rgb(255, 255, 255); fill-opacity: 1;"/><defs id="defs-0c0705"><g class="clips"><clipPath id="clip0c0705xyplot" class="plotclip"><rect width="524" height="360"/></clipPath><clipPath class="axesclip" id="clip0c0705x"><rect x="66" y="0" width="524" height="480"/></clipPath><clipPath class="axesclip" id="clip0c0705y"><rect x="0" y="60" width="640" height="360"/></clipPath><clipPath class="axesclip" id="clip0c0705xy"><rect x="66" y="60" width="524" height="360"/></clipPath></g><g class="gradients"/></defs><g class="bglayer"/><g class="layer-below"><g class="imagelayer"/><g class="shapelayer"/></g><g class="cartesianlayer"><g class="subplot xy"><g class="layer-subplot"><g class="shapelayer"/><g class="imagelayer"/></g><g class="gridlayer"><g class="x"/><g class="y"/></g><g class="zerolinelayer"/><path class="xlines-below"/><path class="ylines-below"/><g class="overlines-below"/><g class="xaxislayer-below"/><g class="yaxislayer-below"/><g class="overaxes-below"/><g class="plot" transform="translate(66,60)" clip-path="url('#clip0c0705xyplot')"><g class="scatterlayer mlayer"><g class="trace scatter trace377f64" style="stroke-miterlimit: 2; opacity: 1;"><g class="fills"/><g class="errorbars"/><g class="lines"><path class="js-line" d="M-598.86,360Q-598.37,360 -598.13,360C-597.88,360 -597.64,360 -597.39,360C-597.15,360 -596.9,360 -596.66,360C-596.42,360 -596.17,360 -595.93,360C-595.69,360 -595.44,360 -595.2,360C-594.96,360 -594.71,360 -594.47,360C-594.23,360 -593.98,360 -593.74,360C-593.5,360 -593.25,360 -593.01,360C-592.76,360 -592.52,360 -592.27,360C-592.03,360 -591.78,360 -591.54,360C-591.3,360 -591.05,360 -590.81,360C-590.57,360 -590.32,360 -590.08,360C-589.84,360 -589.59,360 -589.35,360C-589.11,360 -588.86,360 -588.62,360C-588.38,360 -588.13,360 -587.89,360C-587.65,360 -587.4,360 -587.16,360C-586.91,360 -586.67,360 -586.42,360C-586.18,360 -585.93,360 -585.69,360C-585.45,360 -585.2,360 -584.96,360C-584.72,360 -584.47,360 -584.23,360C-583.99,360 -583.74,360 -583.5,360C-583.26,360 -583.01,360 -582.77,360C-582.53,360 -582.28,360 -582.04,360C-581.79,360 -581.55,360 -581.3,360C-581.06,360 -580.81,360 -580.57,360C-580.33,360 -580.08,360 -579.84,360C-579.6,360 -579.35,360 -579.11,360C-578.87,360 -578.62,360 -578.38,360C-578.14,360 -577.89,360 -577.65,360C-577.41,360 -577.16,360 -576.92,360C-576.67,360 -576.43,360 -576.18,360C-575.94,360 -575.69,360 -575.45,360C-575.21,360 -574.96,360 -574.72,360C-574.48,360 -574.23,360 -573.99,360C-573.75,360 -573.5,360 -573.26,360C-573.02,360 -572.77,360 -572.53,360C-572.29,360 -572.04,360 -571.8,360C-571.55,360 -571.31,360 -571.06,360C-570.82,360 -570.57,360 -570.33,360C-570.09,360 -569.84,360 -569.6,360C-569.36,360 -569.11,360 -568.87,360C-568.63,360 -568.38,360 -568.14,360C-567.9,360 -567.65,360 -567.41,360C-567.17,360 -566.92,360 -566.68,360C-566.43,360 -566.19,360 -565.94,360C-565.7,360 -565.45,360 -565.21,360C-564.97,360 -564.72,360 -564.48,360C-564.24,360 -563.99,360 -563.75,360C-563.51,360 -563.26,360 -563.02,360C-562.78,360 -562.53,360 -562.29,360C-562.05,360 -561.8,360 -561.56,360C-561.32,360 -561.07,360 -560.83,360C-560.58,360 -560.34,360 -560.09,360C-559.85,360 -559.6,360 -559.36,360C-559.12,360 -558.87,360 -558.63,360C-558.39,360 -558.14,360 -557.9,360C-557.66,360 -557.41,360 -557.17,360C-556.93,360 -556.68,360 -556.44,360C-556.2,360 -555.95,360 -555.71,360C-555.46,360 -555.22,360 -554.97,360C-554.73,360 -554.48,360 -554.24,360C-554,360 -553.75,360 -553.51,360C-553.27,360 -553.02,360 -552.78,360C-552.54,360 -552.29,360 -552.05,360C-551.81,360 -551.56,360 -551.32,360C-551.08,360 -550.83,360 -550.59,360C-550.34,360 -550.1,360 -549.85,360C-549.61,360 -549.36,360 -549.12,360C-548.88,360 -548.63,360 -548.39,360C-548.15,360 -547.9,360 -547.66,360C-547.42,360 -547.17,360 -546.93,360C-546.69,360 -546.44,360 -546.2,360C-545.96,360 -545.71,360 -545.47,360C-545.22,360 -544.98,360 -544.73,360C-544.49,360 -544.24,360 -544,360C-543.76,360 -543.51,360 -543.27,360C-543.03,360 -542.78,360 -542.54,360C-542.3,360 -542.05,360 -541.81,360C-541.57,360 -541.32,360 -541.08,360C-540.84,360 -540.59,360 -540.35,360C-540.11,360 -539.86,360 -539.62,360C-539.37,360 -539.13,360 -538.88,360C-538.64,360 -538.39,360 -538.15,360C-537.91,360 -537.66,360 -537.42,360C-537.18,360 -536.93,360 -536.69,360C-536.45,360 -536.2,360 -535.96,360C-535.72,360 -535.47,360 -535.23,360C-534.99,360 -534.74,360 -534.5,360C-534.25,360 -534.01,360 -533.76,360C-533.52,360 -533.27,360 -533.03,360C-532.79,360 -532.54,360 -532.3,360C-532.06,360 -531.81,360 -531.57,360C-531.33,360 -531.08,360 -530.84,360C-530.6,360 -530.35,360 -530.11,360C-529.87,360 -529.62,360 -529.38,360C-529.13,360 -528.89,360 -528.64,360C-528.4,360 -528.15,360 -527.91,360C-527.67,360 -527.42,360 -527.18,360C-526.94,360 -526.69,360 -526.45,360C-526.21,360 -525.96,360 -525.72,360C-525.48,360 -525.23,360 -524.99,360C-524.75,360 -524.5,360 -524.26,360C-524.01,360 -523.77,360 -523.52,360C-523.28,360 -523.03,360 -522.79,360C-522.55,360 -522.3,360 -522.06,360C-521.82,360 -521.57,360 -521.33,360C-521.09,360 -520.84,360 -520.6,360C-520.36,360 -520.11,360 -519.87,360C-519.63,360 -519.38,360 -519.14,360C-518.89,360 -518.65,360 -518.4,360C-518.16,360 -517.91,360 -517.67,360C-517.43,360 -517.18,360 -516.94,360C-516.7,360 -516.45,360 -516.21,360C-515.97,360 -515.72,360 -515.48,360C-515.24,360 -514.99,360 -514.75,360C-514.51,360 -514.26,360 -514.02,360C-513.78,360 -513.53,360 -513.29,360C-513.04,360 -512.8,360 -512.55,360C-512.31,360 -512.06,360 -511.82,360C-511.58,360 -511.33,360 -511.09,360C-510.85,360 -510.6,360 -510.36,360C-510.12,360 -509.87,360 -509.63,360C-509.39,360 -509.14,360 -508.9,360C-508.66,360 -508.41,360 -508.17,360C-507.92,360 -507.68,360 -507.43,360C-507.19,360 -506.94,360 -506.7,360C-506.46,360 -506.21,360 -505.97,360C-505.73,360 -505.48,360 -505.24,360C-505,360 -504.75,360 -504.51,360C-504.27,360 -504.02,360 -503.78,360C-503.54,360 -503.29,360 -503.05,360C-502.8,360 -502.56,360 -502.31,360C-502.07,360 -501.82,360 -501.58,360C-501.34,360 -501.09,360 -500.85,360C-500.61,360 -500.36,360 -500.12,360C-499.88,360 -499.63,360 -499.39,360C-499.15,360 -498.9,360 -498.66,360C-498.42,360 -498.17,360 -497.93,360C-497.68,360 -497.44,360 -497.19,360C-496.95,360 -496.7,360 -496.46,360C-496.22,360 -495.97,360 -495.73,360C-495.49,360 -495.24,360 -495,360C-494.76,360 -494.51,360 -494.27,360C-494.03,360 -493.78,360 -493.54,360C-493.3,360 -493.05,360 -492.81,360C-492.57,360 -492.32,360 -492.08,360C-491.83,360 -491.59,360 -491.34,360C-491.1,360 -490.85,360 -490.61,360C-490.37,360 -490.12,360 -489.88,360C-489.64,360 -489.39,360 -489.15,360C-488.91,360 -488.66,360 -488.42,360C-488.18,360 -487.93,360 -487.69,360C-487.45,360 -487.2,360 -486.96,360C-486.71,360 -486.47,360 -486.22,360C-485.98,360 -485.73,360 -485.49,360C-485.25,360 -485,360 -484.76,360C-484.52,360 -484.27,360 -484.03,360C-483.79,360 -483.54,360 -483.3,360C-483.06,360 -482.81,360 -482.57,360C-482.33,360 -482.08,360 -481.84,360C-481.59,360 -481.35,360 -481.1,360C-480.86,360 -480.61,360 -480.37,360C-480.13,360 -479.88,360 -479.64,360C-479.4,360 -479.15,360 -478.91,360C-478.67,360 -478.42,360 -478.18,360C-477.94,360 -477.69,360 -477.45,360C-477.21,360 -476.96,360 -476.72,360C-476.47,360 -476.23,360 -475.98,360C-475.74,360 -475.49,360 -475.25,360C-475.01,360 -474.76,360 -474.52,360C-474.28,360 -474.03,360 -473.79,360C-473.55,360 -473.3,360 -473.06,360C-472.82,360 -472.57,360 -472.33,360C-472.09,360 -471.84,360 -471.6,360C-471.35,360 -471.11,360 -470.86,360C-470.62,360 -470.37,360 -470.13,360C-469.89,360 -469.64,360 -469.4,360C-469.16,360 -468.91,360 -468.67,360C-468.43,360 -468.18,360 -467.94,360C-467.7,360 -467.45,360 -467.21,360C-466.97,360 -466.72,360 -466.48,360C-466.24,360 -465.99,360 -465.75,360C-465.5,360 -465.26,360 -465.01,360C-464.77,360 -464.52,360 -464.28,360C-464.04,360 -463.79,360 -463.55,360C-463.31,360 -463.06,360 -462.82,360C-462.58,360 -462.33,360 -462.09,360C-461.85,360 -461.6,360 -461.36,360C-461.12,360 -460.87,360 -460.63,360C-460.38,360 -460.14,360 -459.89,360C-459.65,360 -459.4,360 -459.16,360C-458.92,360 -458.67,360 -458.43,360C-458.19,360 -457.94,360 -457.7,360C-457.46,360 -457.21,360 -456.97,360C-456.73,360 -456.48,360 -456.24,360C-456,360 -455.75,360 -455.51,360C-455.26,360 -455.02,360 -454.77,360C-454.53,360 -454.28,360 -454.04,360C-453.8,360 -453.55,360 -453.31,360C-453.07,360 -452.82,360 -452.58,360C-452.34,360 -452.09,360 -451.85,360C-451.61,360 -451.36,360 -451.12,360C-450.88,360 -450.63,360 -450.39,360C-450.14,360 -449.9,360 -449.65,360C-449.41,360 -449.16,360 -448.92,360C-448.68,360 -448.43,360 -448.19,360C-447.95,360 -447.7,360 -447.46,360C-447.22,360 -446.97,360 -446.73,360C-446.49,360 -446.24,360 -446,360C-445.76,360 -445.51,360 -445.27,360C-445.03,360 -444.78,360 -444.54,360C-444.29,360 -444.05,360 -443.8,360C-443.56,360 -443.31,360 -443.07,360C-442.83,360 -442.58,360 -442.34,360C-442.1,360 -441.85,360 -441.61,360C-441.37,360 -441.12,360 -440.88,360C-440.64,360 -440.39,360 -440.15,360C-439.91,360 -439.66,360 -439.42,360C-439.17,360 -438.93,360 -438.68,360C-438.44,360 -438.19,360 -437.95,360C-437.71,360 -437.46,360 -437.22,360C-436.98,360 -436.73,360 -436.49,360C-436.25,360 -436,360 -435.76,360C-435.52,360 -435.27,360 -435.03,360C-434.79,360 -434.54,360 -434.3,360C-434.05,360 -433.81,360 -433.56,360C-433.32,360 -433.07,360 -432.83,360C-432.59,360 -432.34,360 -432.1,360C-431.86,360 -431.61,360 -431.37,360C-431.13,360 -430.88,360 -430.64,360C-430.4,360 -430.15,360 -429.91,360C-429.67,360 -429.42,360 -429.18,360C-428.93,360 -428.69,360 -428.44,360C-428.2,360 -427.95,360 -427.71,360C-427.47,360 -427.22,360 -426.98,360C-426.74,360 -426.49,360 -426.25,360C-426.01,360 -425.76,360 -425.52,360C-425.28,360 -425.03,360 -424.79,360C-424.55,360 -424.3,360 -424.06,360C-423.82,360 -423.57,360 -423.33,360C-423.08,360 -422.84,360 -422.59,360C-422.35,360 -422.1,360 -421.86,360C-421.62,360 -421.37,360 -421.13,360C-420.89,360 -420.64,360 -420.4,360C-420.16,360 -419.91,360 -419.67,360C-419.43,360 -419.18,360 -418.94,360C-418.7,360 -418.45,360 -418.21,360C-417.96,360 -417.72,360 -417.47,360C-417.23,360 -416.98,360 -416.74,360C-416.5,360 -416.25,360 -416.01,360C-415.77,360 -415.52,360 -415.28,360C-415.04,360 -414.79,360 -414.55,360C-414.31,360 -414.06,360 -413.82,360C-413.58,360 -413.33,360 -413.09,360C-412.84,360 -412.6,360 -412.35,360C-412.11,360 -411.86,360 -411.62,360C-411.38,360 -411.13,360 -410.89,360C-410.65,360 -410.4,360 -410.16,360C-409.92,360 -409.67,360 -409.43,360C-409.19,360 -408.94,360 -408.7,360C-408.46,360 -408.21,360 -407.97,360C-407.72,360 -407.48,360 -407.23,360C-406.99,360 -406.74,360 -406.5,360C-406.26,360 -406.01,360 -405.77,360C-405.53,360 -405.28,360 -405.04,360C-404.8,360 -404.55,360 -404.31,360C-404.07,360 -403.82,360 -403.58,360C-403.34,360 -403.09,360 -402.85,360C-402.6,360 -402.36,360 -402.11,360C-401.87,360 -401.62,360 -401.38,360C-401.14,360 -400.89,360 -400.65,360C-400.41,360 -400.16,360 -399.92,360C-399.68,360 -399.43,360 -399.19,360C-398.95,360 -398.7,360 -398.46,360C-398.22,360 -397.97,360 -397.73,360C-397.49,360 -397.24,360 -397,360C-396.75,360 -396.51,360 -396.26,360C-396.02,360 -395.77,360 -395.53,360C-395.29,360 -395.04,360 -394.8,360C-394.56,360 -394.31,360 -394.07,360C-393.83,360 -393.58,360 -393.34,360C-393.1,360 -392.85,360 -392.61,360C-392.37,360 -392.12,360 -391.88,360C-391.63,360 -391.39,360 -391.14,360C-390.9,360 -390.65,360 -390.41,360C-390.17,360 -389.92,360 -389.68,360C-389.44,360 -389.19,360 -388.95,360C-388.71,360 -388.46,360 -388.22,360C-387.98,360 -387.73,360 -387.49,360C-387.25,360 -387,360 -386.76,360C-386.51,360 -386.27,360 -386.02,360C-385.78,360 -385.53,360 -385.29,360C-385.05,360 -384.8,360 -384.56,360C-384.32,360 -384.07,360 -383.83,360C-383.59,360 -383.34,360 -383.1,360C-382.86,360 -382.61,360 -382.37,360C-382.13,360 -381.88,360 -381.64,360C-381.39,360 -381.15,360 -380.9,360C-380.66,360 -380.41,360 -380.17,360C-379.93,360 -379.68,360 -379.44,360C-379.2,360 -378.95,360 -378.71,360C-378.47,360 -378.22,360 -377.98,360C-377.74,360 -377.49,360 -377.25,360C-377.01,360 -376.76,360 -376.52,360C-376.28,360 -376.03,360 -375.79,360C-375.54,360 -375.3,360 -375.05,360C-374.81,360 -374.56,360 -374.32,360C-374.08,360 -373.83,360 -373.59,360C-373.35,360 -373.1,360 -372.86,360C-372.62,360 -372.37,360 -372.13,360C-371.89,360 -371.64,360 -371.4,360C-371.16,360 -370.91,360 -370.67,360C-370.42,360 -370.18,360 -369.93,360C-369.69,360 -369.44,360 -369.2,360C-368.96,360 -368.71,360 -368.47,360C-368.23,360 -367.98,360 -367.74,360C-367.5,360 -367.25,360 -367.01,360C-366.77,360 -366.52,360 -366.28,360C-366.04,360 -365.79,360 -365.55,360C-365.3,360 -365.06,360 -364.81,360C-364.57,360 -364.32,360 -364.08,360C-363.84,360 -363.59,360 -363.35,360C-363.11,360 -362.86,360 -362.62,360C-362.38,360 -362.13,360 -361.89,360C-361.65,360 -361.4,360 -361.16,360C-360.92,360 -360.67,360 -360.43,360C-360.18,360 -359.94,360 -359.69,360C-359.45,360 -359.2,360 -358.96,360C-358.72,360 -358.47,360 -358.23,360C-357.99,360 -357.74,360 -357.5,360C-357.26,360 -357.01,360 -356.77,360C-356.53,360 -356.28,360 -356.04,360C-355.8,360 -355.55,360 -355.31,360C-355.06,360 -354.82,360 -354.57,360C-354.33,360 -354.08,360 -353.84,360C-353.6,360 -353.35,360 -353.11,360C-352.87,360 -352.62,360 -352.38,360C-352.14,360 -351.89,360 -351.65,360C-351.41,360 -351.16,360 -350.92,360C-350.68,360 -350.43,360 -350.19,360C-349.95,360 -349.7,360 -349.46,360C-349.21,360 -348.97,360 -348.72,360C-348.48,360 -348.23,360 -347.99,360C-347.75,360 -347.5,360 -347.26,360C-347.02,360 -346.77,360 -346.53,360C-346.29,360 -346.04,360 -345.8,360C-345.56,360 -345.31,360 -345.07,360C-344.83,360 -344.58,360 -344.34,360C-344.09,360 -343.85,360 -343.6,360C-343.36,360 -343.11,360 -342.87,360C-342.63,360 -342.38,360 -342.14,360C-341.9,360 -341.65,360 -341.41,360C-341.17,360 -340.92,360 -340.68,360C-340.44,360 -340.19,360 -339.95,360C-339.71,360 -339.46,360 -339.22,360C-338.97,360 -338.73,360 -338.48,360C-338.24,360 -337.99,360 -337.75,360C-337.51,360 -337.26,360 -337.02,360C-336.78,360 -336.53,360 -336.29,360C-336.05,360 -335.8,360 -335.56,360C-335.32,360 -335.07,360 -334.83,360C-334.59,360 -334.34,360 -334.1,360C-333.85,360 -333.61,360 -333.36,360C-333.12,360 -332.87,360 -332.63,360C-332.39,360 -332.14,360 -331.9,360C-331.66,360 -331.41,360 -331.17,360C-330.93,360 -330.68,360 -330.44,360C-330.2,360 -329.95,360 -329.71,360C-329.47,360 -329.22,360 -328.98,360C-328.74,360 -328.49,360 -328.25,360C-328,360 -327.76,360 -327.51,360C-327.27,360 -327.02,360 -326.78,360C-326.54,360 -326.29,360 -326.05,360C-325.81,360 -325.56,360 -325.32,360C-325.08,360 -324.83,360 -324.59,360C-324.35,360 -324.1,360 -323.86,360C-323.62,360 -323.37,360 -323.13,360C-322.88,360 -322.64,360 -322.39,360C-322.15,360 -321.9,360 -321.66,360C-321.42,360 -321.17,360 -320.93,360C-320.69,360 -320.44,360 -320.2,360C-319.96,360 -319.71,360 -319.47,360C-319.23,360 -318.98,360 -318.74,360C-318.5,360 -318.25,360 -318.01,360C-317.76,360 -317.52,360 -317.27,360C-317.03,360 -316.78,360 -316.54,360C-316.3,360 -316.05,360 -315.81,360C-315.57,360 -315.32,360 -315.08,360C-314.84,360 -314.59,360 -314.35,360C-314.11,360 -313.86,360 -313.62,360C-313.38,360 -313.13,360 -312.89,360C-312.64,360 -312.4,360 -312.15,360C-311.91,360 -311.66,360 -311.42,360C-311.18,360 -310.93,360 -310.69,360C-310.45,360 -310.2,360 -309.96,360C-309.72,360 -309.47,360 -309.23,360C-308.99,360 -308.74,360 -308.5,360C-308.26,360 -308.01,360 -307.77,360C-307.52,360 -307.28,360 -307.03,360C-306.79,360 -306.54,360 -306.3,360C-306.06,360 -305.81,360 -305.57,360C-305.33,360 -305.08,360 -304.84,360C-304.6,360 -304.35,360 -304.11,360C-303.87,360 -303.62,360 -303.38,360C-303.14,360 -302.89,360 -302.65,360C-302.41,360 -302.16,360 -301.92,360C-301.67,360 -301.43,360 -301.18,360C-300.94,360 -300.69,360 -300.45,360C-300.21,360 -299.96,360 -299.72,360C-299.48,360 -299.23,360 -298.99,360C-298.75,360 -298.5,360 -298.26,360C-298.02,360 -297.77,360 -297.53,360C-297.29,360 -297.04,360 -296.8,360C-296.55,360 -296.31,360 -296.06,360C-295.82,360 -295.57,360 -295.33,360C-295.09,360 -294.84,360 -294.6,360C-294.36,360 -294.11,360 -293.87,360C-293.63,360 -293.38,360 -293.14,360C-292.9,360 -292.65,360 -292.41,360C-292.17,360 -291.92,360 -291.68,360C-291.43,360 -291.19,360 -290.94,360C-290.7,360 -290.45,360 -290.21,360C-289.97,360 -289.72,360 -289.48,360C-289.24,360 -288.99,360 -288.75,360C-288.51,360 -288.26,360 -288.02,360C-287.78,360 -287.53,360 -287.29,360C-287.05,360 -286.8,360 -286.56,360C-286.31,360 -286.07,360 -285.82,360C-285.58,360 -285.33,360 -285.09,360C-284.85,360 -284.6,360 -284.36,360C-284.12,360 -283.87,360 -283.63,360C-283.39,360 -283.14,360 -282.9,360C-282.66,360 -282.41,360 -282.17,360C-281.93,360 -281.68,360 -281.44,360C-281.2,360 -280.95,360 -280.71,360C-280.46,360 -280.22,360 -279.97,360C-279.73,360 -279.48,360 -279.24,360C-279,360 -278.75,360 -278.51,360C-278.27,360 -278.02,360 -277.78,360C-277.54,360 -277.29,360 -277.05,360C-276.81,360 -276.56,360 -276.32,360C-276.08,360 -275.83,360 -275.59,360C-275.34,360 -275.1,360 -274.85,360C-274.61,360 -274.36,360 -274.12,360C-273.88,360 -273.63,360 -273.39,360C-273.15,360 -272.9,360 -272.66,360C-272.42,360 -272.17,360 -271.93,360C-271.69,360 -271.44,360 -271.2,360C-270.96,360 -270.71,360 -270.47,360C-270.22,360 -269.98,360 -269.73,360C-269.49,360 -269.24,360 -269,360C-268.76,360 -268.51,360 -268.27,360C-268.03,360 -267.78,360 -267.54,360C-267.3,360 -267.05,360 -266.81,360C-266.57,360 -266.32,360 -266.08,360C-265.84,360 -265.59,360 -265.35,360C-265.1,360 -264.86,360 -264.61,360C-264.37,360 -264.12,360 -263.88,360C-263.64,360 -263.39,360 -263.15,360C-262.91,360 -262.66,360 -262.42,360C-262.18,360 -261.93,360 -261.69,360C-261.45,360 -261.2,360 -260.96,360C-260.72,360 -260.47,360 -260.23,360C-259.99,360 -259.74,360 -259.5,360C-259.25,360 -259.01,360 -258.76,360C-258.52,360 -258.27,360 -258.03,360C-257.79,360 -257.54,360 -257.3,360C-257.06,360 -256.81,360 -256.57,360C-256.33,360 -256.08,360 -255.84,360C-255.6,360 -255.35,360 -255.11,360C-254.87,360 -254.62,360 -254.38,360C-254.13,360 -253.89,360 -253.64,360C-253.4,360 -253.15,360 -252.91,360C-252.67,360 -252.42,360 -252.18,360C-251.94,360 -251.69,360 -251.45,360C-251.21,360 -250.96,360 -250.72,360C-250.48,360 -250.23,360 -249.99,360C-249.75,360 -249.5,360 -249.26,360C-249.01,360 -248.77,360 -248.52,360C-248.28,360 -248.03,360 -247.79,360C-247.55,360 -247.3,360 -247.06,360C-246.82,360 -246.57,360 -246.33,360C-246.09,360 -245.84,360 -245.6,360C-245.36,360 -245.11,360 -244.87,360C-244.63,360 -244.38,360 -244.14,360C-243.89,360 -243.65,360 -243.4,360C-243.16,360 -242.91,360 -242.67,360C-242.43,360 -242.18,360 -241.94,360C-241.7,360 -241.45,360 -241.21,360C-240.97,360 -240.72,360 -240.48,360C-240.24,360 -239.99,360 -239.75,360C-239.51,360 -239.26,360 -239.02,360C-238.77,360 -238.53,360 -238.28,360C-238.04,360 -237.79,360 -237.55,360C-237.31,360 -237.06,360 -236.82,360C-236.58,360 -236.33,360 -236.09,360C-235.85,360 -235.6,360 -235.36,360C-235.12,360 -234.87,360 -234.63,360C-234.39,360 -234.14,360 -233.9,360C-233.66,360 -233.41,360 -233.17,360C-232.92,360 -232.68,360 -232.43,360C-232.19,360 -231.94,360 -231.7,360C-231.46,360 -231.21,360 -230.97,360C-230.73,360 -230.48,360 -230.24,360C-230,360 -229.75,360 -229.51,360C-229.27,360 -229.02,360 -228.78,360C-228.54,360 -228.29,360 -228.05,360C-227.8,360 -227.56,360 -227.31,360C-227.07,360 -226.82,360 -226.58,360C-226.34,360 -226.09,360 -225.85,360C-225.61,360 -225.36,360 -225.12,360C-224.88,360 -224.63,360 -224.39,360C-224.15,360 -223.9,360 -223.66,360C-223.42,360 -223.17,360 -222.93,360C-222.68,360 -222.44,360 -222.19,360C-221.95,360 -221.7,360 -221.46,360C-221.22,360 -220.97,360 -220.73,360C-220.49,360 -220.24,360 -220,360C-219.76,360 -219.51,360 -219.27,360C-219.03,360 -218.78,360 -218.54,360C-218.3,360 -218.05,360 -217.81,360C-217.56,360 -217.32,360 -217.07,360C-216.83,360 -216.58,360 -216.34,360C-216.1,360 -215.85,360 -215.61,360C-215.37,360 -215.12,360 -214.88,360C-214.64,360 -214.39,360 -214.15,360C-213.91,360 -213.66,360 -213.42,360C-213.18,360 -212.93,360 -212.69,360C-212.45,360 -212.2,360 -211.96,360C-211.71,360 -211.47,360 -211.22,360C-210.98,360 -210.73,360 -210.49,360C-210.25,360 -210,360 -209.76,360C-209.52,360 -209.27,360 -209.03,360C-208.79,360 -208.54,360 -208.3,360C-208.06,360 -207.81,360 -207.57,360C-207.33,360 -207.08,360 -206.84,360C-206.59,360 -206.35,360 -206.1,360C-205.86,360 -205.61,360 -205.37,360C-205.13,360 -204.88,360 -204.64,360C-204.4,360 -204.15,360 -203.91,360C-203.67,360 -203.42,360 -203.18,360C-202.94,360 -202.69,360 -202.45,360C-202.21,360 -201.96,360 -201.72,360C-201.47,360 -201.23,360 -200.98,360C-200.74,360 -200.49,360 -200.25,360C-200.01,360 -199.76,360 -199.52,360C-199.28,360 -199.03,360 -198.79,360C-198.55,360 -198.3,360 -198.06,360C-197.82,360 -197.57,360 -197.33,360C-197.09,360 -196.84,360 -196.6,360C-196.35,360 -196.11,360 -195.86,360C-195.62,360 -195.37,360 -195.13,360C-194.89,360 -194.64,360 -194.4,360C-194.16,360 -193.91,360 -193.67,360C-193.43,360 -193.18,360 -192.94,360C-192.7,360 -192.45,360 -192.21,360C-191.97,360 -191.72,360 -191.48,360C-191.23,360 -190.99,360 -190.74,360C-190.5,360 -190.25,360 -190.01,360C-189.77,360 -189.52,360 -189.28,360C-189.04,360 -188.79,360 -188.55,360C-188.31,360 -188.06,360 -187.82,360C-187.58,360 -187.33,360 -187.09,360C-186.85,360 -186.6,360 -186.36,360C-186.12,360 -185.87,360 -185.63,360C-185.38,360 -185.14,360 -184.89,360C-184.65,360 -184.4,360 -184.16,360C-183.92,360 -183.67,360 -183.43,360C-183.19,360 -182.94,360 -182.7,360C-182.46,360 -182.21,360 -181.97,360C-181.73,360 -181.48,360 -181.24,360C-181,360 -180.75,360 -180.51,360C-180.26,360 -180.02,360 -179.77,360C-179.53,360 -179.28,360 -179.04,360C-178.8,360 -178.55,360 -178.31,360C-178.07,360 -177.82,360 -177.58,360C-177.34,360 -177.09,360 -176.85,360C-176.61,360 -176.36,360 -176.12,360C-175.88,360 -175.63,360 -175.39,360C-175.14,360 -174.9,360 -174.65,360C-174.41,360 -174.16,360 -173.92,360C-173.68,360 -173.43,360 -173.19,360C-172.95,360 -172.7,360 -172.46,360C-172.22,360 -171.97,360 -171.73,360C-171.49,360 -171.24,360 -171,360C-170.76,360 -170.51,360 -170.27,360C-170.02,360 -169.78,360 -169.53,360C-169.29,360 -169.04,360 -168.8,360C-168.56,360 -168.31,360 -168.07,360C-167.83,360 -167.58,360 -167.34,360C-167.1,360 -166.85,360 -166.61,360C-166.37,360 -166.12,360 -165.88,360C-165.64,360 -165.39,360 -165.15,360C-164.91,360 -164.66,360 -164.42,360C-164.17,360 -163.93,360 -163.68,360C-163.44,360 -163.19,360 -162.95,360C-162.71,360 -162.46,360 -162.22,360C-161.98,360 -161.73,360 -161.49,360C-161.25,360 -161,360 -160.76,360C-160.52,360 -160.27,360 -160.03,360C-159.79,360 -159.54,360 -159.3,360C-159.05,360 -158.81,360 -158.56,360C-158.32,360 -158.07,360 -157.83,360C-157.59,360 -157.34,360 -157.1,360C-156.86,360 -156.61,360 -156.37,360C-156.13,360 -155.88,360 -155.64,360C-155.4,360 -155.15,360 -154.91,360C-154.67,360 -154.42,360 -154.18,360C-153.93,360 -153.69,360 -153.44,360C-153.2,360 -152.95,360 -152.71,360C-152.47,360 -152.22,360 -151.98,360C-151.74,360 -151.49,360 -151.25,360C-151.01,360 -150.76,360 -150.52,360C-150.28,360 -150.03,360 -149.79,360C-149.55,360 -149.3,360 -149.06,360C-148.81,360 -148.57,359.99 -148.32,359.99C-148.08,359.99 -147.83,359.99 -147.59,359.99C-147.35,359.99 -147.1,359.99 -146.86,359.99C-146.62,359.99 -146.37,359.99 -146.13,359.99C-145.89,359.99 -145.64,359.99 -145.4,359.99C-145.16,359.99 -144.91,359.99 -144.67,359.99C-144.43,359.99 -144.18,359.99 -143.94,359.99C-143.69,359.99 -143.45,359.99 -143.2,359.99C-142.96,359.99 -142.71,359.99 -142.47,359.99C-142.23,359.99 -141.98,359.99 -141.74,359.99C-141.5,359.99 -141.25,359.99 -141.01,359.99C-140.77,359.99 -140.52,359.99 -140.28,359.99C-140.04,359.99 -139.79,359.99 -139.55,359.99C-139.31,359.99 -139.06,359.99 -138.82,359.99C-138.58,359.99 -138.33,359.99 -138.09,359.99C-137.84,359.99 -137.6,359.99 -137.35,359.99C-137.11,359.99 -136.86,359.99 -136.62,359.99C-136.38,359.99 -136.13,359.99 -135.89,359.99C-135.65,359.99 -135.4,359.99 -135.16,359.99C-134.92,359.99 -134.67,359.99 -134.43,359.99C-134.19,359.99 -133.94,359.99 -133.7,359.99C-133.46,359.99 -133.21,359.99 -132.97,359.99C-132.72,359.99 -132.48,359.99 -132.23,359.99C-131.99,359.99 -131.74,359.99 -131.5,359.99C-131.26,359.99 -131.01,359.99 -130.77,359.99C-130.53,359.99 -130.28,359.99 -130.04,359.99C-129.8,359.99 -129.55,359.99 -129.31,359.99C-129.07,359.99 -128.82,359.99 -128.58,359.99C-128.34,359.99 -128.09,359.99 -127.85,359.99C-127.6,359.99 -127.36,359.99 -127.11,359.99C-126.87,359.99 -126.62,359.99 -126.38,359.99C-126.14,359.99 -125.89,359.99 -125.65,359.99C-125.41,359.99 -125.16,359.99 -124.92,359.99C-124.68,359.99 -124.43,359.99 -124.19,359.99C-123.95,359.99 -123.7,359.99 -123.46,359.99C-123.22,359.99 -122.97,359.99 -122.73,359.99C-122.48,359.99 -122.24,359.99 -121.99,359.99C-121.75,359.99 -121.5,359.99 -121.26,359.99C-121.02,359.99 -120.77,359.99 -120.53,359.99C-120.29,359.99 -120.04,359.99 -119.8,359.99C-119.56,359.99 -119.31,359.99 -119.07,359.99C-118.83,359.99 -118.58,359.99 -118.34,359.99C-118.1,359.99 -117.85,359.99 -117.61,359.99C-117.37,359.99 -117.12,359.99 -116.88,359.99C-116.63,359.99 -116.39,359.99 -116.14,359.99C-115.9,359.99 -115.65,359.99 -115.41,359.99C-115.17,359.99 -114.92,359.99 -114.68,359.99C-114.44,359.99 -114.19,359.99 -113.95,359.99C-113.71,359.99 -113.46,359.99 -113.22,359.99C-112.98,359.99 -112.73,359.99 -112.49,359.99C-112.25,359.99 -112,359.99 -111.76,359.99C-111.51,359.99 -111.27,359.99 -111.02,359.99C-110.78,359.99 -110.53,359.99 -110.29,359.99C-110.05,359.99 -109.8,359.99 -109.56,359.99C-109.32,359.99 -109.07,359.99 -108.83,359.99C-108.59,359.99 -108.34,359.99 -108.1,359.99C-107.86,359.99 -107.61,359.99 -107.37,359.99C-107.13,359.99 -106.88,359.99 -106.64,359.99C-106.39,359.99 -106.15,359.99 -105.9,359.99C-105.66,359.99 -105.41,359.99 -105.17,359.99C-104.93,359.99 -104.68,359.99 -104.44,359.99C-104.2,359.99 -103.95,359.99 -103.71,359.99C-103.47,359.99 -103.22,359.99 -102.98,359.99C-102.74,359.99 -102.49,359.99 -102.25,359.99C-102.01,359.99 -101.76,359.99 -101.52,359.99C-101.27,359.99 -101.03,359.99 -100.78,359.99C-100.54,359.99 -100.29,359.99 -100.05,359.99C-99.81,359.99 -99.56,359.99 -99.32,359.99C-99.08,359.99 -98.83,359.99 -98.59,359.99C-98.35,359.99 -98.1,359.99 -97.86,359.99C-97.62,359.99 -97.37,359.99 -97.13,359.99C-96.89,359.99 -96.64,359.99 -96.4,359.99C-96.16,359.99 -95.91,359.99 -95.67,359.99C-95.42,359.99 -95.18,359.99 -94.93,359.99C-94.69,359.99 -94.44,359.99 -94.2,359.99C-93.96,359.99 -93.71,359.99 -93.47,359.99C-93.23,359.99 -92.98,359.99 -92.74,359.99C-92.5,359.99 -92.25,359.99 -92.01,359.99C-91.77,359.99 -91.52,359.99 -91.28,359.99C-91.04,359.99 -90.79,359.99 -90.55,359.99C-90.3,359.99 -90.06,359.99 -89.81,359.99C-89.57,359.99 -89.32,359.99 -89.08,359.99C-88.84,359.99 -88.59,359.99 -88.35,359.99C-88.11,359.99 -87.86,359.99 -87.62,359.99C-87.38,359.99 -87.13,359.99 -86.89,359.99C-86.65,359.99 -86.4,359.99 -86.16,359.99C-85.92,359.99 -85.67,359.99 -85.43,359.99C-85.18,359.99 -84.94,359.99 -84.69,359.99C-84.45,359.99 -84.2,360 -83.96,360C-83.72,360 -83.47,360 -83.23,360C-82.99,360 -82.74,360 -82.5,360C-82.26,360 -82.01,360 -81.77,360C-81.53,360 -81.28,360 -81.04,360C-80.8,360 -80.55,360 -80.31,360C-80.06,360 -79.82,360 -79.57,360C-79.33,360 -79.08,360 -78.84,360C-78.6,360 -78.35,360 -78.11,360C-77.87,360 -77.62,360 -77.38,360C-77.14,360 -76.89,360 -76.65,360C-76.41,360 -76.16,360 -75.92,360C-75.68,360 -75.43,360 -75.19,360C-74.94,360 -74.7,360 -74.45,360C-74.21,360 -73.96,360 -73.72,360C-73.48,360 -73.23,360 -72.99,360C-72.75,360 -72.5,360 -72.26,360C-72.02,360 -71.77,360 -71.53,360C-71.29,360 -71.04,360 -70.8,360C-70.56,360 -70.31,360 -70.07,360C-69.83,360 -69.58,360 -69.34,360C-69.09,360 -68.85,360 -68.6,360C-68.36,360 -68.11,360 -67.87,360C-67.63,360 -67.38,360 -67.14,360C-66.9,360 -66.65,360 -66.41,360C-66.17,360 -65.92,360 -65.68,360C-65.44,360 -65.19,360 -64.95,360C-64.71,360 -64.46,360 -64.22,360C-63.97,360 -63.73,360 -63.48,360C-63.24,360 -62.99,359.99 -62.75,359.99C-62.51,359.99 -62.26,359.99 -62.02,359.99C-61.78,359.99 -61.53,359.99 -61.29,359.99C-61.05,359.99 -60.8,359.99 -60.56,359.99C-60.32,359.99 -60.07,359.99 -59.83,359.99C-59.59,359.99 -59.34,359.99 -59.1,359.99C-58.85,359.99 -58.61,359.99 -58.36,359.99C-58.12,359.99 -57.87,359.99 -57.63,359.99C-57.39,359.99 -57.14,359.99 -56.9,359.99C-56.66,359.99 -56.41,359.99 -56.17,359.99C-55.93,359.99 -55.68,359.99 -55.44,359.99C-55.2,359.99 -54.95,359.99 -54.71,359.99C-54.47,359.99 -54.22,359.99 -53.98,359.99C-53.73,359.99 -53.49,359.99 -53.24,359.99C-53,359.99 -52.75,359.99 -52.51,359.99C-52.27,359.99 -52.02,359.99 -51.78,359.99C-51.54,359.99 -51.29,359.99 -51.05,359.99C-50.81,359.99 -50.56,359.99 -50.32,359.99C-50.08,359.99 -49.83,359.99 -49.59,359.99C-49.35,359.99 -49.1,359.99 -48.86,359.99C-48.62,359.99 -48.37,359.99 -48.13,359.99C-47.88,359.99 -47.64,359.99 -47.39,359.99C-47.15,359.99 -46.9,359.99 -46.66,359.99C-46.42,359.99 -46.17,359.99 -45.93,359.99C-45.69,359.99 -45.44,359.99 -45.2,359.99C-44.96,359.99 -44.71,359.99 -44.47,359.99C-44.23,359.99 -43.98,359.99 -43.74,359.99C-43.5,359.99 -43.25,359.99 -43.01,359.99C-42.76,359.99 -42.52,359.99 -42.27,359.99C-42.03,359.99 -41.78,359.99 -41.54,359.99C-41.3,359.99 -41.05,359.99 -40.81,359.99C-40.57,359.99 -40.32,359.98 -40.08,359.98C-39.84,359.98 -39.59,359.98 -39.35,359.98C-39.11,359.98 -38.86,359.98 -38.62,359.98C-38.38,359.98 -38.13,359.98 -37.89,359.98C-37.64,359.98 -37.4,359.98 -37.15,359.98C-36.91,359.98 -36.66,359.98 -36.42,359.98C-36.18,359.98 -35.93,359.98 -35.69,359.98C-35.45,359.98 -35.2,359.98 -34.96,359.98C-34.72,359.98 -34.47,359.98 -34.23,359.98C-33.99,359.98 -33.74,359.98 -33.5,359.98C-33.26,359.98 -33.01,359.98 -32.77,359.98C-32.52,359.98 -32.28,359.97 -32.03,359.97C-31.79,359.97 -31.54,359.97 -31.3,359.97C-31.06,359.97 -30.81,359.97 -30.57,359.97C-30.33,359.97 -30.08,359.97 -29.84,359.97C-29.6,359.97 -29.35,359.97 -29.11,359.97C-28.87,359.97 -28.62,359.97 -28.38,359.97C-28.14,359.97 -27.89,359.97 -27.65,359.97C-27.4,359.97 -27.16,359.96 -26.91,359.96C-26.67,359.96 -26.42,359.96 -26.18,359.96C-25.94,359.96 -25.69,359.96 -25.45,359.96C-25.21,359.96 -24.96,359.96 -24.72,359.96C-24.48,359.96 -24.23,359.96 -23.99,359.96C-23.75,359.96 -23.5,359.96 -23.26,359.96C-23.02,359.96 -22.77,359.95 -22.53,359.95C-22.29,359.95 -22.04,359.95 -21.8,359.95C-21.55,359.95 -21.31,359.95 -21.06,359.95C-20.82,359.95 -20.57,359.95 -20.33,359.95C-20.09,359.95 -19.84,359.94 -19.6,359.94C-19.36,359.94 -19.11,359.94 -18.87,359.94C-18.63,359.94 -18.38,359.94 -18.14,359.94C-17.9,359.94 -17.65,359.94 -17.41,359.94C-17.17,359.94 -16.92,359.93 -16.68,359.93C-16.43,359.93 -16.19,359.93 -15.94,359.93C-15.7,359.93 -15.45,359.93 -15.21,359.93C-14.97,359.93 -14.72,359.92 -14.48,359.92C-14.24,359.92 -13.99,359.92 -13.75,359.92C-13.51,359.92 -13.26,359.92 -13.02,359.92C-12.78,359.92 -12.53,359.91 -12.29,359.91C-12.05,359.91 -11.8,359.91 -11.56,359.91C-11.31,359.91 -11.07,359.9 -10.82,359.9C-10.58,359.9 -10.33,359.9 -10.09,359.9C-9.85,359.9 -9.6,359.9 -9.36,359.9C-9.12,359.9 -8.87,359.89 -8.63,359.89C-8.39,359.89 -8.14,359.89 -7.9,359.89C-7.66,359.89 -7.41,359.88 -7.17,359.88C-6.93,359.88 -6.68,359.88 -6.44,359.88C-6.19,359.88 -5.95,359.87 -5.7,359.87C-5.46,359.87 -5.21,359.87 -4.97,359.87C-4.73,359.87 -4.48,359.86 -4.24,359.86C-4,359.86 -3.75,359.85 -3.51,359.85C-3.27,359.85 -3.02,359.85 -2.78,359.85C-2.54,359.85 -2.29,359.84 -2.05,359.84C-1.81,359.84 -1.56,359.83 -1.32,359.83C-1.08,359.83 -0.83,359.83 -0.59,359.83C-0.34,359.83 -0.1,359.82 0.15,359.82C0.39,359.82 0.64,359.81 0.88,359.81C1.12,359.81 1.37,359.8 1.61,359.8C1.85,359.8 2.1,359.79 2.34,359.79C2.58,359.79 2.83,359.78 3.07,359.78C3.31,359.78 3.56,359.77 3.8,359.77C4.04,359.77 4.29,359.76 4.53,359.76C4.78,359.76 5.02,359.75 5.27,359.75C5.51,359.75 5.76,359.74 6,359.74C6.24,359.74 6.49,359.73 6.73,359.73C6.97,359.73 7.22,359.72 7.46,359.72C7.7,359.71 7.95,359.71 8.19,359.7C8.43,359.7 8.68,359.69 8.92,359.69C9.16,359.69 9.41,359.68 9.65,359.68C9.9,359.67 10.14,359.67 10.39,359.66C10.63,359.66 10.88,359.65 11.12,359.65C11.36,359.64 11.61,359.64 11.85,359.63C12.09,359.63 12.34,359.62 12.58,359.62C12.82,359.61 13.07,359.61 13.31,359.6C13.55,359.6 13.8,359.59 14.04,359.59C14.28,359.58 14.53,359.58 14.77,359.57C15.02,359.56 15.26,359.56 15.51,359.55C15.75,359.54 16,359.54 16.24,359.53C16.48,359.53 16.73,359.52 16.97,359.52C17.21,359.51 17.46,359.51 17.7,359.5C17.94,359.49 18.19,359.49 18.43,359.48C18.67,359.47 18.92,359.47 19.16,359.46C19.4,359.45 19.65,359.44 19.89,359.43C20.14,359.42 20.38,359.42 20.63,359.41C20.87,359.4 21.12,359.4 21.36,359.39C21.6,359.38 21.85,359.37 22.09,359.36C22.33,359.35 22.58,359.35 22.82,359.34C23.06,359.33 23.31,359.32 23.55,359.31C23.79,359.3 24.04,359.29 24.28,359.28C24.52,359.27 24.77,359.26 25.01,359.25C25.25,359.24 25.5,359.23 25.74,359.22C25.99,359.21 26.23,359.2 26.48,359.19C26.72,359.18 26.97,359.16 27.21,359.15C27.45,359.14 27.7,359.13 27.94,359.12C28.18,359.11 28.43,359.09 28.67,359.08C28.91,359.07 29.16,359.06 29.4,359.05C29.64,359.04 29.89,359.02 30.13,359.01C30.37,359 30.62,358.98 30.86,358.97C31.11,358.96 31.35,358.94 31.6,358.93C31.84,358.92 32.09,358.9 32.33,358.89C32.57,358.88 32.82,358.86 33.06,358.85C33.3,358.84 33.55,358.82 33.79,358.81C34.03,358.79 34.28,358.78 34.52,358.76C34.76,358.75 35.01,358.73 35.25,358.72C35.49,358.7 35.74,358.69 35.98,358.67C36.23,358.65 36.47,358.64 36.72,358.62C36.96,358.6 37.21,358.59 37.45,358.57C37.69,358.55 37.94,358.53 38.18,358.51C38.42,358.49 38.67,358.48 38.91,358.46C39.15,358.44 39.4,358.42 39.64,358.4C39.88,358.38 40.13,358.36 40.37,358.34C40.61,358.32 40.86,358.3 41.1,358.28C41.35,358.26 41.59,358.24 41.84,358.22C42.08,358.2 42.33,358.17 42.57,358.15C42.81,358.13 43.06,358.1 43.3,358.08C43.54,358.06 43.79,358.03 44.03,358.01C44.27,357.99 44.52,357.96 44.76,357.94C45,357.92 45.25,357.89 45.49,357.87C45.73,357.84 45.98,357.82 46.22,357.79C46.46,357.76 46.71,357.74 46.95,357.71C47.2,357.68 47.44,357.66 47.69,357.63C47.93,357.6 48.18,357.58 48.42,357.55C48.66,357.52 48.91,357.5 49.15,357.47C49.39,357.44 49.64,357.41 49.88,357.38C50.12,357.35 50.37,357.32 50.61,357.29C50.85,357.26 51.1,357.22 51.34,357.19C51.58,357.16 51.83,357.13 52.07,357.1C52.32,357.07 52.56,357.03 52.81,357C53.05,356.97 53.3,356.93 53.54,356.9C53.78,356.86 54.03,356.83 54.27,356.79C54.51,356.76 54.76,356.73 55,356.69C55.24,356.65 55.49,356.61 55.73,356.57C55.97,356.53 56.22,356.5 56.46,356.46C56.7,356.42 56.95,356.38 57.19,356.34C57.44,356.3 57.68,356.26 57.93,356.22C58.17,356.18 58.42,356.14 58.66,356.1C58.9,356.06 59.15,356.01 59.39,355.97C59.63,355.93 59.88,355.88 60.12,355.84C60.36,355.79 60.61,355.75 60.85,355.7C61.09,355.66 61.34,355.62 61.58,355.57C61.82,355.52 62.07,355.47 62.31,355.42C62.56,355.37 62.8,355.33 63.05,355.28C63.29,355.23 63.54,355.18 63.78,355.13C64.02,355.08 64.27,355.03 64.51,354.98C64.75,354.93 65,354.87 65.24,354.82C65.48,354.77 65.73,354.71 65.97,354.66C66.21,354.6 66.46,354.55 66.7,354.49C66.94,354.43 67.19,354.38 67.43,354.32C67.67,354.26 67.92,354.21 68.16,354.15C68.41,354.09 68.65,354.03 68.9,353.97C69.14,353.91 69.39,353.84 69.63,353.78C69.87,353.72 70.12,353.65 70.36,353.59C70.6,353.53 70.85,353.46 71.09,353.4C71.33,353.33 71.58,353.27 71.82,353.2C72.06,353.13 72.31,353.07 72.55,353C72.79,352.93 73.04,352.86 73.28,352.79C73.53,352.72 73.77,352.65 74.02,352.58C74.26,352.51 74.51,352.43 74.75,352.36C74.99,352.29 75.24,352.21 75.48,352.14C75.72,352.06 75.97,351.99 76.21,351.91C76.45,351.83 76.7,351.76 76.94,351.68C77.18,351.6 77.43,351.52 77.67,351.44C77.91,351.36 78.16,351.28 78.4,351.2C78.65,351.12 78.89,351.04 79.14,350.95C79.38,350.87 79.63,350.78 79.87,350.69C80.11,350.6 80.36,350.52 80.6,350.43C80.84,350.34 81.09,350.25 81.33,350.16C81.57,350.07 81.82,349.98 82.06,349.89C82.3,349.8 82.55,349.7 82.79,349.61C83.03,349.52 83.28,349.43 83.52,349.33C83.77,349.23 84.01,349.13 84.26,349.03C84.5,348.93 84.75,348.84 84.99,348.74C85.23,348.64 85.48,348.53 85.72,348.43C85.96,348.33 86.21,348.22 86.45,348.12C86.69,348.01 86.94,347.91 87.18,347.8C87.42,347.69 87.67,347.59 87.91,347.48C88.15,347.37 88.4,347.26 88.64,347.15C88.89,347.04 89.13,346.92 89.38,346.81C89.62,346.7 89.87,346.58 90.11,346.47C90.35,346.35 90.6,346.24 90.84,346.12C91.08,346 91.33,345.88 91.57,345.76C91.81,345.64 92.06,345.51 92.3,345.39C92.54,345.27 92.79,345.14 93.03,345.02C93.27,344.89 93.52,344.77 93.76,344.64C94,344.51 94.25,344.38 94.49,344.25C94.74,344.12 94.98,343.99 95.23,343.86C95.47,343.73 95.72,343.59 95.96,343.46C96.2,343.32 96.45,343.19 96.69,343.05C96.93,342.91 97.18,342.77 97.42,342.63C97.66,342.49 97.91,342.34 98.15,342.2C98.39,342.06 98.64,341.91 98.88,341.77C99.12,341.62 99.37,341.48 99.61,341.33C99.86,341.18 100.1,341.03 100.35,340.88C100.59,340.73 100.84,340.57 101.08,340.42C101.32,340.27 101.57,340.12 101.81,339.96C102.05,339.8 102.3,339.64 102.54,339.48C102.78,339.32 103.03,339.16 103.27,339C103.51,338.84 103.76,338.67 104,338.51C104.24,338.34 104.49,338.18 104.73,338.01C104.98,337.84 105.22,337.67 105.47,337.5C105.71,337.33 105.96,337.16 106.2,336.99C106.44,336.82 106.69,336.64 106.93,336.46C107.17,336.28 107.42,336.11 107.66,335.93C107.9,335.75 108.15,335.56 108.39,335.38C108.63,335.2 108.88,335.01 109.12,334.83C109.36,334.64 109.61,334.46 109.85,334.27C110.1,334.08 110.34,333.89 110.59,333.7C110.83,333.51 111.08,333.32 111.32,333.13C111.56,332.94 111.81,332.74 112.05,332.54C112.29,332.34 112.54,332.14 112.78,331.94C113.02,331.74 113.27,331.54 113.51,331.34C113.75,331.14 114,330.93 114.24,330.72C114.48,330.51 114.73,330.31 114.97,330.1C115.21,329.89 115.46,329.68 115.7,329.47C115.95,329.26 116.19,329.04 116.44,328.82C116.68,328.6 116.93,328.39 117.17,328.17C117.41,327.95 117.66,327.73 117.9,327.51C118.14,327.29 118.39,327.07 118.63,326.84C118.87,326.61 119.12,326.38 119.36,326.15C119.6,325.92 119.85,325.69 120.09,325.46C120.33,325.23 120.58,324.99 120.82,324.76C121.07,324.52 121.31,324.29 121.56,324.05C121.8,323.81 122.05,323.57 122.29,323.33C122.53,323.09 122.78,322.84 123.02,322.6C123.26,322.35 123.51,322.11 123.75,321.86C123.99,321.61 124.24,321.36 124.48,321.11C124.72,320.86 124.97,320.6 125.21,320.34C125.45,320.08 125.7,319.83 125.94,319.57C126.19,319.31 126.44,319.05 126.68,318.79C126.93,318.53 127.17,318.26 127.41,317.99C127.65,317.72 127.9,317.46 128.14,317.19C128.38,316.92 128.63,316.65 128.87,316.38C129.11,316.11 129.36,315.83 129.6,315.55C129.84,315.27 130.09,314.99 130.33,314.71C130.57,314.43 130.82,314.14 131.06,313.86C131.31,313.58 131.56,313.3 131.8,313.01C132.05,312.72 132.29,312.43 132.53,312.14C132.77,311.85 133.02,311.55 133.26,311.25C133.5,310.95 133.75,310.66 133.99,310.36C134.23,310.06 134.48,309.75 134.72,309.45C134.96,309.15 135.21,308.85 135.45,308.54C135.69,308.23 135.94,307.92 136.18,307.61C136.43,307.3 136.68,306.99 136.92,306.67C137.17,306.35 137.41,306.03 137.65,305.71C137.89,305.39 138.14,305.07 138.38,304.75C138.62,304.43 138.87,304.1 139.11,303.77C139.35,303.44 139.6,303.11 139.84,302.78C140.08,302.45 140.33,302.11 140.57,301.77C140.81,301.43 141.06,301.09 141.3,300.75C141.54,300.41 141.79,300.07 142.03,299.72C142.28,299.37 142.53,299.02 142.77,298.67C143.02,298.32 143.26,297.97 143.5,297.61C143.74,297.25 143.99,296.89 144.23,296.53C144.47,296.17 144.72,295.81 144.96,295.44C145.2,295.07 145.45,294.7 145.69,294.33C145.93,293.96 146.18,293.58 146.42,293.2C146.66,292.82 146.91,292.44 147.15,292.06C147.4,291.68 147.65,291.29 147.89,290.9C148.14,290.51 148.38,290.12 148.62,289.72C148.86,289.32 149.11,288.92 149.35,288.52C149.59,288.12 149.84,287.71 150.08,287.3C150.32,286.89 150.57,286.48 150.81,286.06C151.05,285.64 151.3,285.22 151.54,284.8C151.78,284.37 152.03,283.94 152.27,283.51C152.52,283.08 152.77,282.64 153.01,282.2C153.26,281.76 153.5,281.31 153.74,280.86C153.98,280.41 154.23,279.96 154.47,279.5C154.71,279.04 154.96,278.58 155.2,278.11C155.44,277.64 155.69,277.17 155.93,276.69C156.17,276.21 156.42,275.73 156.66,275.24C156.9,274.75 157.15,274.25 157.39,273.75C157.64,273.25 157.89,272.74 158.13,272.23C158.38,271.72 158.62,271.2 158.86,270.68C159.1,270.15 159.35,269.62 159.59,269.08C159.83,268.54 160.08,267.99 160.32,267.44C160.56,266.88 160.81,266.32 161.05,265.76C161.29,265.19 161.54,264.61 161.78,264.03C162.02,263.44 162.27,262.85 162.51,262.25C162.76,261.64 163,261.03 163.24,260.41C163.49,259.78 163.74,259.16 163.98,258.52C164.23,257.88 164.47,257.23 164.71,256.57C164.96,255.9 165.2,255.23 165.44,254.55C165.68,253.86 165.93,253.17 166.17,252.47C166.42,251.76 166.66,251.04 166.9,250.32C167.15,249.58 167.39,248.84 167.63,248.09C167.88,247.33 168.12,246.55 168.36,245.77C168.61,244.98 168.86,244.19 169.1,243.38C169.35,242.56 169.59,241.73 169.83,240.89C170.08,240.04 170.32,239.18 170.56,238.31C170.81,237.42 171.05,236.52 171.29,235.62C171.54,234.7 171.78,233.78 172.02,232.84C172.27,231.88 172.51,230.92 172.75,229.94C173,228.95 173.24,227.94 173.48,226.93C173.73,225.9 173.98,224.85 174.22,223.8C174.47,222.73 174.71,221.64 174.95,220.54C175.2,219.42 175.44,218.3 175.68,217.16C175.93,216 176.17,214.82 176.41,213.64C176.66,212.43 176.9,211.22 177.14,209.99C177.39,208.74 177.63,207.48 177.87,206.2C178.12,204.9 178.36,203.59 178.6,202.27C178.85,200.93 179.1,199.57 179.34,198.2C179.59,196.81 179.83,195.4 180.07,193.98C180.32,192.54 180.56,191.09 180.8,189.62C181.05,188.13 181.29,186.63 181.53,185.12C181.78,183.59 182.02,182.05 182.26,180.49C182.51,178.91 182.75,177.31 182.99,175.71C183.23,174.09 183.48,172.45 183.72,170.81C183.97,169.15 184.22,167.47 184.46,165.79C184.71,164.09 184.95,162.37 185.19,160.65C185.43,158.91 185.68,157.16 185.92,155.4C186.16,153.63 186.41,151.85 186.65,150.07C186.89,148.27 187.14,146.47 187.38,144.66C187.62,142.84 187.87,141.01 188.11,139.18C188.35,137.34 188.6,135.5 188.84,133.66C189.08,131.81 189.33,129.96 189.57,128.11C189.82,126.26 190.06,124.41 190.31,122.56C190.55,120.71 190.8,118.86 191.04,117.02C191.28,115.18 191.53,113.35 191.77,111.52C192.01,109.7 192.26,107.89 192.5,106.09C192.74,104.3 192.99,102.51 193.23,100.74C193.47,98.99 193.72,97.24 193.96,95.51C194.2,93.8 194.44,92.1 194.69,90.42C194.93,88.76 195.18,87.12 195.43,85.49C195.67,83.9 195.91,82.32 196.16,80.76C196.4,79.24 196.64,77.73 196.89,76.25C197.13,74.81 197.37,73.39 197.62,71.99C197.86,70.63 198.1,69.29 198.35,67.98C198.59,66.72 198.83,65.48 199.08,64.27C199.32,63.11 199.56,61.97 199.81,60.86C200.05,59.8 200.3,58.77 200.55,57.77C200.79,56.82 201.03,55.9 201.28,55.01C201.52,54.18 201.76,53.37 202.01,52.6C202.25,51.88 202.49,51.19 202.74,50.54C202.97,49.94 203.21,49.36 203.47,48.83C203.7,48.35 203.94,47.89 204.2,47.48C204.43,47.11 204.67,46.76 204.93,46.47C205.16,46.21 205.41,45.97 205.67,45.8C205.9,45.64 206.15,45.51 206.4,45.45C206.64,45.39 206.89,45.38 207.13,45.41C207.38,45.45 207.62,45.55 207.86,45.67C208.11,45.8 208.36,45.99 208.59,46.19C208.84,46.41 209.08,46.67 209.32,46.95C209.57,47.25 209.81,47.58 210.05,47.92C210.3,48.28 210.54,48.68 210.78,49.08C211.03,49.5 211.28,49.94 211.52,50.39C211.77,50.85 212.01,51.33 212.25,51.81C212.5,52.31 212.74,52.82 212.98,53.33C213.22,53.85 213.47,54.37 213.71,54.9C213.95,55.43 214.2,55.97 214.44,56.5C214.68,57.03 214.93,57.57 215.17,58.1C215.41,58.63 215.65,59.15 215.9,59.67C216.14,60.18 216.39,60.68 216.64,61.18C216.88,61.66 217.12,62.14 217.37,62.61C217.61,63.07 217.85,63.52 218.1,63.95C218.34,64.37 218.58,64.78 218.83,65.18C219.07,65.56 219.31,65.93 219.56,66.28C219.8,66.61 220.04,66.94 220.29,67.24C220.53,67.53 220.77,67.8 221.02,68.05C221.26,68.29 221.51,68.51 221.76,68.71C222,68.9 222.24,69.08 222.49,69.22C222.73,69.36 222.97,69.47 223.22,69.56C223.46,69.64 223.71,69.7 223.95,69.73C224.19,69.76 224.44,69.77 224.68,69.75C224.92,69.73 225.17,69.67 225.41,69.59C225.66,69.51 225.9,69.41 226.14,69.28C226.39,69.15 226.64,68.98 226.88,68.8C227.13,68.61 227.37,68.4 227.61,68.17C227.86,67.93 228.1,67.65 228.34,67.37C228.59,67.07 228.83,66.75 229.07,66.42C229.32,66.07 229.56,65.69 229.8,65.31C230.05,64.91 230.29,64.49 230.53,64.06C230.78,63.61 231.02,63.14 231.26,62.66C231.51,62.16 231.75,61.65 231.99,61.12C232.24,60.57 232.49,60.01 232.73,59.44C232.98,58.85 233.22,58.24 233.46,57.63C233.71,57 233.95,56.36 234.19,55.71C234.44,55.04 234.68,54.37 234.92,53.68C235.17,52.98 235.41,52.27 235.65,51.55C235.9,50.82 236.14,50.08 236.38,49.34C236.63,48.59 236.87,47.82 237.11,47.06C237.36,46.29 237.61,45.51 237.85,44.73C238.1,43.94 238.34,43.15 238.58,42.36C238.82,41.57 239.07,40.77 239.31,39.98C239.55,39.19 239.8,38.4 240.04,37.61C240.28,36.83 240.53,36.05 240.77,35.27C241.01,34.5 241.25,33.73 241.5,32.97C241.74,32.22 241.98,31.48 242.23,30.75C242.47,30.03 242.72,29.32 242.97,28.62C243.21,27.94 243.45,27.27 243.7,26.61C243.94,25.97 244.18,25.35 244.43,24.74C244.67,24.16 244.91,23.59 245.16,23.04C245.4,22.51 245.64,22 245.89,21.51C246.13,21.05 246.37,20.61 246.62,20.19C246.86,19.8 247.1,19.43 247.35,19.09C247.59,18.78 247.83,18.48 248.09,18.22C248.32,17.99 248.57,17.77 248.82,17.6C249.05,17.45 249.3,17.32 249.55,17.24C249.79,17.17 250.04,17.13 250.28,17.14C250.52,17.15 250.77,17.22 251.01,17.32C251.26,17.43 251.51,17.59 251.74,17.78C252,17.98 252.24,18.24 252.47,18.51C252.73,18.81 252.97,19.15 253.21,19.51C253.47,19.9 253.7,20.34 253.94,20.79C254.19,21.27 254.43,21.79 254.67,22.32C254.92,22.89 255.16,23.48 255.4,24.09C255.65,24.74 255.89,25.42 256.13,26.11C256.38,26.83 256.62,27.58 256.86,28.34C257.11,29.13 257.35,29.94 257.59,30.77C257.84,31.62 258.08,32.49 258.32,33.38C258.57,34.29 258.82,35.23 259.06,36.17C259.31,37.13 259.55,38.1 259.79,39.09C260.04,40.1 260.28,41.12 260.52,42.15C260.77,43.19 261.01,44.25 261.25,45.31C261.5,46.39 261.74,47.48 261.98,48.57C262.22,49.67 262.47,50.78 262.71,51.89C262.95,53.01 263.2,54.14 263.44,55.27C263.69,56.41 263.94,57.55 264.18,58.69C264.43,59.83 264.67,60.98 264.91,62.13C265.15,63.28 265.4,64.42 265.64,65.57C265.88,66.72 266.13,67.87 266.37,69.02C266.61,70.16 266.86,71.3 267.1,72.44C267.34,73.58 267.59,74.71 267.83,75.84C268.07,76.96 268.31,78.09 268.56,79.2C268.8,80.31 269.05,81.4 269.3,82.5C269.54,83.59 269.79,84.67 270.03,85.75C270.27,86.81 270.52,87.87 270.76,88.92C271,89.96 271.25,90.99 271.49,92.02C271.73,93.03 271.97,94.04 272.22,95.04C272.46,96.02 272.7,97 272.95,97.97C273.19,98.92 273.43,99.86 273.68,100.79C273.92,101.71 274.17,102.62 274.42,103.52C274.66,104.4 274.9,105.27 275.15,106.13C275.39,106.97 275.63,107.81 275.88,108.63C276.12,109.44 276.36,110.24 276.61,111.02C276.85,111.78 277.09,112.53 277.34,113.27C277.58,113.99 277.82,114.7 278.07,115.4C278.31,116.08 278.55,116.75 278.8,117.4C279.04,118.04 279.28,118.66 279.53,119.27C279.77,119.86 280.02,120.43 280.27,120.99C280.51,121.53 280.75,122.06 281,122.57C281.24,123.06 281.48,123.54 281.73,124.01C281.97,124.46 282.21,124.89 282.46,125.31C282.7,125.71 282.94,126.08 283.19,126.45C283.43,126.8 283.67,127.14 283.92,127.46C284.16,127.76 284.4,128.05 284.65,128.31C284.89,128.56 285.14,128.8 285.39,129.02C285.63,129.23 285.87,129.43 286.12,129.6C286.36,129.77 286.6,129.91 286.85,130.04C287.09,130.16 287.33,130.27 287.58,130.35C287.82,130.43 288.07,130.49 288.31,130.54C288.55,130.59 288.8,130.62 289.04,130.63C289.28,130.64 289.53,130.63 289.77,130.61C290.02,130.59 290.27,130.55 290.51,130.51C290.76,130.47 291,130.41 291.24,130.35C291.48,130.29 291.73,130.22 291.97,130.14C292.21,130.06 292.46,129.97 292.7,129.89C292.94,129.8 293.19,129.72 293.43,129.63C293.67,129.54 293.92,129.45 294.16,129.37C294.4,129.29 294.65,129.22 294.89,129.15C295.14,129.08 295.38,129.01 295.63,128.96C295.87,128.91 296.12,128.87 296.36,128.84C296.6,128.81 296.85,128.8 297.09,128.8C297.33,128.8 297.58,128.82 297.82,128.86C298.06,128.9 298.31,128.95 298.55,129.02C298.8,129.1 299.04,129.2 299.28,129.31C299.53,129.43 299.77,129.56 300.01,129.72C300.26,129.88 300.51,130.08 300.75,130.28C301,130.49 301.24,130.72 301.48,130.97C301.73,131.23 301.97,131.51 302.21,131.81C302.46,132.12 302.7,132.46 302.94,132.8C303.19,133.16 303.43,133.53 303.67,133.92C303.92,134.33 304.16,134.75 304.4,135.19C304.65,135.64 304.89,136.11 305.13,136.59C305.38,137.08 305.62,137.59 305.86,138.11C306.11,138.65 306.36,139.2 306.6,139.76C306.85,140.33 307.09,140.91 307.33,141.5C307.58,142.11 307.82,142.73 308.06,143.35C308.31,143.99 308.55,144.63 308.79,145.28C309.04,145.94 309.28,146.62 309.52,147.29C309.76,147.97 310.01,148.66 310.25,149.35C310.49,150.05 310.74,150.76 310.98,151.47C311.23,152.18 311.48,152.9 311.72,153.62C311.97,154.34 312.21,155.07 312.45,155.8C312.69,156.53 312.94,157.26 313.18,157.99C313.42,158.72 313.67,159.45 313.91,160.18C314.15,160.91 314.4,161.64 314.64,162.37C314.88,163.1 315.13,163.83 315.37,164.55C315.61,165.27 315.85,165.99 316.1,166.71C316.34,167.42 316.59,168.13 316.84,168.84C317.08,169.54 317.33,170.25 317.57,170.95C317.81,171.65 318.06,172.35 318.3,173.04C318.54,173.73 318.79,174.42 319.03,175.1C319.27,175.78 319.52,176.46 319.76,177.13C320,177.8 320.25,178.47 320.49,179.14C320.73,179.8 320.97,180.46 321.22,181.12C321.46,181.78 321.71,182.43 321.96,183.08C322.2,183.73 322.45,184.38 322.69,185.02C322.93,185.66 323.18,186.3 323.42,186.94C323.66,187.58 323.91,188.21 324.15,188.84C324.39,189.47 324.64,190.1 324.88,190.72C325.12,191.34 325.37,191.96 325.61,192.58C325.85,193.2 326.1,193.81 326.34,194.42C326.58,195.03 326.82,195.64 327.07,196.25C327.31,196.86 327.56,197.46 327.81,198.06C328.05,198.66 328.3,199.26 328.54,199.86C328.78,200.46 329.03,201.05 329.27,201.65C329.51,202.25 329.76,202.85 330,203.44C330.24,204.03 330.49,204.62 330.73,205.21C330.97,205.8 331.22,206.4 331.46,206.99C331.7,207.58 331.95,208.17 332.19,208.76C332.44,209.35 332.68,209.94 332.93,210.53C333.17,211.12 333.42,211.7 333.66,212.29C333.9,212.88 334.15,213.46 334.39,214.05C334.63,214.64 334.88,215.23 335.12,215.81C335.36,216.39 335.61,216.97 335.85,217.55C336.09,218.13 336.34,218.7 336.58,219.28C336.82,219.85 337.06,220.43 337.31,221C337.55,221.57 337.8,222.13 338.05,222.7C338.29,223.26 338.54,223.83 338.78,224.39C339.02,224.95 339.27,225.5 339.51,226.05C339.75,226.6 340,227.15 340.24,227.7C340.48,228.25 340.73,228.8 340.97,229.34C341.21,229.88 341.46,230.42 341.7,230.96C341.94,231.5 342.18,232.04 342.43,232.58C342.67,233.12 342.93,233.65 343.17,234.19C343.42,234.73 343.66,235.27 343.9,235.81C344.14,236.35 344.39,236.88 344.63,237.42C344.87,237.96 345.12,238.51 345.36,239.05C345.6,239.59 345.85,240.13 346.09,240.68C346.33,241.23 346.58,241.78 346.82,242.33C347.06,242.88 347.31,243.44 347.55,243.99C347.8,244.55 348.05,245.1 348.29,245.66C348.54,246.22 348.78,246.79 349.02,247.35C349.26,247.92 349.51,248.48 349.75,249.05C349.99,249.62 350.24,250.18 350.48,250.75C350.72,251.32 350.97,251.89 351.21,252.46C351.45,253.03 351.7,253.61 351.94,254.18C352.18,254.76 352.43,255.33 352.67,255.91C352.91,256.49 353.16,257.06 353.4,257.64C353.65,258.22 353.89,258.79 354.14,259.37C354.38,259.95 354.63,260.52 354.87,261.1C355.11,261.68 355.36,262.27 355.6,262.85C355.84,263.43 356.09,264.01 356.33,264.59C356.57,265.17 356.82,265.76 357.06,266.35C357.3,266.94 357.55,267.52 357.79,268.11C358.03,268.7 358.28,269.29 358.52,269.88C358.77,270.47 359.01,271.06 359.26,271.65C359.5,272.24 359.75,272.83 359.99,273.42C360.23,274.01 360.48,274.6 360.72,275.19C360.96,275.78 361.21,276.36 361.45,276.94C361.69,277.52 361.94,278.11 362.18,278.69C362.42,279.26 362.67,279.83 362.91,280.4C363.15,280.97 363.39,281.53 363.64,282.09C363.88,282.64 364.13,283.18 364.38,283.72C364.62,284.25 364.86,284.79 365.11,285.31C365.35,285.82 365.59,286.33 365.84,286.83C366.08,287.32 366.32,287.8 366.57,288.28C366.81,288.75 367.05,289.21 367.3,289.66C367.54,290.1 367.78,290.53 368.03,290.95C368.27,291.36 368.51,291.77 368.76,292.17C369,292.56 369.25,292.93 369.5,293.3C369.74,293.66 369.98,294.02 370.23,294.36C370.47,294.7 370.71,295.02 370.96,295.34C371.2,295.65 371.44,295.95 371.69,296.25C371.93,296.54 372.17,296.82 372.42,297.1C372.66,297.37 372.9,297.63 373.15,297.89C373.39,298.14 373.63,298.4 373.88,298.64C374.12,298.88 374.36,299.12 374.61,299.35C374.85,299.58 375.1,299.8 375.35,300.02C375.59,300.24 375.84,300.45 376.08,300.66C376.32,300.87 376.57,301.08 376.81,301.28C377.05,301.48 377.3,301.67 377.54,301.87C377.78,302.06 378.03,302.26 378.27,302.45C378.51,302.64 378.76,302.83 379,303.01C379.24,303.19 379.49,303.37 379.73,303.55C379.98,303.73 380.22,303.9 380.47,304.08C380.71,304.25 380.96,304.43 381.2,304.6C381.44,304.77 381.69,304.93 381.93,305.1C382.17,305.26 382.42,305.43 382.66,305.59C382.9,305.75 383.15,305.9 383.39,306.06C383.63,306.21 383.88,306.37 384.12,306.52C384.36,306.67 384.6,306.82 384.85,306.97C385.09,307.12 385.34,307.26 385.59,307.4C385.83,307.54 386.08,307.68 386.32,307.82C386.56,307.96 386.81,308.09 387.05,308.22C387.29,308.35 387.54,308.47 387.78,308.59C388.02,308.71 388.27,308.83 388.51,308.94C388.75,309.05 389,309.16 389.24,309.26C389.48,309.36 389.73,309.46 389.97,309.55C390.22,309.64 390.46,309.74 390.71,309.82C390.95,309.9 391.2,309.97 391.44,310.04C391.68,310.11 391.93,310.18 392.17,310.24C392.41,310.3 392.66,310.36 392.9,310.41C393.14,310.46 393.39,310.5 393.63,310.55C393.87,310.59 394.12,310.64 394.36,310.68C394.6,310.72 394.85,310.76 395.09,310.8C395.33,310.84 395.58,310.89 395.82,310.93C396.07,310.98 396.31,311.02 396.56,311.07C396.8,311.12 397.05,311.18 397.29,311.24C397.53,311.3 397.78,311.36 398.02,311.44C398.27,311.52 398.51,311.61 398.75,311.71C398.99,311.81 399.24,311.91 399.48,312.03C399.73,312.15 399.97,312.29 400.21,312.43C400.46,312.58 400.7,312.73 400.94,312.9C401.19,313.07 401.44,313.26 401.68,313.46C401.93,313.66 402.17,313.87 402.41,314.09C402.66,314.32 402.9,314.56 403.14,314.81C403.39,315.06 403.63,315.32 403.87,315.59C404.12,315.86 404.36,316.14 404.6,316.43C404.85,316.72 405.09,317.02 405.33,317.32C405.57,317.63 405.82,317.94 406.06,318.25C406.31,318.56 406.56,318.88 406.8,319.2C407.05,319.52 407.29,319.84 407.53,320.16C407.77,320.48 408.02,320.8 408.26,321.12C408.5,321.44 408.75,321.76 408.99,322.07C409.23,322.38 409.48,322.69 409.72,323C409.96,323.3 410.21,323.6 410.45,323.89C410.69,324.18 410.93,324.47 411.18,324.75C411.42,325.03 411.67,325.3 411.92,325.57C412.16,325.83 412.4,326.1 412.65,326.35C412.89,326.6 413.13,326.83 413.38,327.06C413.62,327.29 413.86,327.51 414.11,327.72C414.35,327.93 414.59,328.12 414.84,328.31C415.08,328.49 415.32,328.66 415.57,328.82C415.81,328.97 416.05,329.12 416.3,329.25C416.54,329.38 416.79,329.49 417.04,329.59C417.28,329.68 417.52,329.76 417.77,329.82C418.01,329.88 418.26,329.93 418.5,329.95C418.74,329.97 418.99,329.98 419.23,329.97C419.47,329.96 419.72,329.92 419.96,329.87C420.2,329.82 420.45,329.76 420.69,329.68C420.94,329.6 421.18,329.5 421.42,329.39C421.67,329.28 421.91,329.15 422.15,329.02C422.4,328.89 422.65,328.74 422.89,328.6C423.14,328.45 423.38,328.3 423.62,328.15C423.86,328 424.11,327.85 424.35,327.7C424.59,327.56 424.83,327.41 425.08,327.28C425.32,327.15 425.56,327.03 425.81,326.92C426.05,326.82 426.29,326.72 426.54,326.65C426.78,326.58 427.02,326.52 427.27,326.5C427.51,326.48 427.77,326.48 428.01,326.5C428.26,326.52 428.5,326.57 428.74,326.65C428.99,326.73 429.23,326.84 429.47,326.97C429.72,327.11 429.96,327.28 430.2,327.47C430.45,327.67 430.69,327.9 430.93,328.14C431.18,328.4 431.42,328.68 431.66,328.98C431.91,329.29 432.15,329.62 432.39,329.97C432.64,330.33 432.89,330.72 433.13,331.11C433.38,331.51 433.62,331.93 433.86,332.36C434.11,332.8 434.35,333.25 434.59,333.7C434.84,334.17 435.08,334.64 435.32,335.12C435.56,335.6 435.81,336.08 436.05,336.57C436.29,337.06 436.54,337.56 436.78,338.05C437.02,338.54 437.26,339.04 437.51,339.53C437.75,340.02 438,340.5 438.25,340.98C438.49,341.46 438.73,341.93 438.98,342.4C439.22,342.86 439.46,343.31 439.71,343.76C439.95,344.2 440.19,344.63 440.44,345.06C440.68,345.48 440.92,345.89 441.17,346.29C441.41,346.68 441.65,347.07 441.9,347.44C442.14,347.81 442.38,348.16 442.63,348.51C442.87,348.85 443.11,349.18 443.36,349.5C443.6,349.81 443.85,350.12 444.1,350.41C444.34,350.7 444.58,350.97 444.83,351.24C445.07,351.5 445.31,351.76 445.56,352C445.8,352.24 446.04,352.46 446.29,352.68C446.53,352.9 446.77,353.11 447.02,353.31C447.26,353.51 447.51,353.69 447.75,353.87C447.99,354.05 448.23,354.23 448.48,354.39C448.72,354.55 448.97,354.7 449.22,354.85C449.46,355 449.71,355.14 449.95,355.27C450.19,355.4 450.44,355.53 450.68,355.65C450.92,355.77 451.17,355.88 451.41,355.99C451.65,356.1 451.9,356.2 452.14,356.3C452.38,356.4 452.63,356.49 452.87,356.58C453.11,356.67 453.36,356.76 453.6,356.84C453.85,356.92 454.09,357 454.34,357.08C454.58,357.15 454.83,357.22 455.07,357.29C455.31,357.36 455.56,357.43 455.8,357.49C456.04,357.55 456.29,357.6 456.53,357.66C456.77,357.72 457.02,357.78 457.26,357.83C457.5,357.88 457.75,357.93 457.99,357.98C458.23,358.03 458.48,358.08 458.72,358.12C458.97,358.16 459.21,358.2 459.46,358.24C459.7,358.28 459.95,358.32 460.19,358.36C460.43,358.4 460.68,358.43 460.92,358.47C461.16,358.5 461.41,358.54 461.65,358.57C461.89,358.6 462.14,358.63 462.38,358.66C462.62,358.69 462.87,358.71 463.11,358.74C463.35,358.77 463.6,358.8 463.84,358.82C464.09,358.85 464.33,358.87 464.58,358.89C464.82,358.91 465.07,358.94 465.31,358.96C465.55,358.98 465.8,359.01 466.04,359.03C466.28,359.05 466.53,359.06 466.77,359.08C467.01,359.1 467.26,359.12 467.5,359.14C467.74,359.16 467.99,359.17 468.23,359.19C468.47,359.21 468.72,359.22 468.96,359.24C469.2,359.25 469.45,359.27 469.69,359.28C469.94,359.29 470.18,359.31 470.43,359.32C470.67,359.33 470.92,359.35 471.16,359.36C471.4,359.37 471.65,359.39 471.89,359.4C472.13,359.41 472.38,359.42 472.62,359.43C472.86,359.44 473.11,359.45 473.35,359.46C473.59,359.47 473.84,359.49 474.08,359.5C474.32,359.51 474.57,359.51 474.81,359.52C475.06,359.53 475.3,359.54 475.55,359.55C475.79,359.56 476.04,359.56 476.28,359.57C476.52,359.58 476.77,359.59 477.01,359.6C477.25,359.61 477.5,359.61 477.74,359.62C477.98,359.63 478.23,359.63 478.47,359.64C478.71,359.65 478.96,359.65 479.2,359.66C479.44,359.67 479.69,359.68 479.93,359.68C480.18,359.69 480.42,359.68 480.67,359.69C480.91,359.69 481.16,359.7 481.4,359.71C481.64,359.71 481.89,359.72 482.13,359.72C482.37,359.73 482.62,359.73 482.86,359.74C483.1,359.74 483.35,359.75 483.59,359.75C483.83,359.75 484.08,359.76 484.32,359.76C484.56,359.76 484.81,359.77 485.05,359.77C485.3,359.78 485.54,359.78 485.79,359.79C486.03,359.79 486.28,359.8 486.52,359.8C486.76,359.8 487.01,359.81 487.25,359.81C487.49,359.81 487.74,359.81 487.98,359.81C488.22,359.81 488.47,359.82 488.71,359.82C488.95,359.82 489.2,359.83 489.44,359.83C489.68,359.83 489.93,359.84 490.17,359.84C490.41,359.84 490.66,359.85 490.9,359.85C491.15,359.85 491.39,359.85 491.64,359.85C491.88,359.85 492.13,359.86 492.37,359.86C492.61,359.86 492.86,359.87 493.1,359.87C493.34,359.87 493.59,359.87 493.83,359.87C494.07,359.87 494.32,359.88 494.56,359.88C494.8,359.88 495.05,359.88 495.29,359.88C495.53,359.88 495.78,359.89 496.02,359.89C496.27,359.89 496.51,359.89 496.76,359.89C497,359.89 497.25,359.9 497.49,359.9C497.73,359.9 497.98,359.9 498.22,359.9C498.46,359.9 498.71,359.91 498.95,359.91C499.19,359.91 499.44,359.91 499.68,359.91C499.92,359.91 500.17,359.91 500.41,359.91C500.65,359.91 500.9,359.92 501.14,359.92C501.39,359.92 501.63,359.92 501.88,359.92C502.12,359.92 502.37,359.92 502.61,359.92C502.85,359.92 503.1,359.93 503.34,359.93C503.58,359.93 503.83,359.93 504.07,359.93C504.31,359.93 504.56,359.93 504.8,359.93C505.04,359.93 505.29,359.93 505.53,359.93C505.77,359.93 506.02,359.94 506.26,359.94C506.51,359.94 506.75,359.94 507,359.94C507.24,359.94 507.49,359.94 507.73,359.94C507.97,359.94 508.22,359.94 508.46,359.94C508.7,359.94 508.95,359.94 509.19,359.94C509.43,359.94 509.68,359.95 509.92,359.95C510.16,359.95 510.41,359.95 510.65,359.95C510.89,359.95 511.14,359.95 511.38,359.95C511.63,359.95 511.87,359.95 512.12,359.95C512.36,359.95 512.61,359.95 512.85,359.95C513.09,359.95 513.34,359.96 513.58,359.96C513.82,359.96 514.07,359.96 514.31,359.96C514.55,359.96 514.8,359.96 515.04,359.96C515.28,359.96 515.53,359.96 515.77,359.96C516.01,359.96 516.26,359.96 516.5,359.96C516.74,359.96 516.99,359.96 517.23,359.96C517.48,359.96 517.72,359.97 517.97,359.97C518.21,359.97 518.46,359.97 518.7,359.97C518.94,359.97 519.19,359.97 519.43,359.97C519.67,359.97 519.92,359.97 520.16,359.97C520.4,359.97 520.65,359.97 520.89,359.97C521.13,359.97 521.38,359.97 521.62,359.97C521.86,359.97 522.11,359.97 522.35,359.97C522.6,359.97 522.84,359.97 523.09,359.97C523.33,359.97 523.58,359.97 523.82,359.97C524.06,359.97 524.31,359.98 524.55,359.98C524.79,359.98 525.04,359.98 525.28,359.98C525.52,359.98 525.77,359.98 526.01,359.98C526.25,359.98 526.5,359.98 526.74,359.98C526.98,359.98 527.23,359.98 527.47,359.98C527.72,359.98 527.96,359.98 528.21,359.98C528.45,359.98 528.7,359.98 528.94,359.98C529.18,359.98 529.43,359.98 529.67,359.98C529.91,359.98 530.16,359.98 530.4,359.98C530.64,359.98 530.89,359.98 531.13,359.98C531.37,359.98 531.62,359.98 531.86,359.98C532.1,359.98 532.35,359.98 532.59,359.98C532.84,359.98 533.08,359.98 533.33,359.98C533.57,359.98 533.82,359.98 534.06,359.98C534.3,359.98 534.55,359.98 534.79,359.98C535.03,359.98 535.28,359.99 535.52,359.99C535.76,359.99 536.01,359.99 536.25,359.99C536.49,359.99 536.74,359.99 536.98,359.99C537.22,359.99 537.47,359.99 537.71,359.99C537.95,359.99 538.2,359.99 538.44,359.99C538.69,359.99 538.93,359.99 539.18,359.99C539.42,359.99 539.67,359.99 539.91,359.99C540.15,359.99 540.4,359.99 540.64,359.99C540.88,359.99 541.13,359.99 541.37,359.99C541.61,359.99 541.86,359.99 542.1,359.99C542.34,359.99 542.59,359.99 542.83,359.99C543.07,359.99 543.32,359.99 543.56,359.99C543.81,359.99 544.05,359.99 544.3,359.99C544.54,359.99 544.79,359.99 545.03,359.99C545.27,359.99 545.52,359.99 545.76,359.99C546,359.99 546.25,359.99 546.49,359.99C546.73,359.99 546.98,359.99 547.22,359.99C547.46,359.99 547.71,359.99 547.95,359.99C548.19,359.99 548.44,359.99 548.68,359.99C548.93,359.99 549.17,359.99 549.42,359.99C549.66,359.99 549.91,359.99 550.15,359.99C550.39,359.99 550.64,359.99 550.88,359.99C551.12,359.99 551.37,359.99 551.61,359.99C551.85,359.99 552.1,359.99 552.34,359.99C552.58,359.99 552.83,359.99 553.07,359.99C553.31,359.99 553.56,359.99 553.8,359.99C554.05,359.99 554.29,359.99 554.54,359.99C554.78,359.99 555.03,359.99 555.27,359.99C555.51,359.99 555.76,359.99 556,359.99C556.24,359.99 556.49,359.99 556.73,359.99C556.97,359.99 557.22,359.99 557.46,359.99C557.7,359.99 557.95,359.99 558.19,359.99C558.43,359.99 558.68,359.99 558.92,359.99C559.16,359.99 559.41,359.99 559.65,359.99C559.9,359.99 560.14,359.99 560.39,359.99C560.63,359.99 560.88,360 561.12,360C561.36,360 561.61,360 561.85,360C562.09,360 562.34,360 562.58,360C562.82,360 563.07,360 563.31,360C563.55,360 563.8,360 564.04,360C564.28,360 564.53,360 564.77,360C565.02,360 565.26,360 565.51,360C565.75,360 566,360 566.24,360C566.48,360 566.73,360 566.97,360C567.21,360 567.46,360 567.7,360C567.94,360 568.19,360 568.43,360C568.67,360 568.92,360 569.16,360C569.4,360 569.65,360 569.89,360C570.14,360 570.38,360 570.63,360C570.87,360 571.12,360 571.36,360C571.6,360 571.85,360 572.09,360C572.33,360 572.58,360 572.82,360C573.06,360 573.31,360 573.55,360C573.79,360 574.04,360 574.28,360C574.52,360 574.77,360 575.01,360C575.26,360 575.5,360 575.75,360C575.99,360 576.24,360 576.48,360C576.72,360 576.97,360 577.21,360C577.45,360 577.7,360 577.94,360C578.18,360 578.43,360 578.67,360C578.91,360 579.16,360 579.4,360C579.64,360 579.89,360 580.13,360C580.38,360 580.62,360 580.87,360C581.11,360 581.36,360 581.6,360C581.84,360 582.09,360 582.33,360C582.57,360 582.82,360 583.06,360C583.3,360 583.55,360 583.79,360C584.03,360 584.28,360 584.52,360C584.76,360 585.01,360 585.25,360C585.49,360 585.74,360 585.98,360C586.23,360 586.47,360 586.72,360C586.96,360 587.21,360 587.45,360C587.69,360 587.94,360 588.18,360C588.42,360 588.67,360 588.91,360C589.15,360 589.4,360 589.64,360C589.88,360 590.13,360 590.37,360C590.61,360 590.86,360 591.1,360C591.35,360 591.59,360 591.84,360C592.08,360 592.33,360 592.57,360C592.81,360 593.06,360 593.3,360C593.54,360 593.79,360 594.03,360C594.27,360 594.52,360 594.76,360C595,360 595.25,360 595.49,360C595.73,360 595.98,360 596.22,360C596.47,360 596.71,360 596.96,360C597.2,360 597.45,360 597.69,360C597.93,360 598.18,360 598.42,360C598.66,360 598.91,360 599.15,360C599.39,360 599.64,360 599.88,360C600.12,360 600.37,360 600.61,360C600.85,360 601.1,360 601.34,360C601.59,360 601.83,360 602.08,360C602.32,360 602.57,360 602.81,360C603.05,360 603.3,360 603.54,360C603.78,360 604.03,360 604.27,360C604.51,360 604.76,360 605,360C605.24,360 605.49,360 605.73,360C605.97,360 606.22,360 606.46,360C606.7,360 606.95,360 607.19,360C607.44,360 607.68,360 607.93,360C608.17,360 608.42,360 608.66,360C608.9,360 609.15,360 609.39,360C609.63,360 609.88,360 610.12,360C610.36,360 610.61,360 610.85,360C611.09,360 611.34,360 611.58,360C611.82,360 612.07,360 612.31,360C612.56,360 612.8,360 613.05,360C613.29,360 613.54,360 613.78,360C614.02,360 614.27,360 614.51,360C614.75,360 615,360 615.24,360C615.48,360 615.73,360 615.97,360C616.21,360 616.46,360 616.7,360C616.94,360 617.19,360 617.43,360C617.68,360 617.92,360 618.17,360C618.41,360 618.66,360 618.9,360C619.14,360 619.39,360 619.63,360C619.87,360 620.12,360 620.36,360C620.6,360 620.85,360 621.09,360C621.33,360 621.58,360 621.82,360C622.06,360 622.31,360 622.55,360C622.8,360 623.04,360 623.29,360C623.53,360 623.78,360 624.02,360C624.26,360 624.51,360 624.75,360C624.99,360 625.24,360 625.48,360C625.72,360 625.97,360 626.21,360C626.45,360 626.7,360 626.94,360C627.18,360 627.43,360 627.67,360C627.92,360 628.16,360 628.41,360C628.65,360 628.9,360 629.14,360C629.38,360 629.63,360 629.87,360C630.11,360 630.36,360 630.6,360C630.84,360 631.09,360 631.33,360C631.57,360 631.82,360 632.06,360C632.3,360 632.55,360 632.79,360C633.03,360 633.28,360 633.52,360C633.77,360 634.01,360 634.26,360C634.5,360 634.75,360 634.99,360C635.23,360 635.48,360 635.72,360C635.96,360 636.21,360 636.45,360C636.69,360 636.94,360 637.18,360C637.42,360 637.67,360 637.91,360C638.15,360 638.4,360 638.64,360C638.89,360 639.13,360 639.38,360C639.62,360 639.87,360 640.11,360C640.35,360 640.6,360 640.84,360C641.08,360 641.33,360 641.57,360C641.81,360 642.06,360 642.3,360C642.54,360 642.79,360 643.03,360C643.27,360 643.52,360 643.76,360C644.01,360 644.25,360 644.5,360C644.74,360 644.99,360 645.23,360C645.47,360 645.72,360 645.96,360C646.2,360 646.45,360 646.69,360C646.93,360 647.18,360 647.42,360C647.66,360 647.91,360 648.15,360C648.39,360 648.64,360 648.88,360C649.13,360 649.37,360 649.62,360C649.86,360 650.11,360 650.35,360C650.59,360 650.84,360 651.08,360C651.32,360 651.57,360 651.81,360C652.05,360 652.3,360 652.54,360C652.78,360 653.03,360 653.27,360C653.51,360 653.76,360 654,360C654.24,360 654.49,360 654.73,360C654.98,360 655.22,360 655.47,360C655.71,360 655.96,360 656.2,360C656.44,360 656.69,360 656.93,360C657.17,360 657.42,360 657.66,360C657.9,360 658.15,360 658.39,360C658.63,360 658.88,360 659.12,360C659.36,360 659.61,360 659.85,360C660.1,360 660.34,360 660.59,360C660.83,360 661.08,360 661.32,360C661.56,360 661.81,360 662.05,360C662.29,360 662.54,360 662.78,360C663.02,360 663.27,360 663.51,360C663.75,360 664,360 664.24,360C664.48,360 664.73,360 664.97,360C665.22,360 665.46,360 665.71,360C665.95,360 666.2,360 666.44,360C666.68,360 666.93,360 667.17,360C667.41,360 667.66,360 667.9,360C668.14,360 668.39,360 668.63,360C668.87,360 669.12,360 669.36,360C669.6,360 669.85,360 670.09,360C670.34,360 670.58,360 670.83,360C671.07,360 671.32,360 671.56,360C671.8,360 672.05,360 672.29,360C672.53,360 672.78,360 673.02,360C673.26,360 673.51,360 673.75,360C673.99,360 674.24,360 674.48,360C674.72,360 674.97,360 675.21,360C675.46,360 675.7,360 675.95,360C676.19,360 676.44,360 676.68,360C676.92,360 677.17,360 677.41,360C677.65,360 677.9,360 678.14,360C678.38,360 678.63,360 678.87,360C679.11,360 679.36,360 679.6,360C679.84,360 680.09,360 680.33,360C680.57,360 680.82,360 681.06,360C681.31,360 681.55,360 681.8,360C682.04,360 682.29,360 682.53,360C682.77,360 683.02,360 683.26,360C683.5,360 683.75,360 683.99,360C684.23,360 684.48,360 684.72,360C684.96,360 685.21,360 685.45,360C685.69,360 685.94,360 686.18,360C686.43,360 686.67,360 686.92,360C687.16,360 687.41,360 687.65,360C687.89,360 688.14,360 688.38,360C688.62,360 688.87,360 689.11,360C689.35,360 689.6,360 689.84,360C690.08,360 690.33,360 690.57,360C690.81,360 691.06,360 691.3,360C691.55,360 691.79,360 692.04,360C692.28,360 692.53,360 692.77,360C693.01,360 693.26,360 693.5,360C693.74,360 693.99,360 694.23,360C694.47,360 694.72,360 694.96,360C695.2,360 695.45,360 695.69,360C695.93,360 696.18,360 696.42,360C696.67,360 696.91,360 697.16,360C697.4,360 697.65,360 697.89,360C698.13,360 698.38,360 698.62,360C698.86,360 699.11,360 699.35,360C699.59,360 699.84,360 700.08,360C700.32,360 700.57,360 700.81,360C701.05,360 701.3,360 701.54,360C701.78,360 702.03,360 702.27,360C702.52,360 702.76,360 703.01,360C703.25,360 703.5,360 703.74,360C703.98,360 704.23,360 704.47,360C704.71,360 704.96,360 705.2,360C705.44,360 705.69,360 705.93,360C706.17,360 706.42,360 706.66,360C706.9,360 707.15,360 707.39,360C707.64,360 707.88,360 708.13,360C708.37,360 708.62,360 708.86,360C709.1,360 709.35,360 709.59,360C709.83,360 710.08,360 710.32,360C710.56,360 710.81,360 711.05,360C711.29,360 711.54,360 711.78,360C712.02,360 712.27,360 712.51,360C712.76,360 713,360 713.25,360C713.49,360 713.74,360 713.98,360C714.22,360 714.47,360 714.71,360C714.95,360 715.2,360 715.44,360C715.68,360 715.93,360 716.17,360C716.41,360 716.66,360 716.9,360C717.14,360 717.39,360 717.63,360C717.88,360 718.12,360 718.37,360C718.61,360 718.86,360 719.1,360C719.34,360 719.59,360 719.83,360C720.07,360 720.32,360 720.56,360C720.8,360 721.05,360 721.29,360C721.53,360 721.78,360 722.02,360C722.26,360 722.51,360 722.75,360C722.99,360 723.24,360 723.48,360C723.73,360 723.97,360 724.22,360C724.46,360 724.71,360 724.95,360C725.19,360 725.44,360 725.68,360C725.92,360 726.17,360 726.41,360C726.65,360 726.9,360 727.14,360C727.38,360 727.63,360 727.87,360C728.11,360 728.36,360 728.6,360C728.85,360 729.09,360 729.34,360C729.58,360 729.83,360 730.07,360C730.31,360 730.56,360 730.8,360C731.04,360 731.29,360 731.53,360C731.77,360 732.02,360 732.26,360C732.5,360 732.75,360 732.99,360C733.23,360 733.48,360 733.72,360C733.97,360 734.21,360 734.46,360C734.7,360 734.95,360 735.19,360C735.43,360 735.68,360 735.92,360C736.16,360 736.41,360 736.65,360C736.89,360 737.14,360 737.38,360C737.62,360 737.87,360 738.11,360C738.35,360 738.6,360 738.84,360C739.09,360 739.33,360 739.58,360C739.82,360 740.07,360 740.31,360C740.55,360 740.8,360 741.04,360C741.28,360 741.53,360 741.77,360C742.01,360 742.26,360 742.5,360C742.74,360 742.99,360 743.23,360C743.47,360 743.72,360 743.96,360C744.21,360 744.45,360 744.7,360C744.94,360 745.19,360 745.43,360C745.67,360 745.92,360 746.16,360C746.4,360 746.65,360 746.89,360C747.13,360 747.38,360 747.62,360C747.86,360 748.11,360 748.35,360C748.59,360 748.84,360 749.08,360C749.32,360 749.57,360 749.81,360C750.06,360 750.3,360 750.55,360C750.79,360 751.04,360 751.28,360C751.52,360 751.77,360 752.01,360C752.25,360 752.5,360 752.74,360C752.98,360 753.23,360 753.47,360C753.71,360 753.96,360 754.2,360C754.44,360 754.69,360 754.93,360C755.18,360 755.42,360 755.67,360C755.91,360 756.16,360 756.4,360C756.64,360 756.89,360 757.13,360C757.37,360 757.62,360 757.86,360C758.1,360 758.35,360 758.59,360C758.83,360 759.08,360 759.32,360C759.56,360 759.81,360 760.05,360C760.3,360 760.54,360 760.79,360C761.03,360 761.28,360 761.52,360C761.76,360 762.01,360 762.25,360C762.49,360 762.74,360 762.98,360C763.22,360 763.47,360 763.71,360C763.95,360 764.2,360 764.44,360C764.68,360 764.93,360 765.17,360C765.42,360 765.66,360 765.91,360C766.15,360 766.4,360 766.64,360C766.88,360 767.13,360 767.37,360C767.61,360 767.86,360 768.1,360C768.34,360 768.59,360 768.83,360C769.07,360 769.32,360 769.56,360C769.8,360 770.05,360 770.29,360C770.53,360 770.78,360 771.02,360C771.27,360 771.51,360 771.76,360C772,360 772.25,360 772.49,360C772.73,360 772.98,360 773.22,360C773.46,360 773.71,360 773.95,360C774.19,360 774.44,360 774.68,360C774.92,360 775.17,360 775.41,360C775.65,360 775.9,360 776.14,360C776.39,360 776.63,360 776.88,360C777.12,360 777.37,360 777.61,360C777.85,360 778.1,360 778.34,360C778.58,360 778.83,360 779.07,360C779.31,360 779.56,360 779.8,360C780.04,360 780.29,360 780.53,360C780.77,360 781.02,360 781.26,360C781.51,360 781.75,360 782,360C782.24,360 782.49,360 782.73,360C782.97,360 783.22,360 783.46,360C783.7,360 783.95,360 784.19,360C784.43,360 784.68,360 784.92,360C785.16,360 785.41,360 785.65,360C785.89,360 786.14,360 786.38,360C786.63,360 786.87,360 787.12,360C787.36,360 787.61,360 787.85,360C788.09,360 788.34,360 788.58,360C788.82,360 789.07,360 789.31,360C789.55,360 789.8,360 790.04,360C790.28,360 790.53,360 790.77,360C791.01,360 791.26,360 791.5,360C791.75,360 791.99,360 792.24,360C792.48,360 792.73,360 792.97,360C793.21,360 793.46,360 793.7,360C793.94,360 794.19,360 794.43,360C794.67,360 794.92,360 795.16,360C795.4,360 795.65,360 795.89,360C796.13,360 796.38,360 796.62,360C796.86,360 797.11,360 797.35,360C797.6,360 797.84,360 798.09,360C798.33,360 798.58,360 798.82,360C799.06,360 799.31,360 799.55,360C799.79,360 800.04,360 800.28,360C800.52,360 800.77,360 801.01,360C801.25,360 801.5,360 801.74,360C801.98,360 802.23,360 802.47,360C802.72,360 802.96,360 803.21,360C803.45,360 803.7,360 803.94,360C804.18,360 804.43,360 804.67,360C804.91,360 805.16,360 805.4,360C805.64,360 805.89,360 806.13,360C806.37,360 806.62,360 806.86,360C807.1,360 807.35,360 807.59,360C807.84,360 808.08,360 808.33,360C808.57,360 808.82,360 809.06,360C809.3,360 809.55,360 809.79,360C810.03,360 810.28,360 810.52,360C810.76,360 811.01,360 811.25,360C811.49,360 811.74,360 811.98,360C812.22,360 812.47,360 812.71,360C812.96,360 813.2,360 813.45,360C813.69,360 813.94,360 814.18,360C814.42,360 814.67,360 814.91,360C815.15,360 815.4,360 815.64,360C815.88,360 816.13,360 816.37,360C816.61,360 816.86,360 817.1,360C817.34,360 817.59,360 817.83,360C818.07,360 818.32,360 818.56,360C818.81,360 819.05,360 819.3,360C819.54,360 819.79,360 820.03,360C820.27,360 820.52,360 820.76,360C821,360 821.25,360 821.49,360C821.73,360 821.98,360 822.22,360C822.46,360 822.71,360 822.95,360C823.19,360 823.44,360 823.68,360C823.93,360 824.17,360 824.42,360C824.66,360 824.91,360 825.15,360C825.39,360 825.64,360 825.88,360C826.12,360 826.37,360 826.61,360C826.85,360 827.1,360 827.34,360C827.58,360 827.83,360 828.07,360C828.31,360 828.56,360 828.8,360C829.05,360 829.29,360 829.54,360C829.78,360 830.03,360 830.27,360C830.51,360 830.76,360 831,360C831.24,360 831.49,360 831.73,360C831.97,360 832.22,360 832.46,360C832.7,360 832.95,360 833.19,360C833.43,360 833.68,360 833.92,360C834.17,360 834.41,360 834.66,360C834.9,360 835.15,360 835.39,360C835.63,360 835.88,360 836.12,360C836.36,360 836.61,360 836.85,360C837.09,360 837.34,360 837.58,360C837.82,360 838.07,360 838.31,360C838.55,360 838.8,360 839.04,360C839.29,360 839.53,360 839.78,360C840.02,360 840.27,360 840.51,360C840.75,360 841,360 841.24,360C841.48,360 841.73,360 841.97,360C842.21,360 842.46,360 842.7,360C842.94,360 843.19,360 843.43,360C843.67,360 843.92,360 844.16,360C844.4,360 844.65,360 844.89,360C845.14,360 845.38,360 845.63,360C845.87,360 846.12,360 846.36,360C846.6,360 846.85,360 847.09,360C847.33,360 847.58,360 847.82,360C848.06,360 848.31,360 848.55,360C848.79,360 849.04,360 849.28,360C849.52,360 849.77,360 850.01,360C850.26,360 850.5,360 850.75,360C850.99,360 851.24,360 851.48,360C851.72,360 851.97,360 852.21,360C852.45,360 852.7,360 852.94,360C853.18,360 853.43,360 853.67,360C853.91,360 854.16,360 854.4,360C854.64,360 854.89,360 855.13,360C855.38,360 855.62,360 855.87,360C856.11,360 856.36,360 856.6,360C856.84,360 857.09,360 857.33,360C857.57,360 857.82,360 858.06,360C858.3,360 858.55,360 858.79,360C859.03,360 859.28,360 859.52,360C859.76,360 860.01,360 860.25,360C860.5,360 860.74,360 860.99,360C861.23,360 861.48,360 861.72,360C861.96,360 862.21,360 862.45,360C862.69,360 862.94,360 863.18,360C863.42,360 863.67,360 863.91,360C864.15,360 864.4,360 864.64,360C864.88,360 865.13,360 865.37,360C865.61,360 865.86,360 866.1,360C866.35,360 866.59,360 866.84,360C867.08,360 867.33,360 867.57,360C867.81,360 868.06,360 868.3,360C868.54,360 868.79,360 869.03,360C869.27,360 869.52,360 869.76,360C870,360 870.25,360 870.49,360C870.73,360 870.98,360 871.22,360C871.47,360 871.71,360 871.96,360C872.2,360 872.45,360 872.69,360C872.93,360 873.18,360 873.42,360C873.66,360 873.91,360 874.15,360C874.39,360 874.64,360 874.88,360C875.12,360 875.37,360 875.61,360C875.85,360 876.1,360 876.34,360C876.59,360 876.83,360 877.08,360C877.32,360 877.57,360 877.81,360C878.05,360 878.3,360 878.54,360C878.78,360 879.03,360 879.27,360C879.51,360 879.76,360 880,360C880.24,360 880.49,360 880.73,360C880.97,360 881.22,360 881.46,360C881.71,360 881.95,360 882.2,360C882.44,360 882.69,360 882.93,360C883.17,360 883.42,360 883.66,360C883.9,360 884.15,360 884.39,360C884.63,360 884.88,360 885.12,360C885.36,360 885.61,360 885.85,360C886.09,360 886.34,360 886.58,360C886.82,360 887.07,360 887.31,360C887.56,360 887.8,360 888.05,360C888.29,360 888.54,360 888.78,360C889.02,360 889.27,360 889.51,360C889.75,360 890,360 890.24,360C890.48,360 890.73,360 890.97,360C891.21,360 891.46,360 891.7,360C891.94,360 892.19,360 892.43,360C892.68,360 892.92,360 893.17,360C893.41,360 893.66,360 893.9,360C894.14,360 894.39,360 894.63,360C894.87,360 895.12,360 895.36,360C895.6,360 895.85,360 896.09,360C896.33,360 896.58,360 896.82,360C897.06,360 897.31,360 897.55,360Q897.8,360 898.29,360" style="vector-effect: non-scaling-stroke; fill: none; stroke: rgb(99, 110, 250); stroke-opacity: 1; stroke-width: 2px; opacity: 1;"/></g><g class="points"/><g class="text"/></g></g></g><g class="overplot"/><path class="xlines-above crisp" d="M65,420.5H591M65,59.5H591" style="fill: none; stroke-width: 1px; stroke: rgb(0, 0, 0); stroke-opacity: 1;"/><path class="ylines-above crisp" d="M65.5,60V420M590.5,60V420" style="fill: none; stroke-width: 1px; stroke: rgb(0, 0, 0); stroke-opacity: 1;"/><g class="overlines-above"/><g class="xaxislayer-above"><path class="xtick ticks crisp" d="M0,420v-5M0,60v5" transform="translate(140.86,0)" style="stroke: rgb(68, 68, 68); stroke-opacity: 1; stroke-width: 1px;"/><path class="xtick ticks crisp" d="M0,420v-5M0,60v5" transform="translate(215.71,0)" style="stroke: rgb(68, 68, 68); stroke-opacity: 1; stroke-width: 1px;"/><path class="xtick ticks crisp" d="M0,420v-5M0,60v5" transform="translate(290.57,0)" style="stroke: rgb(68, 68, 68); stroke-opacity: 1; stroke-width: 1px;"/><path class="xtick ticks crisp" d="M0,420v-5M0,60v5" transform="translate(365.43,0)" style="stroke: rgb(68, 68, 68); stroke-opacity: 1; stroke-width: 1px;"/><path class="xtick ticks crisp" d="M0,420v-5M0,60v5" transform="translate(440.29,0)" style="stroke: rgb(68, 68, 68); stroke-opacity: 1; stroke-width: 1px;"/><path class="xtick ticks crisp" d="M0,420v-5M0,60v5" transform="translate(515.14,0)" style="stroke: rgb(68, 68, 68); stroke-opacity: 1; stroke-width: 1px;"/><g class="xtick"><text text-anchor="middle" x="0" y="437.8" transform="translate(66,0)" style="font-family: 'Open Sans', verdana, arial, sans-serif; font-size: 14px; fill: rgb(0, 0, 0); fill-opacity: 1; white-space: pre;">2</text></g><g class="xtick"><text text-anchor="middle" x="0" y="437.8" transform="translate(140.86,0)" style="font-family: 'Open Sans', verdana, arial, sans-serif; font-size: 14px; fill: rgb(0, 0, 0); fill-opacity: 1; white-space: pre;">1</text></g><g class="xtick"><text text-anchor="middle" x="0" y="437.8" transform="translate(215.71,0)" style="font-family: 'Open Sans', verdana, arial, sans-serif; font-size: 14px; fill: rgb(0, 0, 0); fill-opacity: 1; white-space: pre;">0</text></g><g class="xtick"><text text-anchor="middle" x="0" y="437.8" transform="translate(290.57,0)" style="font-family: 'Open Sans', verdana, arial, sans-serif; font-size: 14px; fill: rgb(0, 0, 0); fill-opacity: 1; white-space: pre;">1</text></g><g class="xtick"><text text-anchor="middle" x="0" y="437.8" transform="translate(365.43,0)" style="font-family: 'Open Sans', verdana, arial, sans-serif; font-size: 14px; fill: rgb(0, 0, 0); fill-opacity: 1; white-space: pre;">2</text></g><g class="xtick"><text text-anchor="middle" x="0" y="437.8" transform="translate(440.29,0)" style="font-family: 'Open Sans', verdana, arial, sans-serif; font-size: 14px; fill: rgb(0, 0, 0); fill-opacity: 1; white-space: pre;">3</text></g><g class="xtick"><text text-anchor="middle" x="0" y="437.8" transform="translate(515.14,0)" style="font-family: 'Open Sans', verdana, arial, sans-serif; font-size: 14px; fill: rgb(0, 0, 0); fill-opacity: 1; white-space: pre;">4</text></g><g class="xtick"><text text-anchor="middle" x="0" y="437.8" transform="translate(590,0)" style="font-family: 'Open Sans', verdana, arial, sans-serif; font-size: 14px; fill: rgb(0, 0, 0); fill-opacity: 1; white-space: pre;">5</text></g></g><g class="yaxislayer-above"><path class="ytick ticks crisp" d="M66,0h5M590,0h-5" transform="translate(0,351.43)" style="stroke: rgb(68, 68, 68); stroke-opacity: 1; stroke-width: 1px;"/><path class="ytick ticks crisp" d="M66,0h5M590,0h-5" transform="translate(0,282.86)" style="stroke: rgb(68, 68, 68); stroke-opacity: 1; stroke-width: 1px;"/><path class="ytick ticks crisp" d="M66,0h5M590,0h-5" transform="translate(0,214.29)" style="stroke: rgb(68, 68, 68); stroke-opacity: 1; stroke-width: 1px;"/><path class="ytick ticks crisp" d="M66,0h5M590,0h-5" transform="translate(0,145.70999999999998)" style="stroke: rgb(68, 68, 68); stroke-opacity: 1; stroke-width: 1px;"/><path class="ytick ticks crisp" d="M66,0h5M590,0h-5" transform="translate(0,77.14)" style="stroke: rgb(68, 68, 68); stroke-opacity: 1; stroke-width: 1px;"/><g class="ytick"><text text-anchor="end" x="62.2" y="4.8999999999999995" transform="translate(0,420)" style="font-family: 'Open Sans', verdana, arial, sans-serif; font-size: 14px; fill: rgb(0, 0, 0); fill-opacity: 1; white-space: pre;">0</text></g><g class="ytick"><text text-anchor="end" x="62.2" y="4.8999999999999995" transform="translate(0,351.43)" style="font-family: 'Open Sans', verdana, arial, sans-serif; font-size: 14px; fill: rgb(0, 0, 0); fill-opacity: 1; white-space: pre;">0.2</text></g><g class="ytick"><text text-anchor="end" x="62.2" y="4.8999999999999995" transform="translate(0,282.86)" style="font-family: 'Open Sans', verdana, arial, sans-serif; font-size: 14px; fill: rgb(0, 0, 0); fill-opacity: 1; white-space: pre;">0.4</text></g><g class="ytick"><text text-anchor="end" x="62.2" y="4.8999999999999995" transform="translate(0,214.29)" style="font-family: 'Open Sans', verdana, arial, sans-serif; font-size: 14px; fill: rgb(0, 0, 0); fill-opacity: 1; white-space: pre;">0.6</text></g><g class="ytick"><text text-anchor="end" x="62.2" y="4.8999999999999995" transform="translate(0,145.70999999999998)" style="font-family: 'Open Sans', verdana, arial, sans-serif; font-size: 14px; fill: rgb(0, 0, 0); fill-opacity: 1; white-space: pre;">0.8</text></g><g class="ytick"><text text-anchor="end" x="62.2" y="4.8999999999999995" transform="translate(0,77.14)" style="font-family: 'Open Sans', verdana, arial, sans-serif; font-size: 14px; fill: rgb(0, 0, 0); fill-opacity: 1; white-space: pre;">1</text></g></g><g class="overaxes-above"/></g></g><g class="polarlayer"/><g class="ternarylayer"/><g class="geolayer"/><g class="funnelarealayer"/><g class="pielayer"/><g class="treemaplayer"/><g class="sunburstlayer"/><g class="glimages"/><defs id="topdefs-0c0705"><g class="clips"/></defs><g class="layer-above"><g class="imagelayer"/><g class="shapelayer"/></g><g class="infolayer"><g class="g-gtitle"/><g class="g-xtitle"><text class="xtitle" x="328" y="467.7125" text-anchor="middle" style="font-family: 'Open Sans', verdana, arial, sans-serif; font-size: 17px; fill: rgb(0, 0, 0); opacity: 1; font-weight: normal; white-space: pre;">Transzverzlis koordinta (mm)</text></g><g class="g-ytitle" transform="translate(4.603515625,0)"><text class="ytitle" transform="rotate(-90,12.396875000000001,240)" x="12.396875000000001" y="240" text-anchor="middle" style="font-family: 'Open Sans', verdana, arial, sans-serif; font-size: 17px; fill: rgb(0, 0, 0); opacity: 1; font-weight: normal; white-space: pre;">Energiasrsg (rel. egys.)</text></g></g></svg>