<?xml version="1.0" encoding="UTF-8" standalone="no"?>
<svg
   class="main-svg"
   width="471.52792"
   height="416.62305"
   viewBox="0 0 471.52792 416.62305"
   version="1.1"
   id="svg124"
   sodipodi:docname="effic1D.svg"
   inkscape:version="1.3.1 (91b66b0783, 2023-11-16, custom)"
   xmlns:inkscape="http://www.inkscape.org/namespaces/inkscape"
   xmlns:sodipodi="http://sodipodi.sourceforge.net/DTD/sodipodi-0.dtd"
   xmlns="http://www.w3.org/2000/svg"
   xmlns:svg="http://www.w3.org/2000/svg">
  <sodipodi:namedview
     id="namedview124"
     pagecolor="#ffffff"
     bordercolor="#000000"
     borderopacity="0.25"
     inkscape:showpageshadow="2"
     inkscape:pageopacity="0.0"
     inkscape:pagecheckerboard="0"
     inkscape:deskcolor="#d1d1d1"
     inkscape:zoom="1.5556349"
     inkscape:cx="162.63456"
     inkscape:cy="183.20494"
     inkscape:window-width="1920"
     inkscape:window-height="1056"
     inkscape:window-x="0"
     inkscape:window-y="0"
     inkscape:window-maximized="1"
     inkscape:current-layer="svg124" />
  <defs
     id="defs-d2bb0d">
    <g
       class="clips"
       id="g5">
      <clipPath
         id="clipd2bb0dxyplot"
         class="plotclip">
        <rect
           width="405"
           height="360"
           id="rect2"
           x="0"
           y="0" />
      </clipPath>
      <clipPath
         class="axesclip"
         id="clipd2bb0dx">
        <rect
           x="66"
           y="0"
           width="405"
           height="480"
           id="rect3" />
      </clipPath>
      <clipPath
         class="axesclip"
         id="clipd2bb0dy">
        <rect
           x="0"
           y="60"
           width="640"
           height="360"
           id="rect4" />
      </clipPath>
      <clipPath
         class="axesclip"
         id="clipd2bb0dxy">
        <rect
           x="66"
           y="60"
           width="405"
           height="360"
           id="rect5" />
      </clipPath>
    </g>
    <g
       class="gradients"
       id="g6" />
  </defs>
  <g
     class="bglayer"
     id="g7"
     transform="translate(-3.0882812,-54.509375)" />
  <g
     class="layer-below"
     id="g10"
     transform="translate(-3.0882812,-54.509375)">
    <g
       class="imagelayer"
       id="g8" />
    <g
       class="shapelayer"
       id="g9" />
  </g>
  <g
     class="cartesianlayer"
     id="g75"
     transform="translate(-3.0882812,-54.509375)">
    <g
       class="subplot xy"
       id="g74">
      <g
         class="layer-subplot"
         id="g13">
        <g
           class="shapelayer"
           id="g11" />
        <g
           class="imagelayer"
           id="g12" />
      </g>
      <g
         class="gridlayer"
         id="g16">
        <g
           class="x"
           id="g14" />
        <g
           class="y"
           id="g15" />
      </g>
      <g
         class="zerolinelayer"
         id="g17" />
      <path
         class="xlines-below"
         id="path17"
         d="" />
      <path
         class="ylines-below"
         id="path18"
         d="" />
      <g
         class="overlines-below"
         id="g18" />
      <g
         class="xaxislayer-below"
         id="g19" />
      <g
         class="yaxislayer-below"
         id="g20" />
      <g
         class="overaxes-below"
         id="g21" />
      <g
         class="plot"
         transform="translate(66,60)"
         clip-path="url(#clipd2bb0dxyplot)"
         id="g53">
        <g
           class="scatterlayer mlayer"
           id="g52">
          <g
             class="trace scatter trace7a78ef"
             style="opacity:1;stroke-miterlimit:2"
             id="g27">
            <g
               class="fills"
               id="g22" />
            <g
               class="errorbars"
               id="g23" />
            <g
               class="lines"
               id="g24">
              <path
                 class="js-line"
                 d="m 0,360 44.25,-0.75 0.05,-0.01 18.22,-0.75 0.05,-0.01 40.86,-2.68 0.05,-0.01 26.07,-2.48 0.05,-0.01 61.46,-8.6 0.05,-0.01 14.43,-2.68 0.05,-0.01 33.31,-7.42 0.05,-0.02 12.05,-3.17 0.05,-0.02 20.6,-6.26 0.05,-0.02 16.15,-5.83 0.05,-0.02 15.6,-6.64 0.05,-0.03 17.36,-8.92 0.05,-0.03 18.33,-11.83 0.05,-0.04 13.82,-11.06 0.05,-0.04 17.87,-17.5 0.05,-0.06 11.34,-13.18 0.05,-0.06 11.04,-14.41 0.05,-0.07 20.2,-29.81 0.05,-0.08 23.08,-34.42 0.06,-0.07 12.65,-14.45 0.05,-0.05 12.25,-8.05 0.05,-0.02 10.43,-1.65 0.05,0.01 11.19,3 0.05,0.03 15.95,9.73 0.05,0.04 6.53,4.67"
                 style="opacity:1;vector-effect:non-scaling-stroke;fill:none;stroke:#636efa;stroke-width:2px;stroke-opacity:1"
                 id="path23" />
            </g>
            <g
               class="points"
               id="g25" />
            <g
               class="text"
               id="g26" />
          </g>
          <g
             class="trace scatter tracea70f9b"
             style="opacity:1;stroke-miterlimit:2"
             id="g33">
            <g
               class="fills"
               id="g28" />
            <g
               class="errorbars"
               id="g29" />
            <g
               class="lines"
               id="g30">
              <path
                 class="js-line"
                 d="m 0,360 32.1,-0.75 0.05,-0.01 33.26,-2.39 0.05,-0.01 16.25,-1.83 0.05,-0.01 32.86,-5.1 0.05,-0.01 31.13,-6.95 0.05,-0.02 25.16,-7.46 0.05,-0.02 17.72,-6.69 0.05,-0.02 13.06,-6.02 0.05,-0.03 11.9,-6.78 0.05,-0.04 9.01,-6.28 0.05,-0.04 10.94,-9.61 0.05,-0.05 8.15,-9.17 0.05,-0.06 7.44,-10.09 0.05,-0.07 13.16,-22.1 0.05,-0.09 4.31,-8.48 0.05,-0.1 21.11,-42.6 0.05,-0.09 7.24,-11.5 0.05,-0.07 5.01,-5.75 0.05,-0.04 5.06,-3.71 0.06,-0.03 4.65,-1.36 0.05,-0.01 5.12,0.41 0.05,0.02 5.87,2.32 0.05,0.03 18.93,9.85 0.05,0.01 5.07,0.5 h 0.05 l 5.52,-1.1 0.05,-0.02 5.67,-3.45 0.05,-0.04 5.31,-4.82 0.05,-0.05 9.47,-10.53 0.05,-0.06 9.82,-9.39 0.05,-0.04 11.85,-7.96 0.05,-0.03 11.39,-7.69 0.05,-0.05 6.94,-5.03 0.05,-0.01 3.74,-3.56 0.05,-0.04 2.94,-1.68 0.05,-0.08 1.06,-0.15 0.21,0.23 0.05,0.06 0.71,0.2 0.4,-0.48 0.05,-0.06 1.77,-0.54 0.05,0.02 1.68,-0.67 0.05,-0.04 7.94,0.79 0.05,-0.02 5.17,-0.36 0.05,0.01 15.09,-0.63 0.05,-0.01 33.26,-5.11 0.05,-0.02 18.78,-5.22 0.05,0.01 0.86,0.09"
                 style="opacity:1;vector-effect:non-scaling-stroke;fill:none;stroke:#ef553b;stroke-width:2px;stroke-opacity:1"
                 id="path29" />
            </g>
            <g
               class="points"
               id="g31" />
            <g
               class="text"
               id="g32" />
          </g>
          <g
             class="trace scatter trace947b25"
             style="opacity:1;stroke-miterlimit:2"
             id="g39">
            <g
               class="fills"
               id="g34" />
            <g
               class="errorbars"
               id="g35" />
            <g
               class="lines"
               id="g36">
              <path
                 class="js-line"
                 d="m 0,360 27.08,-0.75 0.06,-0.01 23.03,-1.89 0.05,-0.01 13.87,-1.67 0.05,-0.01 22.07,-3.69 0.06,-0.01 24.45,-5.65 0.05,-0.02 8.86,-2.53 0.05,-0.02 13.36,-4.33 0.05,-0.02 13.62,-5.33 0.05,-0.02 13.52,-6.2 0.05,-0.03 13.06,-7.81 0.05,-0.03 8.81,-6.74 0.05,-0.05 7.75,-7.65 0.05,-0.06 8.5,-11.26 0.05,-0.09 8.15,-14.43 0.05,-0.11 9.72,-22.12 0.05,-0.13 19.65,-46.23 0.05,-0.09 4.66,-6.85 0.05,-0.06 3.94,-3.59 0.06,-0.03 3.94,-1.73 0.05,-0.01 3.75,0.04 0.05,0.01 6.43,2.04 0.05,0.03 8.1,2.52 0.05,0.01 3.95,0.03 0.05,-0.01 4.51,-2.28 0.05,-0.03 3.79,-3.41 0.05,-0.07 3.3,-5.05 0.05,-0.08 7.29,-14.53 0.05,-0.11 7.29,-15.56 0.05,-0.1 4.91,-8.18 0.05,-0.06 5.26,-5.62 0.05,-0.05 4.66,-3.12 0.05,-0.02 8.15,-2.47 h 0.05 l 7.5,0.28 0.05,0.01 10.68,1.46 0.05,0.01 7.54,1.37 0.05,-0.01 5.17,-1.71 0.05,-0.03 22.98,-14.46 0.05,-0.05 4.15,-5.2 0.05,-0.08 12.05,-16.14 0.05,-0.03 4.21,-1.76 0.05,-0.01 6.17,-1.67 0.05,-0.01 4.26,-2.22 0.05,-0.04 5.41,-5.04 0.05,-0.05 10.18,-11.67 0.05,-0.08 3.9,-4.31 0.05,-0.04 14.27,-9.51 0.06,-0.01 10.32,-3.21 0.05,0.02 6.03,-0.88 h 0.05 l 5.92,0.47 0.05,0.02 10.94,6.38 0.05,0.05 8.91,6.09 0.05,0.02 12.05,3.14 h 0.05 l 11.54,2.9"
                 style="opacity:1;vector-effect:non-scaling-stroke;fill:none;stroke:#00cc96;stroke-width:2px;stroke-opacity:1"
                 id="path35" />
            </g>
            <g
               class="points"
               id="g37" />
            <g
               class="text"
               id="g38" />
          </g>
          <g
             class="trace scatter trace45b83e"
             style="opacity:1;stroke-miterlimit:2"
             id="g45">
            <g
               class="fills"
               id="g40" />
            <g
               class="errorbars"
               id="g41" />
            <g
               class="lines"
               id="g42">
              <path
                 class="js-line"
                 d="m 0,360 24,-0.75 0.05,-0.01 19.03,-1.69 0.05,-0.01 11.7,-1.53 0.05,-0.01 17.16,-3.04 0.05,-0.01 19.69,-4.68 0.05,-0.02 6.79,-2.03 0.05,-0.02 13.06,-4.25 0.05,-0.02 11.69,-4.68 0.06,-0.03 19.13,-9.53 0.05,-0.03 15.54,-10.81 0.05,-0.05 7.65,-7.68 0.05,-0.07 5.82,-8.15 0.05,-0.07 4.76,-8.42 0.05,-0.11 8.2,-18.93 0.05,-0.14 20.71,-56.93 0.05,-0.1 4.35,-7.03 0.05,-0.06 4.56,-3.93 0.05,-0.03 3.14,-0.83 h 0.05 l 8.56,1.31 0.05,0.01 4.2,0.35 0.05,-0.01 4.05,-1.84 0.05,-0.03 3.29,-2.58 0.05,-0.06 2.94,-4.68 0.05,-0.1 5.97,-13.6 0.05,-0.14 9.92,-26.42 0.06,-0.11 3.79,-6.55 0.05,-0.06 3.75,-3.13 0.05,-0.04 6.53,-3.6 0.05,-0.01 4.1,0.46 0.05,0.01 9.01,1.85 0.05,-0.01 4.86,-1.67 0.05,-0.02 5.07,-2.7 0.05,-0.05 4.4,-4.8 0.05,-0.06 4.96,-3.9 0.05,-0.02 4.31,-1.58 0.05,-0.01 4.1,-1.57 0.05,-0.03 4.15,-3.34 0.05,-0.05 8.51,-9.91 0.05,-0.03 3.09,-0.82 0.05,0.01 2.63,0.91 0.05,0.03 6.12,2.89 0.06,0.01 2.73,-0.55 0.05,-0.03 2.23,-2.01 0.05,-0.06 3.85,-6.23 0.05,-0.09 10.02,-18.18 0.05,-0.06 3.29,-2.42 0.05,-0.02 3.19,-0.47 h 0.05 l 3.65,0.99 0.05,0.01 4.55,0.74 0.05,-0.01 3.9,-1.23 0.05,-0.02 10.28,-5.41 0.05,-0.01 3.75,0.48 0.05,0.02 9.67,2.99 0.05,-0.05 1.31,-0.28 0.05,-0.01 1.62,-1.06 0.05,-0.1 1.17,-0.75 0.05,0.02 0.76,0.21 0.2,-0.27 0.05,-0.06 2.18,-0.86 0.05,-0.03 1.47,-2.31 0.05,-0.08 1.42,-0.93 0.05,0.02 0.91,-0.42 0.05,-0.06 1.52,-1.36 0.05,0.02 3.84,-3.29 0.06,-0.01 2.12,-0.38 0.05,-0.14 1.37,-1.3 0.1,0.1 0.05,0.08 2.28,1.61 0.1,-0.1 0.05,-0.09 1.77,-2.36 0.16,0.44 0.05,0.21 0.76,1.22 0.45,-1.01 0.05,-0.14 0.56,-0.73 0.71,0.61 0.05,-0.02 0.86,-1.46 0.5,1.07 0.06,0.01 3.49,-3.35 0.05,-0.01 3.95,-5.33 0.05,0.02 3.54,-5.1 0.05,-0.1 8.91,-11.35 0.05,-0.06 8.76,-11.54 0.05,-0.08 9.92,-11.93 0.06,-0.04 24.24,-23.65 0.06,-0.03 5.87,-1.28 h 0.05 l 9.06,1.94"
                 style="opacity:1;vector-effect:non-scaling-stroke;fill:none;stroke:#ab63fa;stroke-width:2px;stroke-opacity:1"
                 id="path41" />
            </g>
            <g
               class="points"
               id="g43" />
            <g
               class="text"
               id="g44" />
          </g>
          <g
             class="trace scatter trace07d794"
             style="opacity:1;stroke-miterlimit:2"
             id="g51">
            <g
               class="fills"
               id="g46" />
            <g
               class="errorbars"
               id="g47" />
            <g
               class="lines"
               id="g48">
              <path
                 class="js-line"
                 d="m 0,360 21.82,-0.75 0.05,-0.01 21.11,-2.14 0.05,-0.01 8.56,-1.32 0.05,-0.01 13.31,-2.53 0.05,-0.01 29.47,-8.34 0.05,-0.02 24.85,-10.43 0.05,-0.03 7.24,-3.98 0.05,-0.03 5.88,-3.76 0.05,-0.04 9.72,-7.21 0.05,-0.05 5.67,-5.46 0.05,-0.07 7.85,-10.5 0.05,-0.09 8.15,-16.99 0.05,-0.14 7.74,-23.04 0.05,-0.17 13.27,-42.49 0.05,-0.13 3.8,-8.15 0.05,-0.08 3.49,-4.19 0.05,-0.04 3.34,-1.92 0.05,-0.02 7.19,-1.17 0.05,0.02 4.1,0.63 0.05,-0.02 2.69,-1.86 0.05,-0.05 4.45,-4.84 0.05,-0.07 2.94,-5.75 0.05,-0.13 4.4,-13.51 0.05,-0.17 9.17,-27.59 0.05,-0.08 3.54,-4.27 0.05,-0.05 6.23,-5.56 0.05,-0.02 2.53,-0.06 0.05,0.01 7.29,1.55 0.05,-0.01 2.79,-1.7 0.05,-0.05 3.49,-4.28 0.05,-0.08 10.99,-15.5 0.05,-0.04 2.27,-0.5 h 0.06 l 8.35,1.28 0.05,-0.01 10.78,-3.27 0.05,0.01 9.47,0.99 0.05,-0.02 2.38,-1.73 0.05,-0.05 3.29,-5.1 0.05,-0.09 9.32,-16.3 0.05,-0.05 2.83,-1.49 h 0.05 l 2.53,0.56 0.05,0.02 8.1,3.07 0.06,-0.01 2.58,-1.08 0.05,-0.04 2.98,-3.09 0.06,-0.07 5.16,-5.95 0.05,-0.03 4.45,-1.81 0.06,-0.02 6.07,-2.4 0.05,-0.01 4.05,-2.13 0.05,-0.04 11.75,-9.17 0.05,-0.03 9.82,-6.7 0.05,-0.05 7.19,-7.18 0.05,-0.07 5.06,-6.25 0.05,-0.05 5.98,-6.65 h 0.05 l 1.16,-1.05 0.05,-0.09 2.33,-2.18 0.05,-0.03 1.97,-3.51 0.06,-0.15 1.56,-2.28 0.05,-0.07 1.88,-2.5 0.05,-0.13 2.02,-3.34 0.05,0.04 0.06,0.06 0.5,0.38 0.31,-0.49 0.05,-0.09 0.6,-0.1 0.21,0.21 0.05,0.06 1.16,0.76 0.2,-0.28 0.05,-0.07 1.98,-0.98 0.15,0.25 0.05,0.1 1.01,0.01 0.05,0.04 1.88,0.34 0.05,-0.09 1.36,-0.81 0.06,-0.05 1.31,-0.07 h 0.05 l 3.29,-1.35 0.05,-0.02 1.52,0.29 0.05,0.02 1.12,1.19 0.35,-0.72 0.05,-0.06 5.72,-3.29 0.05,-0.09 1.02,0.28 0.1,0.13 0.05,0.06 3.84,-2.38 0.11,0.16 0.05,0.07 1.72,0.07 0.2,-0.37 0.05,-0.03 3.29,0.21 0.05,-0.05 1.57,0.31 0.05,-0.03 3.65,0.67 0.05,0.08 3.49,2.6 0.05,0.03 2.43,2.51 0.05,0.1 3.44,4.49 0.06,0.09 9.36,13.14 0.05,0.06 10.48,12.94 0.05,0.08 8.1,10.1 0.05,0.08 7.7,8.69 h 0.05 l 3.79,1.77 0.06,0.12 3.24,1 0.05,0.02 8.86,-1.48 0.05,-0.03 0.35,-0.46"
                 style="opacity:1;vector-effect:non-scaling-stroke;fill:none;stroke:#ffa15a;stroke-width:2px;stroke-opacity:1"
                 id="path47" />
            </g>
            <g
               class="points"
               id="g49" />
            <g
               class="text"
               id="g50" />
          </g>
        </g>
      </g>
      <g
         class="overplot"
         id="g54" />
      <path
         class="xlines-above crisp"
         d="M 65,420.5 H 472 M 65,59.5 h 407"
         style="fill:none;stroke:#000000;stroke-width:1px;stroke-opacity:1"
         id="path54" />
      <path
         class="ylines-above crisp"
         d="M 65.5,60 V 420 M 471.5,60 V 420"
         style="fill:none;stroke:#000000;stroke-width:1px;stroke-opacity:1"
         id="path55" />
      <g
         class="overlines-above"
         id="g55" />
      <g
         class="xaxislayer-above"
         id="g63">
        <path
           class="xtick ticks crisp"
           d="m 0,420 v -5 M 0,60 v 5"
           transform="translate(167.25)"
           style="stroke:#444444;stroke-width:1px;stroke-opacity:1"
           id="path56" />
        <path
           class="xtick ticks crisp"
           d="m 0,420 v -5 M 0,60 v 5"
           transform="translate(268.5)"
           style="stroke:#444444;stroke-width:1px;stroke-opacity:1"
           id="path57" />
        <path
           class="xtick ticks crisp"
           d="m 0,420 v -5 M 0,60 v 5"
           transform="translate(369.75)"
           style="stroke:#444444;stroke-width:1px;stroke-opacity:1"
           id="path58" />
        <g
           class="xtick"
           id="g58">
          <text
             text-anchor="middle"
             x="0"
             y="437.79999"
             transform="translate(66)"
             style="font-size:14px;font-family:'Open Sans', verdana, arial, sans-serif;white-space:pre;fill:#000000;fill-opacity:1"
             id="text58">0</text>
        </g>
        <g
           class="xtick"
           id="g59">
          <text
             text-anchor="middle"
             x="0"
             y="437.79999"
             transform="translate(167.25)"
             style="font-size:14px;font-family:'Open Sans', verdana, arial, sans-serif;white-space:pre;fill:#000000;fill-opacity:1"
             id="text59">2</text>
        </g>
        <g
           class="xtick"
           id="g60">
          <text
             text-anchor="middle"
             x="0"
             y="437.79999"
             transform="translate(268.5)"
             style="font-size:14px;font-family:'Open Sans', verdana, arial, sans-serif;white-space:pre;fill:#000000;fill-opacity:1"
             id="text60">4</text>
        </g>
        <g
           class="xtick"
           id="g61">
          <text
             text-anchor="middle"
             x="0"
             y="437.79999"
             transform="translate(369.75)"
             style="font-size:14px;font-family:'Open Sans', verdana, arial, sans-serif;white-space:pre;fill:#000000;fill-opacity:1"
             id="text61">6</text>
        </g>
        <g
           class="xtick"
           id="g62">
          <text
             text-anchor="middle"
             x="0"
             y="437.79999"
             transform="translate(471)"
             style="font-size:14px;font-family:'Open Sans', verdana, arial, sans-serif;white-space:pre;fill:#000000;fill-opacity:1"
             id="text62">8</text>
        </g>
      </g>
      <g
         class="yaxislayer-above"
         id="g72">
        <path
           class="ytick ticks crisp"
           d="m 66,0 h 5 m 400,0 h -5"
           transform="translate(0,348)"
           style="stroke:#444444;stroke-width:1px;stroke-opacity:1"
           id="path63" />
        <path
           class="ytick ticks crisp"
           d="m 66,0 h 5 m 400,0 h -5"
           transform="translate(0,276)"
           style="stroke:#444444;stroke-width:1px;stroke-opacity:1"
           id="path64" />
        <path
           class="ytick ticks crisp"
           d="m 66,0 h 5 m 400,0 h -5"
           transform="translate(0,204)"
           style="stroke:#444444;stroke-width:1px;stroke-opacity:1"
           id="path65" />
        <path
           class="ytick ticks crisp"
           d="m 66,0 h 5 m 400,0 h -5"
           transform="translate(0,132)"
           style="stroke:#444444;stroke-width:1px;stroke-opacity:1"
           id="path66" />
        <g
           class="ytick"
           id="g66">
          <text
             text-anchor="end"
             x="62.200001"
             y="4.9000001"
             transform="translate(0,420)"
             style="font-size:14px;font-family:'Open Sans', verdana, arial, sans-serif;white-space:pre;fill:#000000;fill-opacity:1"
             id="text66">0</text>
        </g>
        <g
           class="ytick"
           id="g67">
          <text
             text-anchor="end"
             x="62.200001"
             y="4.9000001"
             transform="translate(0,348)"
             style="font-size:14px;font-family:'Open Sans', verdana, arial, sans-serif;white-space:pre;fill:#000000;fill-opacity:1"
             id="text67">0.5</text>
        </g>
        <g
           class="ytick"
           id="g68">
          <text
             text-anchor="end"
             x="62.200001"
             y="4.9000001"
             transform="translate(0,276)"
             style="font-size:14px;font-family:'Open Sans', verdana, arial, sans-serif;white-space:pre;fill:#000000;fill-opacity:1"
             id="text68">1</text>
        </g>
        <g
           class="ytick"
           id="g69">
          <text
             text-anchor="end"
             x="62.200001"
             y="4.9000001"
             transform="translate(0,204)"
             style="font-size:14px;font-family:'Open Sans', verdana, arial, sans-serif;white-space:pre;fill:#000000;fill-opacity:1"
             id="text69">1.5</text>
        </g>
        <g
           class="ytick"
           id="g70">
          <text
             text-anchor="end"
             x="62.200001"
             y="4.9000001"
             transform="translate(0,132)"
             style="font-size:14px;font-family:'Open Sans', verdana, arial, sans-serif;white-space:pre;fill:#000000;fill-opacity:1"
             id="text70">2</text>
        </g>
        <g
           class="ytick"
           id="g71">
          <text
             text-anchor="end"
             x="62.200001"
             y="4.9000001"
             transform="translate(0,60)"
             style="font-size:14px;font-family:'Open Sans', verdana, arial, sans-serif;white-space:pre;fill:#000000;fill-opacity:1"
             id="text71">2.5</text>
        </g>
      </g>
      <g
         class="overaxes-above"
         id="g73" />
    </g>
  </g>
  <g
     class="polarlayer"
     id="g76"
     transform="translate(-3.0882812,-54.509375)" />
  <g
     class="ternarylayer"
     id="g77"
     transform="translate(-3.0882812,-54.509375)" />
  <g
     class="geolayer"
     id="g78"
     transform="translate(-3.0882812,-54.509375)" />
  <g
     class="funnelarealayer"
     id="g79"
     transform="translate(-3.0882812,-54.509375)" />
  <g
     class="pielayer"
     id="g80"
     transform="translate(-3.0882812,-54.509375)" />
  <g
     class="treemaplayer"
     id="g81"
     transform="translate(-3.0882812,-54.509375)" />
  <g
     class="sunburstlayer"
     id="g82"
     transform="translate(-3.0882812,-54.509375)" />
  <g
     class="glimages"
     id="g83"
     transform="translate(-3.0882812,-54.509375)" />
  <defs
     id="topdefs-d2bb0d">
    <g
       class="clips"
       id="g84" />
    <clipPath
       id="legendd2bb0d">
      <rect
         width="149"
         height="116"
         x="0"
         y="0"
         id="rect84" />
    </clipPath>
  </defs>
  <g
     class="layer-above"
     id="g87"
     transform="translate(-3.0882812,-54.509375)">
    <g
       class="imagelayer"
       id="g85" />
    <g
       class="shapelayer"
       id="g86" />
  </g>
  <g
     class="legend"
     pointer-events="all"
     transform="translate(75.102628,18.990625)"
     id="g120">
    <rect
       class="bg"
       shape-rendering="crispEdges"
       style="fill:#ffffff;fill-opacity:1;stroke:#444444;stroke-width:0px;stroke-opacity:1"
       width="149"
       height="116"
       x="0"
       y="0"
       id="rect87" />
    <g
       class="scrollbox"
       clip-path="url(#legendd2bb0d)"
       id="g119">
      <g
         class="groups"
         id="g118">
        <g
           class="traces"
           transform="translate(0,15.6)"
           style="opacity:1"
           id="g93">
          <text
             class="legendtext"
             text-anchor="start"
             x="40"
             y="5.46"
             style="font-size:14px;font-family:'Open Sans', verdana, arial, sans-serif;white-space:pre;fill:#000000;fill-opacity:1"
             id="text87">20 GW/cm<tspan
   style="font-size:65%;baseline-shift:super"
   id="tspan124">2</tspan></text>
          <g
             class="layers"
             style="opacity:1"
             id="g92">
            <g
               class="legendfill"
               id="g88" />
            <g
               class="legendlines"
               id="g89">
              <path
                 class="js-line"
                 d="M 5,0 H 35"
                 style="fill:none;stroke:#636efa;stroke-width:2px;stroke-opacity:1"
                 id="path88" />
            </g>
            <g
               class="legendsymbols"
               id="g91">
              <g
                 class="legendpoints"
                 id="g90" />
            </g>
          </g>
          <rect
             class="legendtoggle"
             x="0"
             y="-10.6"
             width="143.95312"
             height="21.200001"
             style="fill:#000000;fill-opacity:0"
             id="rect92" />
        </g>
        <g
           class="traces"
           transform="translate(0,36.8)"
           style="opacity:1"
           id="g99">
          <text
             class="legendtext"
             text-anchor="start"
             x="40"
             y="5.46"
             style="font-size:14px;font-family:'Open Sans', verdana, arial, sans-serif;white-space:pre;fill:#000000;fill-opacity:1"
             id="text93">40 GW/cm<tspan
   style="font-size:65%;baseline-shift:super"
   id="tspan125">2</tspan></text>
          <g
             class="layers"
             style="opacity:1"
             id="g98">
            <g
               class="legendfill"
               id="g94" />
            <g
               class="legendlines"
               id="g95">
              <path
                 class="js-line"
                 d="M 5,0 H 35"
                 style="fill:none;stroke:#ef553b;stroke-width:2px;stroke-opacity:1"
                 id="path94" />
            </g>
            <g
               class="legendsymbols"
               id="g97">
              <g
                 class="legendpoints"
                 id="g96" />
            </g>
          </g>
          <rect
             class="legendtoggle"
             x="0"
             y="-10.6"
             width="143.95312"
             height="21.200001"
             style="fill:#000000;fill-opacity:0"
             id="rect98" />
        </g>
        <g
           class="traces"
           transform="translate(0,58)"
           style="opacity:1"
           id="g105">
          <text
             class="legendtext"
             text-anchor="start"
             x="40"
             y="5.46"
             style="font-size:14px;font-family:'Open Sans', verdana, arial, sans-serif;white-space:pre;fill:#000000;fill-opacity:1"
             id="text99">60 GW/cm<tspan
   style="font-size:65%;baseline-shift:super"
   id="tspan126">2</tspan></text>
          <g
             class="layers"
             style="opacity:1"
             id="g104">
            <g
               class="legendfill"
               id="g100" />
            <g
               class="legendlines"
               id="g101">
              <path
                 class="js-line"
                 d="M 5,0 H 35"
                 style="fill:none;stroke:#00cc96;stroke-width:2px;stroke-opacity:1"
                 id="path100" />
            </g>
            <g
               class="legendsymbols"
               id="g103">
              <g
                 class="legendpoints"
                 id="g102" />
            </g>
          </g>
          <rect
             class="legendtoggle"
             x="0"
             y="-10.6"
             width="143.95312"
             height="21.200001"
             style="fill:#000000;fill-opacity:0"
             id="rect104" />
        </g>
        <g
           class="traces"
           transform="translate(0,79.2)"
           style="opacity:1"
           id="g111">
          <text
             class="legendtext"
             text-anchor="start"
             x="40"
             y="5.46"
             style="font-size:14px;font-family:'Open Sans', verdana, arial, sans-serif;white-space:pre;fill:#000000;fill-opacity:1"
             id="text105">80 GW/cm<tspan
   style="font-size:65%;baseline-shift:super"
   id="tspan127">2</tspan></text>
          <g
             class="layers"
             style="opacity:1"
             id="g110">
            <g
               class="legendfill"
               id="g106" />
            <g
               class="legendlines"
               id="g107">
              <path
                 class="js-line"
                 d="M 5,0 H 35"
                 style="fill:none;stroke:#ab63fa;stroke-width:2px;stroke-opacity:1"
                 id="path106" />
            </g>
            <g
               class="legendsymbols"
               id="g109">
              <g
                 class="legendpoints"
                 id="g108" />
            </g>
          </g>
          <rect
             class="legendtoggle"
             x="0"
             y="-10.6"
             width="143.95312"
             height="21.200001"
             style="fill:#000000;fill-opacity:0"
             id="rect110" />
        </g>
        <g
           class="traces"
           transform="translate(0,100.4)"
           style="opacity:1"
           id="g117">
          <text
             class="legendtext"
             text-anchor="start"
             x="40"
             y="5.46"
             style="font-size:14px;font-family:'Open Sans', verdana, arial, sans-serif;white-space:pre;fill:#000000;fill-opacity:1"
             id="text111">100 GW/cm<tspan
   style="font-size:65%;baseline-shift:super"
   id="tspan128">2</tspan></text>
          <g
             class="layers"
             style="opacity:1"
             id="g116">
            <g
               class="legendfill"
               id="g112" />
            <g
               class="legendlines"
               id="g113">
              <path
                 class="js-line"
                 d="M 5,0 H 35"
                 style="fill:none;stroke:#ffa15a;stroke-width:2px;stroke-opacity:1"
                 id="path112" />
            </g>
            <g
               class="legendsymbols"
               id="g115">
              <g
                 class="legendpoints"
                 id="g114" />
            </g>
          </g>
          <rect
             class="legendtoggle"
             x="0"
             y="-10.6"
             width="143.95312"
             height="21.200001"
             style="fill:#000000;fill-opacity:0"
             id="rect116" />
        </g>
      </g>
    </g>
    <rect
       class="scrollbar"
       rx="20"
       ry="3"
       width="0"
       height="0"
       style="fill:#808ba4;fill-opacity:1"
       x="0"
       y="0"
       id="rect119" />
  </g>
  <g
     class="g-gtitle"
     id="g121"
     transform="translate(-3.0882812,-54.509375)" />
  <g
     class="g-xtitle"
     id="g122"
     transform="translate(-3.0882812,-54.509375)">
    <text
       class="xtitle"
       x="268.5"
       y="467.71249"
       text-anchor="middle"
       style="font-weight:normal;font-size:17px;font-family:'Open Sans', verdana, arial, sans-serif;white-space:pre;opacity:1;fill:#000000"
       id="text121">Kristályhossz (mm)</text>
  </g>
  <g
     class="g-ytitle"
     transform="translate(1.5152344,-54.509375)"
     id="g123">
    <text
       class="ytitle"
       transform="rotate(-90,12.396875,240)"
       x="12.396875"
       y="240"
       text-anchor="middle"
       style="font-weight:normal;font-size:17px;font-family:'Open Sans', verdana, arial, sans-serif;white-space:pre;opacity:1;fill:#000000"
       id="text122">Hatásfok (%)</text>
  </g>
</svg>
