<svg class="main-svg" xmlns="http://www.w3.org/2000/svg" xmlns:xlink="http://www.w3.org/1999/xlink" width="640" height="480" style="" viewBox="0 0 640 480"><rect x="0" y="0" width="640" height="480" style="fill: rgb(255, 255, 255); fill-opacity: 1;"/><defs id="defs-d2bb0d"><g class="clips"><clipPath id="clipd2bb0dxyplot" class="plotclip"><rect width="405" height="360"/></clipPath><clipPath class="axesclip" id="clipd2bb0dx"><rect x="66" y="0" width="405" height="480"/></clipPath><clipPath class="axesclip" id="clipd2bb0dy"><rect x="0" y="60" width="640" height="360"/></clipPath><clipPath class="axesclip" id="clipd2bb0dxy"><rect x="66" y="60" width="405" height="360"/></clipPath></g><g class="gradients"/></defs><g class="bglayer"/><g class="layer-below"><g class="imagelayer"/><g class="shapelayer"/></g><g class="cartesianlayer"><g class="subplot xy"><g class="layer-subplot"><g class="shapelayer"/><g class="imagelayer"/></g><g class="gridlayer"><g class="x"/><g class="y"/></g><g class="zerolinelayer"/><path class="xlines-below"/><path class="ylines-below"/><g class="overlines-below"/><g class="xaxislayer-below"/><g class="yaxislayer-below"/><g class="overaxes-below"/><g class="plot" transform="translate(66,60)" clip-path="url('#clipd2bb0dxyplot')"><g class="scatterlayer mlayer"><g class="trace scatter trace7a78ef" style="stroke-miterlimit: 2; opacity: 1;"><g class="fills"/><g class="errorbars"/><g class="lines"><path class="js-line" d="M0,360L44.25,359.25L44.3,359.24L62.52,358.49L62.57,358.48L103.43,355.8L103.48,355.79L129.55,353.31L129.6,353.3L191.06,344.7L191.11,344.69L205.54,342.01L205.59,342L238.9,334.58L238.95,334.56L251,331.39L251.05,331.37L271.65,325.11L271.7,325.09L287.85,319.26L287.9,319.24L303.5,312.6L303.55,312.57L320.91,303.65L320.96,303.62L339.29,291.79L339.34,291.75L353.16,280.69L353.21,280.65L371.08,263.15L371.13,263.09L382.47,249.91L382.52,249.85L393.56,235.44L393.61,235.37L413.81,205.56L413.86,205.48L436.94,171.06L437,170.99L449.65,156.54L449.7,156.49L461.95,148.44L462,148.42L472.43,146.77L472.48,146.78L483.67,149.78L483.72,149.81L499.67,159.54L499.72,159.58L506.25,164.25" style="vector-effect: non-scaling-stroke; fill: none; stroke: rgb(99, 110, 250); stroke-opacity: 1; stroke-width: 2px; opacity: 1;"/></g><g class="points"/><g class="text"/></g><g class="trace scatter tracea70f9b" style="stroke-miterlimit: 2; opacity: 1;"><g class="fills"/><g class="errorbars"/><g class="lines"><path class="js-line" d="M0,360L32.1,359.25L32.15,359.24L65.41,356.85L65.46,356.84L81.71,355.01L81.76,355L114.62,349.9L114.67,349.89L145.8,342.94L145.85,342.92L171.01,335.46L171.06,335.44L188.78,328.75L188.83,328.73L201.89,322.71L201.94,322.68L213.84,315.9L213.89,315.86L222.9,309.58L222.95,309.54L233.89,299.93L233.94,299.88L242.09,290.71L242.14,290.65L249.58,280.56L249.63,280.49L262.79,258.39L262.84,258.3L267.15,249.82L267.2,249.72L288.31,207.12L288.36,207.03L295.6,195.53L295.65,195.46L300.66,189.71L300.71,189.67L305.77,185.96L305.83,185.93L310.48,184.57L310.53,184.56L315.65,184.97L315.7,184.99L321.57,187.31L321.62,187.34L340.55,197.19L340.6,197.2L345.67,197.7L345.72,197.7L351.24,196.6L351.29,196.58L356.96,193.13L357.01,193.09L362.32,188.27L362.37,188.22L371.84,177.69L371.89,177.63L381.71,168.24L381.76,168.2L393.61,160.24L393.66,160.21L405.05,152.52L405.1,152.47L412.04,147.44L412.09,147.43L415.83,143.87L415.88,143.83L418.82,142.15L418.87,142.07L419.93,141.92L420.14,142.15L420.19,142.21L420.9,142.41L421.3,141.93L421.35,141.87L423.12,141.33L423.17,141.35L424.85,140.68L424.9,140.64L432.84,141.43L432.89,141.41L438.06,141.05L438.11,141.06L453.2,140.43L453.25,140.42L486.51,135.31L486.56,135.29L505.34,130.07L505.39,130.08L506.25,130.17" style="vector-effect: non-scaling-stroke; fill: none; stroke: rgb(239, 85, 59); stroke-opacity: 1; stroke-width: 2px; opacity: 1;"/></g><g class="points"/><g class="text"/></g><g class="trace scatter trace947b25" style="stroke-miterlimit: 2; opacity: 1;"><g class="fills"/><g class="errorbars"/><g class="lines"><path class="js-line" d="M0,360L27.08,359.25L27.14,359.24L50.17,357.35L50.22,357.34L64.09,355.67L64.14,355.66L86.21,351.97L86.27,351.96L110.72,346.31L110.77,346.29L119.63,343.76L119.68,343.74L133.04,339.41L133.09,339.39L146.71,334.06L146.76,334.04L160.28,327.84L160.33,327.81L173.39,320L173.44,319.97L182.25,313.23L182.3,313.18L190.05,305.53L190.1,305.47L198.6,294.21L198.65,294.12L206.8,279.69L206.85,279.58L216.57,257.46L216.62,257.33L236.27,211.1L236.32,211.01L240.98,204.16L241.03,204.1L244.97,200.51L245.03,200.48L248.97,198.75L249.02,198.74L252.77,198.78L252.82,198.79L259.25,200.83L259.3,200.86L267.4,203.38L267.45,203.39L271.4,203.42L271.45,203.41L275.96,201.13L276.01,201.1L279.8,197.69L279.85,197.62L283.15,192.57L283.2,192.49L290.49,177.96L290.54,177.85L297.83,162.29L297.88,162.19L302.79,154.01L302.84,153.95L308.1,148.33L308.15,148.28L312.81,145.16L312.86,145.14L321.01,142.67L321.06,142.67L328.56,142.95L328.61,142.96L339.29,144.42L339.34,144.43L346.88,145.8L346.93,145.79L352.1,144.08L352.15,144.05L375.13,129.59L375.18,129.54L379.33,124.34L379.38,124.26L391.43,108.12L391.48,108.09L395.69,106.33L395.74,106.32L401.91,104.65L401.96,104.64L406.22,102.42L406.27,102.38L411.68,97.34L411.73,97.29L421.91,85.62L421.96,85.54L425.86,81.23L425.91,81.19L440.18,71.68L440.24,71.67L450.56,68.46L450.61,68.48L456.64,67.6L456.69,67.6L462.61,68.07L462.66,68.09L473.6,74.47L473.65,74.52L482.56,80.61L482.61,80.63L494.66,83.77L494.71,83.77L506.25,86.67" style="vector-effect: non-scaling-stroke; fill: none; stroke: rgb(0, 204, 150); stroke-opacity: 1; stroke-width: 2px; opacity: 1;"/></g><g class="points"/><g class="text"/></g><g class="trace scatter trace45b83e" style="stroke-miterlimit: 2; opacity: 1;"><g class="fills"/><g class="errorbars"/><g class="lines"><path class="js-line" d="M0,360L24,359.25L24.05,359.24L43.08,357.55L43.13,357.54L54.83,356.01L54.88,356L72.04,352.96L72.09,352.95L91.78,348.27L91.83,348.25L98.62,346.22L98.67,346.2L111.73,341.95L111.78,341.93L123.47,337.25L123.53,337.22L142.66,327.69L142.71,327.66L158.25,316.85L158.3,316.8L165.95,309.12L166,309.05L171.82,300.9L171.87,300.83L176.63,292.41L176.68,292.3L184.88,273.37L184.93,273.23L205.64,216.3L205.69,216.2L210.04,209.17L210.09,209.11L214.65,205.18L214.7,205.15L217.84,204.32L217.89,204.32L226.45,205.63L226.5,205.64L230.7,205.99L230.75,205.98L234.8,204.14L234.85,204.11L238.14,201.53L238.19,201.47L241.13,196.79L241.18,196.69L247.15,183.09L247.2,182.95L257.12,156.53L257.18,156.42L260.97,149.87L261.02,149.81L264.77,146.68L264.82,146.64L271.35,143.04L271.4,143.03L275.5,143.49L275.55,143.5L284.56,145.35L284.61,145.34L289.47,143.67L289.52,143.65L294.59,140.95L294.64,140.9L299.04,136.1L299.09,136.04L304.05,132.14L304.1,132.12L308.41,130.54L308.46,130.53L312.56,128.96L312.61,128.93L316.76,125.59L316.81,125.54L325.32,115.63L325.37,115.6L328.46,114.78L328.51,114.79L331.14,115.7L331.19,115.73L337.31,118.62L337.37,118.63L340.1,118.08L340.15,118.05L342.38,116.04L342.43,115.98L346.28,109.75L346.33,109.66L356.35,91.48L356.4,91.42L359.69,89L359.74,88.98L362.93,88.51L362.98,88.51L366.63,89.5L366.68,89.51L371.23,90.25L371.28,90.24L375.18,89.01L375.23,88.99L385.51,83.58L385.56,83.57L389.31,84.05L389.36,84.07L399.03,87.06L399.08,87.01L400.39,86.73L400.44,86.72L402.06,85.66L402.11,85.56L403.28,84.81L403.33,84.83L404.09,85.04L404.29,84.77L404.34,84.71L406.52,83.85L406.57,83.82L408.04,81.51L408.09,81.43L409.51,80.5L409.56,80.52L410.47,80.1L410.52,80.04L412.04,78.68L412.09,78.7L415.93,75.41L415.99,75.4L418.11,75.02L418.16,74.88L419.53,73.58L419.63,73.68L419.68,73.76L421.96,75.37L422.06,75.27L422.11,75.18L423.88,72.82L424.04,73.26L424.09,73.47L424.85,74.69L425.3,73.68L425.35,73.54L425.91,72.81L426.62,73.42L426.67,73.4L427.53,71.94L428.03,73.01L428.09,73.02L431.58,69.67L431.63,69.66L435.58,64.33L435.63,64.35L439.17,59.25L439.22,59.15L448.13,47.8L448.18,47.74L456.94,36.2L456.99,36.12L466.91,24.19L466.97,24.15L491.21,0.5L491.27,0.47L497.14,-0.81L497.19,-0.81L506.25,1.13" style="vector-effect: non-scaling-stroke; fill: none; stroke: rgb(171, 99, 250); stroke-opacity: 1; stroke-width: 2px; opacity: 1;"/></g><g class="points"/><g class="text"/></g><g class="trace scatter trace07d794" style="stroke-miterlimit: 2; opacity: 1;"><g class="fills"/><g class="errorbars"/><g class="lines"><path class="js-line" d="M0,360L21.82,359.25L21.87,359.24L42.98,357.1L43.03,357.09L51.59,355.77L51.64,355.76L64.95,353.23L65,353.22L94.47,344.88L94.52,344.86L119.37,334.43L119.42,334.4L126.66,330.42L126.71,330.39L132.59,326.63L132.64,326.59L142.36,319.38L142.41,319.33L148.08,313.87L148.13,313.8L155.98,303.3L156.03,303.21L164.18,286.22L164.23,286.08L171.97,263.04L172.02,262.87L185.29,220.38L185.34,220.25L189.14,212.1L189.19,212.02L192.68,207.83L192.73,207.79L196.07,205.87L196.12,205.85L203.31,204.68L203.36,204.7L207.46,205.33L207.51,205.31L210.2,203.45L210.25,203.4L214.7,198.56L214.75,198.49L217.69,192.74L217.74,192.61L222.14,179.1L222.19,178.93L231.36,151.34L231.41,151.26L234.95,146.99L235,146.94L241.23,141.38L241.28,141.36L243.81,141.3L243.86,141.31L251.15,142.86L251.2,142.85L253.99,141.15L254.04,141.1L257.53,136.82L257.58,136.74L268.57,121.24L268.62,121.2L270.89,120.7L270.95,120.7L279.3,121.98L279.35,121.97L290.13,118.7L290.18,118.71L299.65,119.7L299.7,119.68L302.08,117.95L302.13,117.9L305.42,112.8L305.47,112.71L314.79,96.41L314.84,96.36L317.67,94.87L317.72,94.87L320.25,95.43L320.3,95.45L328.4,98.52L328.46,98.51L331.04,97.43L331.09,97.39L334.07,94.3L334.13,94.23L339.29,88.28L339.34,88.25L343.79,86.44L343.85,86.42L349.92,84.02L349.97,84.01L354.02,81.88L354.07,81.84L365.82,72.67L365.87,72.64L375.69,65.94L375.74,65.89L382.93,58.71L382.98,58.64L388.04,52.39L388.09,52.34L394.07,45.69L394.12,45.69L395.28,44.64L395.33,44.55L397.66,42.37L397.71,42.34L399.68,38.83L399.74,38.68L401.3,36.4L401.35,36.33L403.23,33.83L403.28,33.7L405.3,30.36L405.35,30.4L405.41,30.46L405.91,30.84L406.22,30.35L406.27,30.26L406.87,30.16L407.08,30.37L407.13,30.43L408.29,31.19L408.49,30.91L408.54,30.84L410.52,29.86L410.67,30.11L410.72,30.21L411.73,30.22L411.78,30.26L413.66,30.6L413.71,30.51L415.07,29.7L415.13,29.65L416.44,29.58L416.49,29.58L419.78,28.23L419.83,28.21L421.35,28.5L421.4,28.52L422.52,29.71L422.87,28.99L422.92,28.93L428.64,25.64L428.69,25.55L429.71,25.83L429.81,25.96L429.86,26.02L433.7,23.64L433.81,23.8L433.86,23.87L435.58,23.94L435.78,23.57L435.83,23.54L439.12,23.75L439.17,23.7L440.74,24.01L440.79,23.98L444.44,24.65L444.49,24.73L447.98,27.33L448.03,27.36L450.46,29.87L450.51,29.97L453.95,34.46L454.01,34.55L463.37,47.69L463.42,47.75L473.9,60.69L473.95,60.77L482.05,70.87L482.1,70.95L489.8,79.64L489.85,79.64L493.64,81.41L493.7,81.53L496.94,82.53L496.99,82.55L505.85,81.07L505.9,81.04L506.25,80.58" style="vector-effect: non-scaling-stroke; fill: none; stroke: rgb(255, 161, 90); stroke-opacity: 1; stroke-width: 2px; opacity: 1;"/></g><g class="points"/><g class="text"/></g></g></g><g class="overplot"/><path class="xlines-above crisp" d="M65,420.5H472M65,59.5H472" style="fill: none; stroke-width: 1px; stroke: rgb(0, 0, 0); stroke-opacity: 1;"/><path class="ylines-above crisp" d="M65.5,60V420M471.5,60V420" style="fill: none; stroke-width: 1px; stroke: rgb(0, 0, 0); stroke-opacity: 1;"/><g class="overlines-above"/><g class="xaxislayer-above"><path class="xtick ticks crisp" d="M0,420v-5M0,60v5" transform="translate(167.25,0)" style="stroke: rgb(68, 68, 68); stroke-opacity: 1; stroke-width: 1px;"/><path class="xtick ticks crisp" d="M0,420v-5M0,60v5" transform="translate(268.5,0)" style="stroke: rgb(68, 68, 68); stroke-opacity: 1; stroke-width: 1px;"/><path class="xtick ticks crisp" d="M0,420v-5M0,60v5" transform="translate(369.75,0)" style="stroke: rgb(68, 68, 68); stroke-opacity: 1; stroke-width: 1px;"/><g class="xtick"><text text-anchor="middle" x="0" y="437.8" transform="translate(66,0)" style="font-family: 'Open Sans', verdana, arial, sans-serif; font-size: 14px; fill: rgb(0, 0, 0); fill-opacity: 1; white-space: pre;">0</text></g><g class="xtick"><text text-anchor="middle" x="0" y="437.8" transform="translate(167.25,0)" style="font-family: 'Open Sans', verdana, arial, sans-serif; font-size: 14px; fill: rgb(0, 0, 0); fill-opacity: 1; white-space: pre;">2</text></g><g class="xtick"><text text-anchor="middle" x="0" y="437.8" transform="translate(268.5,0)" style="font-family: 'Open Sans', verdana, arial, sans-serif; font-size: 14px; fill: rgb(0, 0, 0); fill-opacity: 1; white-space: pre;">4</text></g><g class="xtick"><text text-anchor="middle" x="0" y="437.8" transform="translate(369.75,0)" style="font-family: 'Open Sans', verdana, arial, sans-serif; font-size: 14px; fill: rgb(0, 0, 0); fill-opacity: 1; white-space: pre;">6</text></g><g class="xtick"><text text-anchor="middle" x="0" y="437.8" transform="translate(471,0)" style="font-family: 'Open Sans', verdana, arial, sans-serif; font-size: 14px; fill: rgb(0, 0, 0); fill-opacity: 1; white-space: pre;">8</text></g></g><g class="yaxislayer-above"><path class="ytick ticks crisp" d="M66,0h5M471,0h-5" transform="translate(0,348)" style="stroke: rgb(68, 68, 68); stroke-opacity: 1; stroke-width: 1px;"/><path class="ytick ticks crisp" d="M66,0h5M471,0h-5" transform="translate(0,276)" style="stroke: rgb(68, 68, 68); stroke-opacity: 1; stroke-width: 1px;"/><path class="ytick ticks crisp" d="M66,0h5M471,0h-5" transform="translate(0,204)" style="stroke: rgb(68, 68, 68); stroke-opacity: 1; stroke-width: 1px;"/><path class="ytick ticks crisp" d="M66,0h5M471,0h-5" transform="translate(0,132)" style="stroke: rgb(68, 68, 68); stroke-opacity: 1; stroke-width: 1px;"/><g class="ytick"><text text-anchor="end" x="62.2" y="4.8999999999999995" transform="translate(0,420)" style="font-family: 'Open Sans', verdana, arial, sans-serif; font-size: 14px; fill: rgb(0, 0, 0); fill-opacity: 1; white-space: pre;">0</text></g><g class="ytick"><text text-anchor="end" x="62.2" y="4.8999999999999995" transform="translate(0,348)" style="font-family: 'Open Sans', verdana, arial, sans-serif; font-size: 14px; fill: rgb(0, 0, 0); fill-opacity: 1; white-space: pre;">0.5</text></g><g class="ytick"><text text-anchor="end" x="62.2" y="4.8999999999999995" transform="translate(0,276)" style="font-family: 'Open Sans', verdana, arial, sans-serif; font-size: 14px; fill: rgb(0, 0, 0); fill-opacity: 1; white-space: pre;">1</text></g><g class="ytick"><text text-anchor="end" x="62.2" y="4.8999999999999995" transform="translate(0,204)" style="font-family: 'Open Sans', verdana, arial, sans-serif; font-size: 14px; fill: rgb(0, 0, 0); fill-opacity: 1; white-space: pre;">1.5</text></g><g class="ytick"><text text-anchor="end" x="62.2" y="4.8999999999999995" transform="translate(0,132)" style="font-family: 'Open Sans', verdana, arial, sans-serif; font-size: 14px; fill: rgb(0, 0, 0); fill-opacity: 1; white-space: pre;">2</text></g><g class="ytick"><text text-anchor="end" x="62.2" y="4.8999999999999995" transform="translate(0,60)" style="font-family: 'Open Sans', verdana, arial, sans-serif; font-size: 14px; fill: rgb(0, 0, 0); fill-opacity: 1; white-space: pre;">2.5</text></g></g><g class="overaxes-above"/></g></g><g class="polarlayer"/><g class="ternarylayer"/><g class="geolayer"/><g class="funnelarealayer"/><g class="pielayer"/><g class="treemaplayer"/><g class="sunburstlayer"/><g class="glimages"/><defs id="topdefs-d2bb0d"><g class="clips"/><clipPath id="legendd2bb0d"><rect width="149" height="116" x="0" y="0"/></clipPath></defs><g class="layer-above"><g class="imagelayer"/><g class="shapelayer"/></g><g class="infolayer"><g class="legend" pointer-events="all" transform="translate(479.1,60)"><rect class="bg" shape-rendering="crispEdges" style="stroke: rgb(68, 68, 68); stroke-opacity: 1; fill: rgb(255, 255, 255); fill-opacity: 1; stroke-width: 0px;" width="149" height="116" x="0" y="0"/><g class="scrollbox" transform="" clip-path="url('#legendd2bb0d')"><g class="groups"><g class="traces" transform="translate(0,15.6)" style="opacity: 1;"><text class="legendtext" text-anchor="start" x="40" y="5.46" style="font-family: 'Open Sans', verdana, arial, sans-serif; font-size: 14px; fill: rgb(0, 0, 0); fill-opacity: 1; white-space: pre;">20 GW/cm^2</text><g class="layers" style="opacity: 1;"><g class="legendfill"/><g class="legendlines"><path class="js-line" d="M5,0h30" style="fill: none; stroke: rgb(99, 110, 250); stroke-opacity: 1; stroke-width: 2px;"/></g><g class="legendsymbols"><g class="legendpoints"/></g></g><rect class="legendtoggle" x="0" y="-10.6" width="143.953125" height="21.2" style="fill: rgb(0, 0, 0); fill-opacity: 0;"/></g><g class="traces" transform="translate(0,36.8)" style="opacity: 1;"><text class="legendtext" text-anchor="start" x="40" y="5.46" style="font-family: 'Open Sans', verdana, arial, sans-serif; font-size: 14px; fill: rgb(0, 0, 0); fill-opacity: 1; white-space: pre;">40 GW/cm^2</text><g class="layers" style="opacity: 1;"><g class="legendfill"/><g class="legendlines"><path class="js-line" d="M5,0h30" style="fill: none; stroke: rgb(239, 85, 59); stroke-opacity: 1; stroke-width: 2px;"/></g><g class="legendsymbols"><g class="legendpoints"/></g></g><rect class="legendtoggle" x="0" y="-10.6" width="143.953125" height="21.2" style="fill: rgb(0, 0, 0); fill-opacity: 0;"/></g><g class="traces" transform="translate(0,58)" style="opacity: 1;"><text class="legendtext" text-anchor="start" x="40" y="5.46" style="font-family: 'Open Sans', verdana, arial, sans-serif; font-size: 14px; fill: rgb(0, 0, 0); fill-opacity: 1; white-space: pre;">60 GW/cm^2</text><g class="layers" style="opacity: 1;"><g class="legendfill"/><g class="legendlines"><path class="js-line" d="M5,0h30" style="fill: none; stroke: rgb(0, 204, 150); stroke-opacity: 1; stroke-width: 2px;"/></g><g class="legendsymbols"><g class="legendpoints"/></g></g><rect class="legendtoggle" x="0" y="-10.6" width="143.953125" height="21.2" style="fill: rgb(0, 0, 0); fill-opacity: 0;"/></g><g class="traces" transform="translate(0,79.19999999999999)" style="opacity: 1;"><text class="legendtext" text-anchor="start" x="40" y="5.46" style="font-family: 'Open Sans', verdana, arial, sans-serif; font-size: 14px; fill: rgb(0, 0, 0); fill-opacity: 1; white-space: pre;">80 GW/cm^2</text><g class="layers" style="opacity: 1;"><g class="legendfill"/><g class="legendlines"><path class="js-line" d="M5,0h30" style="fill: none; stroke: rgb(171, 99, 250); stroke-opacity: 1; stroke-width: 2px;"/></g><g class="legendsymbols"><g class="legendpoints"/></g></g><rect class="legendtoggle" x="0" y="-10.6" width="143.953125" height="21.2" style="fill: rgb(0, 0, 0); fill-opacity: 0;"/></g><g class="traces" transform="translate(0,100.39999999999999)" style="opacity: 1;"><text class="legendtext" text-anchor="start" x="40" y="5.46" style="font-family: 'Open Sans', verdana, arial, sans-serif; font-size: 14px; fill: rgb(0, 0, 0); fill-opacity: 1; white-space: pre;">100 GW/cm^2</text><g class="layers" style="opacity: 1;"><g class="legendfill"/><g class="legendlines"><path class="js-line" d="M5,0h30" style="fill: none; stroke: rgb(255, 161, 90); stroke-opacity: 1; stroke-width: 2px;"/></g><g class="legendsymbols"><g class="legendpoints"/></g></g><rect class="legendtoggle" x="0" y="-10.6" width="143.953125" height="21.2" style="fill: rgb(0, 0, 0); fill-opacity: 0;"/></g></g></g><rect class="scrollbar" rx="20" ry="3" width="0" height="0" style="fill: rgb(128, 139, 164); fill-opacity: 1;" x="0" y="0"/></g><g class="g-gtitle"/><g class="g-xtitle"><text class="xtitle" x="268.5" y="467.7125" text-anchor="middle" style="font-family: 'Open Sans', verdana, arial, sans-serif; font-size: 17px; fill: rgb(0, 0, 0); opacity: 1; font-weight: normal; white-space: pre;">Kristályhossz (mm)</text></g><g class="g-ytitle" transform="translate(4.603515625,0)"><text class="ytitle" transform="rotate(-90,12.396875000000001,240)" x="12.396875000000001" y="240" text-anchor="middle" style="font-family: 'Open Sans', verdana, arial, sans-serif; font-size: 17px; fill: rgb(0, 0, 0); opacity: 1; font-weight: normal; white-space: pre;">Hatásfok (%)</text></g></g></svg>