<svg class="main-svg" xmlns="http://www.w3.org/2000/svg" xmlns:xlink="http://www.w3.org/1999/xlink" width="700" height="500" style="" viewBox="0 0 700 500"><rect x="0" y="0" width="700" height="500" style="fill: rgb(255, 255, 255); fill-opacity: 1;"/><defs id="defs-922cc3"><g class="clips"><clipPath id="clip922cc3xyplot" class="plotclip"><rect width="589" height="380"/></clipPath><clipPath class="axesclip" id="clip922cc3x"><rect x="61" y="0" width="589" height="500"/></clipPath><clipPath class="axesclip" id="clip922cc3y"><rect x="0" y="60" width="700" height="380"/></clipPath><clipPath class="axesclip" id="clip922cc3xy"><rect x="61" y="60" width="589" height="380"/></clipPath></g><g class="gradients"/></defs><g class="bglayer"/><g class="layer-below"><g class="imagelayer"/><g class="shapelayer"/></g><g class="cartesianlayer"><g class="subplot xy"><g class="layer-subplot"><g class="shapelayer"/><g class="imagelayer"/></g><g class="gridlayer"><g class="x"/><g class="y"/></g><g class="zerolinelayer"/><path class="xlines-below"/><path class="ylines-below"/><g class="overlines-below"/><g class="xaxislayer-below"/><g class="yaxislayer-below"/><g class="overaxes-below"/><g class="plot" transform="translate(61,60)" clip-path="url('#clip922cc3xyplot')"><g class="scatterlayer mlayer"><g class="trace scatter traceeef773" style="stroke-miterlimit: 2; opacity: 1;"><g class="fills"/><g class="errorbars"/><g class="lines"><path class="js-line" d="M0,361L1.4,327.39L1.47,324.26L2.87,235.39L2.94,229.78L6.48,22.72L6.55,21.64L6.92,19L7.29,21.02L7.36,22L8.1,41.75L8.17,44.66L9.57,125.76L9.64,131.06L13.55,358.04L13.62,358.8L13.92,359.94L14.21,358.1L14.28,357.18L15.02,337.89L15.09,334.99L16.49,254.32L16.57,249.04L20.17,28.32L20.25,26.77L20.84,21.01L21.13,22.65L21.2,23.52L21.94,41.88L22.01,44.65L23.41,123.45L23.49,128.63L27.17,350.77L27.24,352.17L27.76,356.92L28.12,354.7L28.2,353.68L29.16,324.7L29.23,321.35L31.44,174.91L31.51,169.42L34.24,28.84L34.31,27.79L34.68,25.18L35.05,27.04L35.12,27.95L36,52.5L36.08,55.6L38.06,180.36L38.14,185.8L40.86,341.72L40.94,343.52L41.67,351.7L41.89,350.63L41.97,349.92L42.78,330.76L42.85,328.02L44.62,226.02L44.69,220.78L47.78,41.51L47.86,39.72L48.59,31.18L48.89,32.72L48.96,33.54L49.84,56.24L49.92,59.14L51.91,178.13L51.98,183.36L54.7,334.28L54.78,336.05L55.51,344.54L55.81,343.18L55.88,342.41L56.69,322.86L56.76,320.16L58.24,241.17L58.31,236.32L61.77,46.27L61.84,44.84L62.43,39.33L62.8,41.23L62.88,42.1L63.76,64.87L63.83,67.73L65.38,152.47L65.45,157.31L68.91,332.32L68.99,333.26L69.35,335.48L69.72,333.56L69.8,332.7L70.68,310.56L70.75,307.79L72.3,225.66L72.37,221L75.83,52.44L75.91,51.52L76.28,49.23L76.64,50.84L76.72,51.64L77.6,72.69L77.67,75.33L79.22,154.11L79.29,158.61L82.75,321.57L82.83,322.42L83.2,324.49L83.56,322.84L83.64,322.07L84.52,301.59L84.6,299.02L86.66,192.73L86.73,188.33L89.38,68.5L89.45,67.09L90.12,60.87L90.49,62.46L90.56,63.2L91.44,82.51L91.52,84.95L93.58,186.53L93.65,190.74L96.3,305.05L96.38,306.35L97.04,312.03L97.33,310.97L97.41,310.35L98.29,292.92L98.36,290.69L99.84,227.04L99.91,223.2L103.22,80.32L103.3,79.12L103.96,74L104.25,75.02L104.33,75.6L105.14,90.2L105.21,92.23L107.05,169.52L107.12,173.26L110.36,295.68L110.44,296.41L110.81,298.18L111.17,296.9L111.25,296.28L112.13,280.03L112.2,277.97L113.75,217.24L113.82,213.8L117.28,90.28L117.36,89.64L117.73,88.12L118.09,89.52L118.17,90.14L119.13,107.78L119.2,109.82L121.48,201.24L121.55,204.48L124.13,281.44L124.21,282.05L124.57,283.52L124.94,282.36L125.02,281.81L125.9,267.38L125.97,265.58L127.52,212.73L127.59,209.74L130.98,104.95L131.05,104.36L131.49,102.9L131.79,103.89L131.86,104.38L132.6,114.33L132.67,115.82L134.07,156.97L134.14,159.63L137.9,267.44L137.97,267.87L138.27,268.71L138.64,267.68L138.71,267.2L139.67,253.4L139.74,251.81L142.02,180.62L142.1,178.11L144.45,120.73L144.53,120.03L145.11,117.44L145.41,118.11L145.48,118.48L146.22,126.59L146.29,127.81L147.69,161.92L147.77,164.14L151.23,251.45L151.3,252.1L151.89,254.52L152.18,253.88L152.26,253.53L153.14,243.95L153.21,242.72L154.76,206.14L154.83,204.07L158.22,132L158.29,131.63L158.66,130.78L159.03,131.66L159.1,132.05L159.91,140.53L159.99,141.66L162.05,188.49L162.12,190.41L164.92,240.99L164.99,241.33L165.36,242.09L165.73,241.29L165.8,240.95L166.61,233.36L166.69,232.35L168.82,188.39L168.9,186.67L171.33,144.54L171.4,144.01L172.06,141.72L172.36,142.19L172.43,142.46L173.31,149.84L173.39,150.77L175.45,189.64L175.52,191.22L178.25,231.84L178.32,232.12L178.69,232.74L179.06,232.06L179.13,231.77L180.09,223.55L180.16,222.61L182.81,174.65L182.88,173.32L185.02,149.41L185.09,149.24L185.39,149.05L185.68,149.66L185.76,149.94L186.71,157.69L186.79,158.57L189.36,202.61L189.44,203.88L191.42,226.53L191.5,226.8L191.94,227.4L192.23,226.88L192.31,226.63L193.19,220.25L193.27,219.45L195.47,184.38L195.55,183.08L197.83,154.01L197.9,153.63L198.49,152.22L198.86,152.81L198.93,153.06L199.82,159.46L199.89,160.25L201.51,184.47L201.59,185.76L204.38,223.92L204.46,224.31L205.12,225.84L205.41,225.35L205.49,225.12L206.37,219.07L206.44,218.3L208.06,194.63L208.14,193.36L211.01,154.33L211.08,153.94L211.75,152.35L212.04,152.79L212.11,153.01L212.92,158.3L213,159.02L214.91,187.28L214.98,188.56L217.93,225.62L218,225.85L218.37,226.32L218.74,225.68L218.81,225.42L219.62,219.8L219.7,219.04L221.76,187.72L221.83,186.42L224.63,152.16L224.7,151.93L225.07,151.45L225.44,152.1L225.51,152.37L226.4,158.82L226.47,159.6L228.68,194.22L228.75,195.5L231.33,226.09L231.4,226.31L231.77,226.74L232.07,226.3L232.14,226.08L233.02,220.13L233.1,219.37L235.16,188.01L235.23,186.72L238.03,152.2L238.1,151.95L238.47,151.38L238.84,151.94L238.91,152.19L239.72,157.59L239.8,158.32L241.78,187.8L241.86,189.08L244.51,223.84L244.58,224.21L245.24,225.69L245.54,225.23L245.61,225.01L246.42,219.86L246.5,219.16L248.41,191.89L248.48,190.64L251.5,153.9L251.58,153.66L252.02,153.16L252.31,153.67L252.39,153.9L253.34,160.4L253.42,161.15L255.85,196.86L255.92,198.01L258.06,221.27L258.13,221.58L258.72,222.63L259.01,222.21L259.09,222L259.97,216.58L260.04,215.91L261.66,194.98L261.74,193.86L264.61,158.94L264.68,158.55L265.42,156.8L265.71,157.16L265.79,157.34L266.67,162.25L266.74,162.88L268.36,182.42L268.44,183.47L271.38,216.35L271.46,216.66L272.12,217.9L272.41,217.54L272.49,217.36L273.44,212.05L273.52,211.44L275.87,183.23L275.95,182.28L278.16,162.62L278.23,162.38L278.82,161.63L279.11,162.03L279.19,162.21L280.14,167.26L280.22,167.84L282.87,197.3L282.94,198.1L284.86,211.97L284.93,212.15L285.44,212.57L285.74,212.15L285.81,211.97L286.7,207.66L286.77,207.14L289.2,182.62L289.27,181.85L291.55,166.39L291.63,166.27L292.07,166.18L292.29,166.5L292.36,166.66L293.25,170.57L293.32,171.05L295.02,186.26L295.09,187.01L297.67,207.26L297.74,207.49L298.48,208.45L298.7,208.24L298.77,208.12L299.65,204.71L299.73,204.28L301.94,185.29L302.01,184.59L304.29,169.24L304.37,169.06L304.95,168.5L305.25,168.83L305.32,168.98L306.21,172.48L306.28,172.91L308.78,194.19L308.86,194.84L310.92,206.61L310.99,206.73L311.51,206.85L311.73,206.54L311.8,206.39L312.69,202.78L312.76,202.34L315.26,181.03L315.34,180.39L317.32,168.64L317.4,168.49L317.99,168.16L318.21,168.45L318.28,168.6L319.31,173.03L319.39,173.5L324.24,207.61L324.32,207.62L324.98,206.61L325.05,206.37L326.09,200.76L326.16,200.22L330.72,166.36L330.8,166.31L331.46,166.95L331.53,167.16L332.49,171.87L332.56,172.38L334.48,189.92L334.55,190.66L337.2,208.29L337.28,208.39L337.79,208.35L337.94,208.1L338.01,207.94L338.9,204.13L338.97,203.66L341.33,182L341.4,181.26L343.61,165.83L343.68,165.64L344.27,165.01L344.56,165.32L344.64,165.47L345.6,169.56L345.67,170.03L348.03,191.62L348.1,192.35L350.31,207.3L350.38,207.47L350.9,207.96L351.19,207.67L351.26,207.54L352.07,204.47L352.15,204.05L354.14,187.09L354.21,186.35L356.86,166.47L356.93,166.26L357.6,165.43L357.89,165.7L357.96,165.83L358.85,169.23L358.92,169.65L360.54,182.66L360.62,183.35L363.41,204.16L363.49,204.39L364.22,205.37L364.52,205.1L364.59,204.98L365.55,201.38L365.62,200.96L367.39,187.09L367.46,186.43L370.41,167.78L370.48,167.67L371.07,167.55L371.29,167.88L371.36,168.03L372.32,171.78L372.4,172.2L377.25,201.4L377.33,201.41L377.99,200.66L378.06,200.47L379.1,196.09L379.17,195.66L383.66,169.9L383.73,169.84L384.47,170.32L384.54,170.47L385.57,174.27L385.65,174.65L390.14,197.61L390.21,197.64L390.95,196.99L391.02,196.84L392.13,192.67L392.2,192.29L396.47,170.8L396.54,170.74L397.35,171.13L397.43,171.27L398.61,175.39L398.68,175.75L402.88,195.41L402.95,195.46L403.69,195.06L403.76,194.93L405.01,190.54L405.08,190.17L409.58,169.27L409.65,169.26L410.39,169.99L410.46,170.15L411.78,175.3L411.86,175.69L415.76,194.19L415.83,194.27L416.64,194.02L416.72,193.9L417.9,190.01L417.97,189.66L422.68,166.92L422.75,166.89L423.49,167.43L423.56,167.57L424.6,170.99L424.67,171.32L429.31,192.67L429.38,192.7L430.12,192.16L430.19,192.02L431.44,187.57L431.52,187.2L436.15,164.5L436.23,164.45L437.04,164.89L437.11,165.03L438.14,168.32L438.22,168.65L443,190.68L443.08,190.72L443.89,190.1L443.96,189.95L445.21,185.34L445.28,184.96L448.23,166.88L448.3,166.5L450.14,161.43L450.22,161.43L451.03,162.48L451.1,162.67L452.65,169.63L452.72,170.07L456.48,189.33L456.55,189.43L457.28,189.54L457.43,189.36L457.51,189.25L458.68,185.3L458.76,184.93L463.62,160.08L463.69,160.06L464.43,160.8L464.5,160.97L465.83,166.38L465.9,166.79L470.1,188.57L470.17,188.65L470.91,188.61L471.05,188.41L471.13,188.29L472.3,184.42L472.38,184.08L476.8,163.99L476.87,163.94L477.68,164.34L477.75,164.47L478.86,167.86L478.93,168.17L483.79,189.48L483.86,189.54L484.75,189.27L484.82,189.17L486.07,186.01L486.15,185.75L490.49,171.75L490.56,171.71L491.59,172.08L491.67,172.17L493.07,175.59L493.14,175.85L498.74,194.9L498.81,194.97L499.99,195.01L500.06,194.94L501.39,192.69L501.46,192.51L504.48,182.22L504.55,181.96L507.42,174.82L507.5,174.77L508.53,175.02L508.6,175.11L509.78,177.82L509.85,178.07L511.69,186.52L511.77,186.92L514.86,200.04L514.93,200.16L515.82,200.39L515.89,200.31L515.96,200.22L517.07,197.18L517.14,196.88L518.98,186.44L519.06,185.96L521.78,172.72L521.85,172.58L522.66,172.13L522.88,172.35L522.96,172.46L524.06,175.79L524.14,176.12L528.33,194.4L528.41,194.41L529.22,193.3L529.29,193.09L530.76,186.45L530.84,186.02L534.08,170.63L534.15,170.51L535.03,170.21L535.18,170.37L535.25,170.46L536.43,173.7L536.51,174L541.51,194.56L541.59,194.62L542.54,194.51L542.62,194.43L544.09,191.54L544.16,191.34L549.46,179.16L549.54,179.1L551.08,178.71L551.16,178.73L552.92,180.41L553,180.52L558.37,188.22L558.45,188.24L559.99,187.82L560.07,187.76L562.35,184.68L562.42,184.55L566.03,179.9L566.1,179.88L567.5,180.31L567.58,180.37L569.93,183.78L570,183.9L572.8,187.1L572.88,187.11L574.28,186.31L574.35,186.22L576.19,182.45L576.26,182.25L580.68,172.93L580.75,172.9L582.01,173.33L582.08,173.41L583.92,176.45L583.99,176.6L587.23,181.22L587.31,181.23L588.63,180.4L588.71,180.32L589,179.99" style="vector-effect: non-scaling-stroke; fill: none; stroke: rgb(99, 110, 250); stroke-opacity: 1; stroke-width: 2px; opacity: 1;"/></g><g class="points"/><g class="text"/></g></g></g><g class="overplot"/><path class="xlines-above crisp" d="M60,440.5H651M60,59.5H651" style="fill: none; stroke-width: 1px; stroke: rgb(0, 0, 0); stroke-opacity: 1;"/><path class="ylines-above crisp" d="M60.5,60V440M650.5,60V440" style="fill: none; stroke-width: 1px; stroke: rgb(0, 0, 0); stroke-opacity: 1;"/><g class="overlines-above"/><g class="xaxislayer-above"><path class="xtick ticks crisp" d="M0,440v-5M0,60v5" transform="translate(134.62,0)" style="stroke: rgb(68, 68, 68); stroke-opacity: 1; stroke-width: 1px;"/><path class="xtick ticks crisp" d="M0,440v-5M0,60v5" transform="translate(208.25,0)" style="stroke: rgb(68, 68, 68); stroke-opacity: 1; stroke-width: 1px;"/><path class="xtick ticks crisp" d="M0,440v-5M0,60v5" transform="translate(281.87,0)" style="stroke: rgb(68, 68, 68); stroke-opacity: 1; stroke-width: 1px;"/><path class="xtick ticks crisp" d="M0,440v-5M0,60v5" transform="translate(355.5,0)" style="stroke: rgb(68, 68, 68); stroke-opacity: 1; stroke-width: 1px;"/><path class="xtick ticks crisp" d="M0,440v-5M0,60v5" transform="translate(429.12,0)" style="stroke: rgb(68, 68, 68); stroke-opacity: 1; stroke-width: 1px;"/><path class="xtick ticks crisp" d="M0,440v-5M0,60v5" transform="translate(502.75,0)" style="stroke: rgb(68, 68, 68); stroke-opacity: 1; stroke-width: 1px;"/><path class="xtick ticks crisp" d="M0,440v-5M0,60v5" transform="translate(576.37,0)" style="stroke: rgb(68, 68, 68); stroke-opacity: 1; stroke-width: 1px;"/><g class="xtick"><text text-anchor="middle" x="0" y="457.8" transform="translate(61,0)" style="font-family: 'Open Sans', verdana, arial, sans-serif; font-size: 14px; fill: rgb(0, 0, 0); fill-opacity: 1; white-space: pre;">0</text></g><g class="xtick"><text text-anchor="middle" x="0" y="457.8" transform="translate(134.62,0)" style="font-family: 'Open Sans', verdana, arial, sans-serif; font-size: 14px; fill: rgb(0, 0, 0); fill-opacity: 1; white-space: pre;">1</text></g><g class="xtick"><text text-anchor="middle" x="0" y="457.8" transform="translate(208.25,0)" style="font-family: 'Open Sans', verdana, arial, sans-serif; font-size: 14px; fill: rgb(0, 0, 0); fill-opacity: 1; white-space: pre;">2</text></g><g class="xtick"><text text-anchor="middle" x="0" y="457.8" transform="translate(281.87,0)" style="font-family: 'Open Sans', verdana, arial, sans-serif; font-size: 14px; fill: rgb(0, 0, 0); fill-opacity: 1; white-space: pre;">3</text></g><g class="xtick"><text text-anchor="middle" x="0" y="457.8" transform="translate(355.5,0)" style="font-family: 'Open Sans', verdana, arial, sans-serif; font-size: 14px; fill: rgb(0, 0, 0); fill-opacity: 1; white-space: pre;">4</text></g><g class="xtick"><text text-anchor="middle" x="0" y="457.8" transform="translate(429.12,0)" style="font-family: 'Open Sans', verdana, arial, sans-serif; font-size: 14px; fill: rgb(0, 0, 0); fill-opacity: 1; white-space: pre;">5</text></g><g class="xtick"><text text-anchor="middle" x="0" y="457.8" transform="translate(502.75,0)" style="font-family: 'Open Sans', verdana, arial, sans-serif; font-size: 14px; fill: rgb(0, 0, 0); fill-opacity: 1; white-space: pre;">6</text></g><g class="xtick"><text text-anchor="middle" x="0" y="457.8" transform="translate(576.37,0)" style="font-family: 'Open Sans', verdana, arial, sans-serif; font-size: 14px; fill: rgb(0, 0, 0); fill-opacity: 1; white-space: pre;">7</text></g><g class="xtick"><text text-anchor="middle" x="0" y="457.8" transform="translate(650,0)" style="font-family: 'Open Sans', verdana, arial, sans-serif; font-size: 14px; fill: rgb(0, 0, 0); fill-opacity: 1; white-space: pre;">8</text></g></g><g class="yaxislayer-above"><path class="ytick ticks crisp" d="M61,0h5M650,0h-5" transform="translate(0,421.1)" style="stroke: rgb(68, 68, 68); stroke-opacity: 1; stroke-width: 1px;"/><path class="ytick ticks crisp" d="M61,0h5M650,0h-5" transform="translate(0,370.44)" style="stroke: rgb(68, 68, 68); stroke-opacity: 1; stroke-width: 1px;"/><path class="ytick ticks crisp" d="M61,0h5M650,0h-5" transform="translate(0,319.79)" style="stroke: rgb(68, 68, 68); stroke-opacity: 1; stroke-width: 1px;"/><path class="ytick ticks crisp" d="M61,0h5M650,0h-5" transform="translate(0,269.14)" style="stroke: rgb(68, 68, 68); stroke-opacity: 1; stroke-width: 1px;"/><path class="ytick ticks crisp" d="M61,0h5M650,0h-5" transform="translate(0,218.48)" style="stroke: rgb(68, 68, 68); stroke-opacity: 1; stroke-width: 1px;"/><path class="ytick ticks crisp" d="M61,0h5M650,0h-5" transform="translate(0,167.82999999999998)" style="stroke: rgb(68, 68, 68); stroke-opacity: 1; stroke-width: 1px;"/><path class="ytick ticks crisp" d="M61,0h5M650,0h-5" transform="translate(0,117.18)" style="stroke: rgb(68, 68, 68); stroke-opacity: 1; stroke-width: 1px;"/><path class="ytick ticks crisp" d="M61,0h5M650,0h-5" transform="translate(0,66.53)" style="stroke: rgb(68, 68, 68); stroke-opacity: 1; stroke-width: 1px;"/><g class="ytick"><text text-anchor="end" x="57.2" y="4.8999999999999995" transform="translate(0,421.1)" style="font-family: 'Open Sans', verdana, arial, sans-serif; font-size: 14px; fill: rgb(0, 0, 0); fill-opacity: 1; white-space: pre;">0</text></g><g class="ytick"><text text-anchor="end" x="57.2" y="4.8999999999999995" transform="translate(0,370.44)" style="font-family: 'Open Sans', verdana, arial, sans-serif; font-size: 14px; fill: rgb(0, 0, 0); fill-opacity: 1; white-space: pre;">2</text></g><g class="ytick"><text text-anchor="end" x="57.2" y="4.8999999999999995" transform="translate(0,319.79)" style="font-family: 'Open Sans', verdana, arial, sans-serif; font-size: 14px; fill: rgb(0, 0, 0); fill-opacity: 1; white-space: pre;">4</text></g><g class="ytick"><text text-anchor="end" x="57.2" y="4.8999999999999995" transform="translate(0,269.14)" style="font-family: 'Open Sans', verdana, arial, sans-serif; font-size: 14px; fill: rgb(0, 0, 0); fill-opacity: 1; white-space: pre;">6</text></g><g class="ytick"><text text-anchor="end" x="57.2" y="4.8999999999999995" transform="translate(0,218.48)" style="font-family: 'Open Sans', verdana, arial, sans-serif; font-size: 14px; fill: rgb(0, 0, 0); fill-opacity: 1; white-space: pre;">8</text></g><g class="ytick"><text text-anchor="end" x="57.2" y="4.8999999999999995" transform="translate(0,167.82999999999998)" style="font-family: 'Open Sans', verdana, arial, sans-serif; font-size: 14px; fill: rgb(0, 0, 0); fill-opacity: 1; white-space: pre;">10</text></g><g class="ytick"><text text-anchor="end" x="57.2" y="4.8999999999999995" transform="translate(0,117.18)" style="font-family: 'Open Sans', verdana, arial, sans-serif; font-size: 14px; fill: rgb(0, 0, 0); fill-opacity: 1; white-space: pre;">12</text></g><g class="ytick"><text text-anchor="end" x="57.2" y="4.8999999999999995" transform="translate(0,66.53)" style="font-family: 'Open Sans', verdana, arial, sans-serif; font-size: 14px; fill: rgb(0, 0, 0); fill-opacity: 1; white-space: pre;">14</text></g></g><g class="overaxes-above"/></g></g><g class="polarlayer"/><g class="ternarylayer"/><g class="geolayer"/><g class="funnelarealayer"/><g class="pielayer"/><g class="treemaplayer"/><g class="sunburstlayer"/><g class="glimages"/><defs id="topdefs-922cc3"><g class="clips"/></defs><g class="layer-above"><g class="imagelayer"/><g class="shapelayer"/></g><g class="infolayer"><g class="g-gtitle"/><g class="g-xtitle"><text class="xtitle" x="355.5" y="487.7125" text-anchor="middle" style="font-family: 'Open Sans', verdana, arial, sans-serif; font-size: 17px; fill: rgb(0, 0, 0); opacity: 1; font-weight: normal; white-space: pre;">Kristályhossz (mm)</text></g><g class="g-ytitle" transform="translate(4.509765625,0)"><text class="ytitle" transform="rotate(-90,12.490625000000001,250)" x="12.490625000000001" y="250" text-anchor="middle" style="font-family: 'Open Sans', verdana, arial, sans-serif; font-size: 17px; fill: rgb(0, 0, 0); opacity: 1; font-weight: normal; white-space: pre;">Másodharmonikus keltés hatásfoka (%)</text></g></g></svg>