<svg class="main-svg" xmlns="http://www.w3.org/2000/svg" xmlns:xlink="http://www.w3.org/1999/xlink" width="640" height="480" style="" viewBox="0 0 640 480"><rect x="0" y="0" width="640" height="480" style="fill: rgb(255, 255, 255); fill-opacity: 1;"/><defs id="defs-8b0ac3"><g class="clips"><clipPath id="clip8b0ac3xyplot" class="plotclip"><rect width="521" height="360"/></clipPath><clipPath class="axesclip" id="clip8b0ac3x"><rect x="69" y="0" width="521" height="480"/></clipPath><clipPath class="axesclip" id="clip8b0ac3y"><rect x="0" y="60" width="640" height="360"/></clipPath><clipPath class="axesclip" id="clip8b0ac3xy"><rect x="69" y="60" width="521" height="360"/></clipPath></g><g class="gradients"/></defs><g class="bglayer"/><g class="layer-below"><g class="imagelayer"/><g class="shapelayer"/></g><g class="cartesianlayer"><g class="subplot xy"><g class="layer-subplot"><g class="shapelayer"/><g class="imagelayer"/></g><g class="gridlayer"><g class="x"/><g class="y"/></g><g class="zerolinelayer"/><path class="xlines-below"/><path class="ylines-below"/><g class="overlines-below"/><g class="xaxislayer-below"/><g class="yaxislayer-below"/><g class="overaxes-below"/><g class="plot" transform="translate(69,60)" clip-path="url('#clip8b0ac3xyplot')"><g class="scatterlayer mlayer"><g class="trace scatter trace0f5f6f" style="stroke-miterlimit: 2; opacity: 1;"><g class="fills"/><g class="errorbars"/><g class="lines"><path class="js-line" d="M5.21,52.04L10.42,81.97L15.63,157.38L20.84,244.32L26.05,303.89L31.26,309.96L36.47,259.81L46.89,93.91L52.1,52.66L57.31,70.52L62.52,139.24L67.73,227.37L72.94,295.44L78.15,313.66L83.36,274.25L93.78,108.24L98.99,55.92L104.2,61.03L109.41,121.17L119.83,283.92L125.04,313.81L130.25,285.28L135.46,210.78L140.67,123.24L145.88,62.1L151.09,54.33L156.3,104.38L166.72,270.56L171.93,311.86L177.14,295.05L182.35,227.35L187.56,138.49L192.77,68.31L197.98,48.99L203.19,89.03L213.61,255.19L218.82,307.01L224.03,301.58L229.24,242.19L239.66,77.65L244.87,45.48L250.08,74.07L255.29,149.22L260.5,237.6L265.71,299.28L270.92,305.9L276.13,255.31L286.55,87.42L291.76,45.27L296.97,60.64L302.18,128.71L307.39,217.6L312.6,289.08L317.81,308.13L323.02,266.86L333.44,98.36L338.65,45.33L343.86,49.57L349.07,108.28L359.49,275.99L364.7,307L369.91,275.64L375.12,198.45L380.33,110L385.54,47.98L390.75,40.29L395.96,87.9L406.38,257.13L411.59,303.79L416.8,283.64L422.01,212.17L427.22,121L432.43,51.78L437.64,31.95L442.85,68.69L448.06,143.7L453.27,230.62L458.48,297.94L463.69,287.77L468.9,222.11L474.11,132.7L479.32,56.06L484.53,27.13L489.74,51.82L494.95,116.65L505.37,280.94L510.58,290.97L515.79,232.24L521,142.14L526.21,61.91L531.42,21.41L536.63,35.83L541.84,91.22L552.26,246.76L557.47,292.76L562.68,239.57L567.89,152.88L573.1,66.15L578.31,18.79L583.52,21.69L588.73,67.15L599.15,208.96L604.36,284.21L609.57,245.51L614.78,159.37L625.2,15.53L630.41,9.6L635.62,44.63L640.83,103.61L651.25,244.68L656.46,251.18L666.88,75.27L672.09,13.36L677.3,-2.53L682.51,23.74L687.72,75.49L692.93,136.89L698.14,204.74L703.35,252.83L713.77,80.21L718.98,11.8L724.19,-11.61L729.4,4.58L734.61,46.46L739.82,104.4L750.24,233.55L755.45,175.4L765.87,7.9L771.08,-23.61L776.29,-14.51L781.5,23.79L797.13,189.71L802.34,179.85L817.97,-30.67L823.18,-31.98L833.6,38.46L838.81,91.67L849.23,178.44L854.44,84.88L864.86,-43.95L870.07,-49.89L880.49,13.17L885.7,61.68L896.12,167.96L901.33,80.81L911.75,-54.96L916.96,-69.41L922.17,-56.03L927.38,-24L943.01,127.18L948.22,76.74L963.85,-83.18L969.06,-75.43L984.69,29.65L989.9,79.75L995.11,73.61L1000.32,-17.2L1010.74,-109.83L1015.95,-110.27L1026.37,-51.49L1031.58,0.21L1042,70.15L1047.21,-29.51L1062.84,-132.22L1068.05,-113.02L1078.47,-56.1L1083.68,-3.23L1088.89,46.55L1094.1,-41.51L1109.73,-167.85L1114.94,-164.97L1135.78,-6.14L1140.99,-53.2L1156.62,-210.55L1161.83,-196.57L1172.25,-155.54L1177.46,-92.24L1187.88,-64.51L1193.09,-154.07L1208.72,-245.71L1213.93,-245.04L1234.77,-77.03L1239.98,-184.73L1255.61,-319.7L1260.82,-276.45L1266.03,-284.76L1271.24,-217.54L1276.45,-199.17L1281.66,-121.01L1302.5,-380.78L1307.71,-373.5L1318.13,-326.65L1323.34,-255.28L1328.55,-234.75L1333.76,-258.72L1338.97,-324.21L1354.6,-499.9L1359.81,-412.21L1365.02,-439.43L1370.23,-382.53L1375.44,-291.5L1380.65,-309.65L1385.86,-375.16L1406.7,-612.87L1411.91,-456.11L1417.12,-527.4L1422.33,-456.74L1427.54,-363.57L1453.59,-762.79L1458.8,-701.01L1464.01,-533.34L1474.43,-540.43L1479.64,-580.79L1490.06,-905.41L1500.48,-784.78L1505.69,-849.04L1516.11,-598.34L1526.53,-710.11L1531.74,-778.84L1542.16,-1048.71L1547.37,-903.61L1552.58,-821.09L1557.79,-807.16L1563,-707.56L1568.21,-655.74L1573.42,-853.13L1589.05,-1027.46L1594.26,-906.22L1599.47,-823.44L1609.89,-717.96L1615.1,-780.28L1620.31,-972.92L1625.52,-1101.87L1635.94,-978.65L1641.15,-941.56L1651.57,-804.37L1656.78,-824.47L1661.99,-935.09L1677.62,-1184.61L1688.04,-1048.47L1693.25,-991.49L1698.46,-927.72L1703.67,-1022.98L1708.88,-1136.94L1724.51,-1350.63L1729.72,-1281.08L1734.93,-1159.87L1750.56,-978.12L1755.77,-1200.33L1776.61,-1834.2L1797.45,-1579.75L1802.66,-1441.5L1807.87,-1446.02L1813.08,-1596.38L1828.71,-3051.99L1854.76,-2262.98L1859.97,-1988.23L1875.6,-3141.11L1912.07,-2523.2L1917.28,-2377.69L1922.49,-2483.32L1932.91,-2113.07L1938.12,-1951.11L1964.17,-2558.96L1985.01,-2260.51L1990.22,-2100.75L2005.85,-1932.69L2031.9,-2623.84L2042.32,-2309.09L2047.53,-1966.61L2073.58,-2324.55L2078.79,-2440.22L2089.21,-2683.51" style="vector-effect: non-scaling-stroke; fill: none; stroke: rgb(99, 110, 250); stroke-opacity: 1; stroke-width: 2px; opacity: 1;"/></g><g class="points"/><g class="text"/></g></g></g><g class="overplot"/><path class="xlines-above crisp" d="M68,420.5H591M68,59.5H591" style="fill: none; stroke-width: 1px; stroke: rgb(0, 0, 0); stroke-opacity: 1;"/><path class="ylines-above crisp" d="M68.5,60V420M590.5,60V420" style="fill: none; stroke-width: 1px; stroke: rgb(0, 0, 0); stroke-opacity: 1;"/><g class="overlines-above"/><g class="xaxislayer-above"><path class="xtick ticks crisp" d="M0,420v-5M0,60v5" transform="translate(199.25,0)" style="stroke: rgb(68, 68, 68); stroke-opacity: 1; stroke-width: 1px;"/><path class="xtick ticks crisp" d="M0,420v-5M0,60v5" transform="translate(329.5,0)" style="stroke: rgb(68, 68, 68); stroke-opacity: 1; stroke-width: 1px;"/><path class="xtick ticks crisp" d="M0,420v-5M0,60v5" transform="translate(459.75,0)" style="stroke: rgb(68, 68, 68); stroke-opacity: 1; stroke-width: 1px;"/><g class="xtick"><text text-anchor="middle" x="0" y="437.8" transform="translate(69,0)" style="font-family: 'Open Sans', verdana, arial, sans-serif; font-size: 14px; fill: rgb(0, 0, 0); fill-opacity: 1; white-space: pre;">0</text></g><g class="xtick"><text text-anchor="middle" x="0" y="437.8" transform="translate(199.25,0)" style="font-family: 'Open Sans', verdana, arial, sans-serif; font-size: 14px; fill: rgb(0, 0, 0); fill-opacity: 1; white-space: pre;">0.5</text></g><g class="xtick"><text text-anchor="middle" x="0" y="437.8" transform="translate(329.5,0)" style="font-family: 'Open Sans', verdana, arial, sans-serif; font-size: 14px; fill: rgb(0, 0, 0); fill-opacity: 1; white-space: pre;">1</text></g><g class="xtick"><text text-anchor="middle" x="0" y="437.8" transform="translate(459.75,0)" style="font-family: 'Open Sans', verdana, arial, sans-serif; font-size: 14px; fill: rgb(0, 0, 0); fill-opacity: 1; white-space: pre;">1.5</text></g><g class="xtick"><text text-anchor="middle" x="0" y="437.8" transform="translate(590,0)" style="font-family: 'Open Sans', verdana, arial, sans-serif; font-size: 14px; fill: rgb(0, 0, 0); fill-opacity: 1; white-space: pre;">2</text></g></g><g class="yaxislayer-above"><path class="ytick ticks crisp" d="M69,0h5M590,0h-5" transform="translate(0,368.57)" style="stroke: rgb(68, 68, 68); stroke-opacity: 1; stroke-width: 1px;"/><path class="ytick ticks crisp" d="M69,0h5M590,0h-5" transform="translate(0,317.14)" style="stroke: rgb(68, 68, 68); stroke-opacity: 1; stroke-width: 1px;"/><path class="ytick ticks crisp" d="M69,0h5M590,0h-5" transform="translate(0,265.71000000000004)" style="stroke: rgb(68, 68, 68); stroke-opacity: 1; stroke-width: 1px;"/><path class="ytick ticks crisp" d="M69,0h5M590,0h-5" transform="translate(0,214.29)" style="stroke: rgb(68, 68, 68); stroke-opacity: 1; stroke-width: 1px;"/><path class="ytick ticks crisp" d="M69,0h5M590,0h-5" transform="translate(0,162.86)" style="stroke: rgb(68, 68, 68); stroke-opacity: 1; stroke-width: 1px;"/><path class="ytick ticks crisp" d="M69,0h5M590,0h-5" transform="translate(0,111.43)" style="stroke: rgb(68, 68, 68); stroke-opacity: 1; stroke-width: 1px;"/><g class="ytick"><text text-anchor="end" x="65.2" y="4.8999999999999995" transform="translate(0,420)" style="font-family: 'Open Sans', verdana, arial, sans-serif; font-size: 14px; fill: rgb(0, 0, 0); fill-opacity: 1; white-space: pre;">70</text></g><g class="ytick"><text text-anchor="end" x="65.2" y="4.8999999999999995" transform="translate(0,368.57)" style="font-family: 'Open Sans', verdana, arial, sans-serif; font-size: 14px; fill: rgb(0, 0, 0); fill-opacity: 1; white-space: pre;">75</text></g><g class="ytick"><text text-anchor="end" x="65.2" y="4.8999999999999995" transform="translate(0,317.14)" style="font-family: 'Open Sans', verdana, arial, sans-serif; font-size: 14px; fill: rgb(0, 0, 0); fill-opacity: 1; white-space: pre;">80</text></g><g class="ytick"><text text-anchor="end" x="65.2" y="4.8999999999999995" transform="translate(0,265.71000000000004)" style="font-family: 'Open Sans', verdana, arial, sans-serif; font-size: 14px; fill: rgb(0, 0, 0); fill-opacity: 1; white-space: pre;">85</text></g><g class="ytick"><text text-anchor="end" x="65.2" y="4.8999999999999995" transform="translate(0,214.29)" style="font-family: 'Open Sans', verdana, arial, sans-serif; font-size: 14px; fill: rgb(0, 0, 0); fill-opacity: 1; white-space: pre;">90</text></g><g class="ytick"><text text-anchor="end" x="65.2" y="4.8999999999999995" transform="translate(0,162.86)" style="font-family: 'Open Sans', verdana, arial, sans-serif; font-size: 14px; fill: rgb(0, 0, 0); fill-opacity: 1; white-space: pre;">95</text></g><g class="ytick"><text text-anchor="end" x="65.2" y="4.8999999999999995" transform="translate(0,111.43)" style="font-family: 'Open Sans', verdana, arial, sans-serif; font-size: 14px; fill: rgb(0, 0, 0); fill-opacity: 1; white-space: pre;">100</text></g><g class="ytick"><text text-anchor="end" x="65.2" y="4.8999999999999995" transform="translate(0,60)" style="font-family: 'Open Sans', verdana, arial, sans-serif; font-size: 14px; fill: rgb(0, 0, 0); fill-opacity: 1; white-space: pre;">105</text></g></g><g class="overaxes-above"/></g></g><g class="polarlayer"/><g class="ternarylayer"/><g class="geolayer"/><g class="funnelarealayer"/><g class="pielayer"/><g class="treemaplayer"/><g class="sunburstlayer"/><g class="glimages"/><defs id="topdefs-8b0ac3"><g class="clips"/></defs><g class="layer-above"><g class="imagelayer"/><g class="shapelayer"/></g><g class="infolayer"><g class="g-gtitle"/><g class="g-xtitle"><text class="xtitle" x="329.5" y="467.7125" text-anchor="middle" style="font-family: 'Open Sans', verdana, arial, sans-serif; font-size: 17px; fill: rgb(0, 0, 0); opacity: 1; font-weight: normal; white-space: pre;">Kristályhossz (mm)</text></g><g class="g-ytitle" transform="translate(5.416015625,0)"><text class="ytitle" transform="rotate(-90,11.584375000000001,240)" x="11.584375000000001" y="240" text-anchor="middle" style="font-family: 'Open Sans', verdana, arial, sans-serif; font-size: 17px; fill: rgb(0, 0, 0); opacity: 1; font-weight: normal; white-space: pre;">Intenzitás (GW/cm$^{2}$)</text></g></g></svg>