<svg class="main-svg" xmlns="http://www.w3.org/2000/svg" xmlns:xlink="http://www.w3.org/1999/xlink" width="1052" height="454" style=""><rect x="0" y="0" width="1052" height="454" style="fill: rgb(255, 255, 255); fill-opacity: 1;"/><defs id="defs-693a33"><g class="clips"><clipPath id="clip693a33xyplot" class="plotclip"><rect width="812" height="344"/></clipPath><clipPath class="axesclip" id="clip693a33x"><rect x="50" y="0" width="812" height="454"/></clipPath><clipPath class="axesclip" id="clip693a33y"><rect x="0" y="60" width="1052" height="344"/></clipPath><clipPath class="axesclip" id="clip693a33xy"><rect x="50" y="60" width="812" height="344"/></clipPath></g><g class="gradients"/><g class="patterns"/></defs><g class="bglayer"><rect class="bg" x="50" y="60" width="812" height="344" style="fill: rgb(229, 236, 246); fill-opacity: 1; stroke-width: 0;"/></g><g class="layer-below"><g class="imagelayer"/><g class="shapelayer"/></g><g class="cartesianlayer"><g class="subplot xy"><g class="layer-subplot"><g class="shapelayer"/><g class="imagelayer"/></g><g class="gridlayer"><g class="x"><path class="xgrid crisp" transform="translate(212.4,0)" d="M0,60v344" style="stroke: rgb(255, 255, 255); stroke-opacity: 1; stroke-width: 1px;"/><path class="xgrid crisp" transform="translate(374.8,0)" d="M0,60v344" style="stroke: rgb(255, 255, 255); stroke-opacity: 1; stroke-width: 1px;"/><path class="xgrid crisp" transform="translate(537.2,0)" d="M0,60v344" style="stroke: rgb(255, 255, 255); stroke-opacity: 1; stroke-width: 1px;"/><path class="xgrid crisp" transform="translate(699.6,0)" d="M0,60v344" style="stroke: rgb(255, 255, 255); stroke-opacity: 1; stroke-width: 1px;"/></g><g class="y"><path class="ygrid crisp" transform="translate(0,330.55)" d="M50,0h812" style="stroke: rgb(255, 255, 255); stroke-opacity: 1; stroke-width: 1px;"/><path class="ygrid crisp" transform="translate(0,274.31)" d="M50,0h812" style="stroke: rgb(255, 255, 255); stroke-opacity: 1; stroke-width: 1px;"/><path class="ygrid crisp" transform="translate(0,218.06)" d="M50,0h812" style="stroke: rgb(255, 255, 255); stroke-opacity: 1; stroke-width: 1px;"/><path class="ygrid crisp" transform="translate(0,161.81)" d="M50,0h812" style="stroke: rgb(255, 255, 255); stroke-opacity: 1; stroke-width: 1px;"/><path class="ygrid crisp" transform="translate(0,105.56)" d="M50,0h812" style="stroke: rgb(255, 255, 255); stroke-opacity: 1; stroke-width: 1px;"/></g></g><g class="zerolinelayer"><path class="xzl zl crisp" transform="translate(50,0)" d="M0,60v344" style="stroke: rgb(255, 255, 255); stroke-opacity: 1; stroke-width: 2px;"/><path class="yzl zl crisp" transform="translate(0,386.8)" d="M50,0h812" style="stroke: rgb(255, 255, 255); stroke-opacity: 1; stroke-width: 2px;"/></g><path class="xlines-below"/><path class="ylines-below"/><g class="overlines-below"/><g class="xaxislayer-below"/><g class="yaxislayer-below"/><g class="overaxes-below"/><g class="plot" transform="translate(50,60)" clip-path="url(#clip693a33xyplot)"><g class="scatterlayer mlayer"><g class="trace scatter trace64dd02" style="stroke-miterlimit: 2; opacity: 1;"><g class="fills"/><g class="errorbars"/><g class="lines"><path class="js-line" d="M0,326.8L1.62,302.06L3.25,236.28L6.5,72.11L8.12,25.12L9.74,24.32L11.37,69.77L16.24,297.06L17.86,323.03L19.49,301.72L21.11,240.19L24.36,81.13L25.98,33.35L27.61,29.25L29.23,69.52L34.1,284.51L35.73,312.08L37.35,295.77L38.98,241.42L43.85,48.07L45.47,40.39L47.1,73.15L48.72,135.29L51.97,265.79L53.59,294.15L55.22,284.15L56.84,239.96L61.71,68.85L63.34,57.39L64.96,80.55L66.58,130.03L69.83,241.49L71.46,269.73L73.08,267.04L74.7,235.54L79.58,94.75L81.2,79.68L82.82,91.77L84.45,125.95L87.7,212.91L89.32,239.76L90.94,244.6L92.57,227.37L97.44,123.96L99.06,106.26L100.69,106.99L102.31,124.48L107.18,206.01L108.81,217.25L110.43,214.21L112.06,198.94L116.93,135.18L118.55,126.23L120.18,127.7L121.8,138.21L126.67,186.32L128.3,194.81L129.92,195.74L131.54,189.34L136.42,155.75L138.04,150.36L139.66,147.6L141.29,148.5L142.91,153.06L144.54,160.58L149.41,183.37L151.03,184.28L152.66,179.93L154.28,171.02L159.15,140.59L160.78,138.11L162.4,141.7" style="vector-effect: non-scaling-stroke; fill: none; stroke: rgb(99, 110, 250); stroke-opacity: 1; stroke-width: 2px; opacity: 1;"/></g><g class="points"/><g class="text"/></g><g class="trace scatter tracea90bc7" style="stroke-miterlimit: 2; opacity: 1;"><g class="fills"/><g class="errorbars"/><g class="lines"><path class="js-line" d="M0,326.8L0.41,324.71L0.49,323.79L1.38,303.19L1.46,300.41L3.33,206.02L3.41,201.03L6.9,26.65L6.98,25.02L7.71,17.62L8.04,18.65L8.12,19.32L8.93,34.94L9.01,37.35L10.64,111.71L10.72,116.42L14.78,320.09L14.86,321.48L15.51,326.68L15.83,325.27L15.92,324.5L16.81,305.42L16.89,302.77L18.68,215.2L18.76,210.28L22.49,24.68L22.57,23.22L23.22,17.45L23.55,18.56L23.63,19.25L24.44,35.07L24.52,37.5L26.15,112.14L26.23,116.86L30.29,319.94L30.37,321.3L31.02,326.26L31.34,324.73L31.42,323.93L32.24,307.06L32.32,304.53L34.02,223.55L34.1,218.72L38.25,20.34L38.33,19.4L38.73,17.23L39.06,18.5L39.14,19.23L39.95,35.41L40.03,37.88L41.74,117.73L41.82,122.52L45.72,318.04L45.8,319.51L46.45,325.35L46.77,324.26L46.85,323.57L47.66,307.75L47.75,305.32L49.37,230.59L49.45,225.87L53.51,23.42L53.59,22.08L54.24,17.2L54.49,18.12L54.57,18.75L55.38,34.02L55.46,36.39L57.08,110.11L57.16,114.79L61.47,320.85L61.55,321.73L61.96,323.64L62.28,322.16L62.36,321.37L63.25,302.16L63.34,299.51L65.12,212.09L65.2,207.2L68.86,25.77L68.94,24.22L69.67,17.64L69.99,19.02L70.08,19.77L70.97,38.57L71.05,41.19L72.84,127.62L72.92,132.46L76.57,312.72L76.65,314.25L77.38,320.67L77.63,319.83L77.71,319.22L78.52,304.3L78.6,301.96L80.23,229.2L80.31,224.58L84.37,25.27L84.45,23.93L85.1,19.01L85.42,20.48L85.5,21.25L86.4,40.11L86.48,42.71L88.26,128.27L88.35,133.04L92,308.78L92.08,310.21L92.73,315.84L93.06,314.76L93.14,314.08L93.95,298.66L94.03,296.29L95.65,223.85L95.73,219.29L99.96,24.64L100.04,23.77L100.44,21.79L100.77,23.09L100.85,23.81L101.74,41.88L101.82,44.39L103.29,109.26L103.37,113.69L107.43,303.25L107.51,304.44L108.08,308.43L108.4,307.22L108.48,306.52L109.3,291.2L109.38,288.87L111.08,213.86L111.16,209.39L114.98,33.24L115.06,31.9L115.71,26.62L116.03,27.67L116.12,28.32L116.93,42.94L117.01,45.18L118.71,117.63L118.8,121.95L122.61,291.55L122.69,292.79L123.34,297.3L123.67,295.95L123.75,295.23L124.64,277.9L124.72,275.52L126.51,197.72L126.59,193.41L130.08,41.96L130.16,40.56L130.89,34.33L131.22,35.32L131.3,35.93L132.11,49.63L132.19,51.73L133.9,119.23L133.98,123.24L137.72,275.65L137.8,276.79L138.45,280.9L138.77,279.62L138.85,278.96L139.75,262.95L139.83,260.75L141.69,185.75L141.78,181.81L145.1,52.89L145.19,51.63L145.92,46.11L146.24,47.04L146.32,47.6L147.13,60.02L147.22,61.91L148.92,122.07L149,125.61L152.57,252.59L152.66,253.61L153.31,257.39L153.63,256.36L153.71,255.8L154.6,242.06L154.69,240.16L156.55,175.91L156.63,172.56L160.13,65.09L160.21,64.42L160.69,62.7L161.02,63.78L161.1,64.32L161.99,77.08L162.08,78.82L164.02,139.56L164.11,142.52L167.03,223.62L167.11,224.5L167.76,227.92L168.08,227.21L168.17,226.78L168.98,217.31L169.06,215.87L170.84,168.23L170.93,165.61L174.17,83.3L174.26,82.56L174.9,79.87L175.23,80.7L175.31,81.13L176.2,91.4L176.29,92.8L178.32,143.76L178.4,146.1L181.08,202.4L181.16,203L181.73,204.89L182.05,204.1L182.13,203.7L183.02,193.98L183.11,192.66L185.14,144.18L185.22,141.95L187.9,86.94L187.98,86.3L188.63,84L188.87,84.48L188.95,84.8L189.76,92.33L189.85,93.49L191.55,130.67L191.63,132.85L194.88,201.99L194.96,202.57L195.53,204.29L195.85,203.45L195.94,203.03L196.83,193.28L196.91,191.95L198.86,145.15L198.94,142.86L201.86,79.91L201.94,79.25L202.59,76.86L202.92,77.64L203,78.04L203.89,87.66L203.97,88.98L205.44,122.59L205.52,124.86L209.17,210.11L209.25,210.76L209.9,213.06L210.15,212.57L210.23,212.25L211.04,204.7L211.12,203.54L212.83,166.34L212.91,164.15L216.48,85.41L216.56,84.77L217.21,82.26L217.53,82.81L217.62,83.14L218.43,90.33L218.51,91.42L220.21,126.48L220.3,128.56L224.11,209.65L224.19,210.28L224.92,212.86L225.17,212.51L225.25,212.27L226.06,206.35L226.14,205.44L227.85,176.01L227.93,174.28L231.74,106.52L231.83,105.97L232.64,103.4L232.88,103.69L232.96,103.89L233.77,108.71L233.86,109.46L235.56,133.96L235.64,135.44L239.86,202.15L239.95,202.67L240.92,205.59L241.08,205.48L241.16,205.36L241.81,202.97L241.89,202.5L243.11,191.49L243.19,190.54L245.71,154.96L245.79,153.81L248.39,127.31L248.47,126.93L249.37,124.86L249.61,125L249.69,125.11L250.5,128.03L250.58,128.5L252.13,142.52L252.21,143.48L257.65,206.04L257.73,206.32L258.46,207.36L258.7,207.12L258.78,206.97L259.6,203.71L259.68,203.21L261.22,188.67L261.3,187.68L266.25,131.26L266.34,130.99L266.99,130.16L267.23,130.46L267.31,130.63L268.2,134.94L268.28,135.54L269.67,150.35L269.75,151.45L274.7,214.08L274.78,214.39L275.43,215.46L275.76,215.08L275.84,214.88L276.73,210.34L276.81,209.72L278.6,189.23L278.68,188.08L282.74,139.28L282.82,138.9L283.71,136.99L283.96,137.2L284.04,137.35L284.85,140.61L284.93,141.12L286.64,157.46L286.72,158.45L291.02,204.01L291.1,204.35L292.08,206.26L292.24,206.17L292.32,206.09L293.21,203.44L293.29,203.05L294.67,193.42L294.76,192.71L299.71,153.85L299.79,153.62L300.85,152.47L301.01,152.57L301.09,152.65L302.15,155.17L302.23,155.47L304.26,165.87L304.34,166.35L307.59,181.87L307.67,182.08L309.13,183.86L309.21,183.85L310.27,182.84L310.35,182.7L312.3,177.47L312.38,177.21L315.95,167.65L316.03,167.55L317.57,166.94L317.65,166.97L319.12,168.59L319.2,168.73L323.66,175.48L323.74,175.49L325.04,174.84L325.12,174.75L326.99,171.43L327.07,171.25L330.08,166.26L330.16,166.24L331.21,166.72L331.3,166.83L332.68,170.2L332.76,170.49L335.11,182.17L335.19,182.64L338.77,199.7L338.85,199.88L340.15,200.95L340.23,200.89L341.28,198.96L341.36,198.72L342.91,192.24L342.99,191.82L347.05,174.03L347.13,173.92L348.02,173.71L348.1,173.79L348.19,173.88L349.32,176.82L349.4,177.14L351.35,188.18L351.43,188.74L355.33,210.97L355.41,211.17L356.63,212.31L356.71,212.26L356.79,212.2L357.85,210.1L357.93,209.85L360.04,200.53L360.12,200.11L363.13,188.47L363.21,188.33L364.43,187.62L364.51,187.67L365.64,189.37L365.72,189.56L367.67,195.62L367.75,195.9L370.68,202.87L370.76,202.93L371.98,202.8L372.06,202.73L373.76,199.87L373.84,199.69L377.34,193.95L377.42,193.94L378.64,194.47L378.72,194.56L380.75,198.09L380.83,198.26L383.43,202.08L383.51,202.11L384.73,201.74L384.81,201.66L386.51,198.69L386.59,198.51L389.76,192.89L389.84,192.86L390.9,193.33L390.98,193.43L392.44,196.76L392.52,197.02L397.15,210.85L397.23,210.87L398.12,210.29L398.2,210.16L399.34,207.13L399.42,206.84L403.97,190.96L404.05,190.96L404.86,191.91L404.94,192.11L406.08,196.63L406.16,197.07L409,217.72L409.09,218.32L411.28,228.92L411.36,229.04L412.01,229.14L412.17,228.92L412.25,228.78L413.31,224.79L413.39,224.33L415.5,207.32L415.58,206.57L418.42,186.95L418.5,186.74L419.15,186.09L419.48,186.44L419.56,186.6L420.53,190.6L420.62,191.1L422.48,207.79L422.56,208.66L426.14,237.63L426.22,237.79L426.71,238.13L427.03,237.73L427.11,237.55L428.09,233.12L428.17,232.57L430.2,212.57L430.28,211.62L433.45,182.96L433.53,182.66L434.34,181.32L434.58,181.51L434.66,181.64L435.48,184.49L435.56,184.93L437.26,198.99L437.34,199.82L441,231.26L441.08,231.53L441.89,232.74L442.13,232.56L442.22,232.44L443.11,229.39L443.19,228.96L444.98,214.87L445.06,214.09L448.71,185.18L448.79,184.92L449.69,183.76L449.85,183.87L449.93,183.96L450.9,186.86L450.98,187.24L452.53,197.57L452.61,198.23L456.59,225.62L456.67,225.84L457.64,226.92L457.81,226.82L457.89,226.75L458.86,224.42L458.94,224.12L460.81,214.02L460.89,213.49L464.46,194.8L464.55,194.61L465.68,193.6L465.76,193.64L465.84,193.69L466.82,195.4L466.9,195.63L468.85,203.79L468.93,204.21L473.15,222.47L473.23,222.64L474.78,224.25L474.86,224.25L476.08,223.3L476.16,223.18L478.35,218.21L478.43,217.98L482.65,208.48L482.73,208.41L484.28,208.16L484.36,208.2L485.82,210.16L485.9,210.33L488.17,216.87L488.26,217.15L492.64,230.31L492.72,230.41L494.1,230.9L494.18,230.85L495.4,229.13L495.48,228.95L497.76,222L497.84,221.72L500.84,213.91L500.92,213.83L502.06,213.81L502.14,213.89L503.44,216.46L503.52,216.7L505.96,226.68L506.04,227.05L508.96,237.03L509.04,237.14L510.18,237.42L510.26,237.34L511.4,235.06L511.48,234.81L513.67,225.26L513.75,224.84L516.92,212.39L517,212.25L518.06,211.71L518.14,211.77L518.22,211.83L519.36,214.1L519.44,214.36L521.47,223.4L521.55,223.82L524.96,238.06L525.04,238.2L526.18,238.77L526.26,238.71L526.34,238.64L527.48,236.27L527.56,236.01L529.75,226.02L529.83,225.59L533.24,210.93L533.32,210.76L534.7,209.56L534.78,209.59L535.92,211.07L536,211.25L538.03,217.59L538.11,217.89L541.77,229.15L541.85,229.28L543.47,230.51L543.55,230.5L544.85,229.5L544.93,229.39L546.96,225.27L547.04,225.06L553.7,210.03L553.78,209.97L555.25,209.94L555.33,210L556.79,212.23L556.87,212.42L559.14,219.68L559.22,219.99L563.12,231.18L563.2,231.24L564.26,231L564.34,230.9L565.64,227.93L565.72,227.66L568.32,215.89L568.4,215.49L571.08,206.04L571.16,205.93L572.22,205.78L572.3,205.87L573.43,208.51L573.52,208.8L575.55,218.8L575.63,219.27L578.87,234.11L578.96,234.27L580.01,234.95L580.09,234.89L580.17,234.82L581.23,232.52L581.31,232.24L583.26,222.52L583.34,222.03L586.91,204.66L586.99,204.5L588.05,203.91L588.13,203.97L588.21,204.05L589.27,206.51L589.35,206.8L591.3,216.86L591.38,217.36L594.95,235.29L595.03,235.46L596.09,236.25L596.17,236.19L596.25,236.13L597.31,233.88L597.39,233.61L599.34,223.87L599.42,223.38L603.23,204.14L603.32,203.97L604.45,203.16L604.53,203.22L604.62,203.29L605.67,205.52L605.75,205.78L607.78,215.6L607.86,216.07L611.52,233.58L611.6,233.75L612.74,234.7L612.82,234.66L612.9,234.61L613.95,232.69L614.03,232.46L615.58,226.08L615.66,225.67L620.04,206.47L620.12,206.35L621.26,206.02L621.34,206.09L622.48,208.46L622.56,208.71L624.92,219.29L625,219.71L628.16,232.3L628.24,232.44L629.54,233.12L629.62,233.06L630.76,231.06L630.84,230.84L633.12,222.09L633.2,221.74L636.2,211.65L636.28,211.53L637.58,211.05L637.66,211.12L638.8,213.06L638.88,213.27L641.24,221.89L641.32,222.23L644.32,231.92L644.4,232.04L645.78,232.71L645.86,232.66L647.08,230.88L647.16,230.7L649.03,225.04L649.11,224.75L652.6,215.14L652.69,215.04L653.98,214.63L654.07,214.67L655.37,216.37L655.45,216.54L657.72,222.72L657.8,222.96L660.97,230.46L661.05,230.56L662.59,231.17L662.67,231.14L664.13,229.67L664.22,229.54L667.63,222.58L667.71,222.42L670.14,219.34L670.22,219.31L671.77,219.46L671.85,219.51L673.88,221.95L673.96,222.08L679.48,230.39L679.56,230.44L681.51,230.56L681.59,230.52L683.7,228.73L683.79,228.63L688.98,223.46L689.06,223.44L691.01,223.83L691.09,223.88L693.53,226.18L693.61,226.27L697.26,229.52L697.35,229.54L699.21,229.37L699.29,229.32L701.41,227.37L701.49,227.27L707.33,220.83L707.41,220.81L709.61,220.93L709.69,220.96L715.86,223.45L715.94,223.42L718.13,221.84L718.21,221.75L724.79,214.79L724.87,214.79L726.58,215.5L726.66,215.56L729.34,219.08L729.42,219.2L732.51,222.84L732.59,222.87L734.13,222.67L734.21,222.61L736.08,220.14L736.16,219.99L741.44,211.11L741.52,211.08L743.06,211.43L743.14,211.5L744.77,213.97L744.85,214.15L749.8,224.21L749.88,224.21L751.26,223.39L751.34,223.3L753.13,219.91L753.21,219.71L757.51,210.86L757.6,210.82L758.73,211.19L758.81,211.26L760.03,213.24L760.11,213.43L765.72,226.97L765.8,227L766.93,226.51L767.02,226.41L768.56,222.95L768.64,222.71L773.43,209.49L773.51,209.43L774.57,209.67L774.65,209.76L776.11,212.83L776.19,213.08L781.63,229.93L781.71,229.96L782.69,229.49L782.77,229.38L784.23,225.68L784.31,225.39L789.59,207.13L789.67,207.09L790.64,207.42L790.73,207.53L792.19,211.19L792.27,211.48L797.47,229.83L797.55,229.88L798.52,229.56L798.6,229.46L799.98,226.03L800.06,225.74L805.34,207.13L805.42,207.09L806.4,207.53L806.48,207.65L807.86,211.26L807.94,211.56L812,228.2" style="vector-effect: non-scaling-stroke; fill: none; stroke: rgb(239, 85, 59); stroke-opacity: 1; stroke-width: 2px; opacity: 1;"/></g><g class="points"/><g class="text"/></g></g></g><g class="overplot"/><path class="xlines-above crisp" d="M0,0" style="fill: none;"/><path class="ylines-above crisp" d="M0,0" style="fill: none;"/><g class="overlines-above"/><g class="xaxislayer-above"><g class="xtick"><text text-anchor="middle" x="0" y="417" transform="translate(50,0)" style="font-family: 'Open Sans', verdana, arial, sans-serif; font-size: 12px; fill: rgb(42, 63, 95); fill-opacity: 1; white-space: pre; opacity: 1;">0</text></g><g class="xtick"><text text-anchor="middle" x="0" y="417" style="font-family: 'Open Sans', verdana, arial, sans-serif; font-size: 12px; fill: rgb(42, 63, 95); fill-opacity: 1; white-space: pre; opacity: 1;" transform="translate(212.4,0)">0.002</text></g><g class="xtick"><text text-anchor="middle" x="0" y="417" style="font-family: 'Open Sans', verdana, arial, sans-serif; font-size: 12px; fill: rgb(42, 63, 95); fill-opacity: 1; white-space: pre; opacity: 1;" transform="translate(374.8,0)">0.004</text></g><g class="xtick"><text text-anchor="middle" x="0" y="417" style="font-family: 'Open Sans', verdana, arial, sans-serif; font-size: 12px; fill: rgb(42, 63, 95); fill-opacity: 1; white-space: pre; opacity: 1;" transform="translate(537.2,0)">0.006</text></g><g class="xtick"><text text-anchor="middle" x="0" y="417" style="font-family: 'Open Sans', verdana, arial, sans-serif; font-size: 12px; fill: rgb(42, 63, 95); fill-opacity: 1; white-space: pre; opacity: 1;" transform="translate(699.6,0)">0.008</text></g><g class="xtick"><text text-anchor="middle" x="0" y="417" style="font-family: 'Open Sans', verdana, arial, sans-serif; font-size: 12px; fill: rgb(42, 63, 95); fill-opacity: 1; white-space: pre; opacity: 1;" transform="translate(862,0)">0.01</text></g></g><g class="yaxislayer-above"><g class="ytick"><text text-anchor="end" x="49" y="4.199999999999999" transform="translate(0,386.8)" style="font-family: 'Open Sans', verdana, arial, sans-serif; font-size: 12px; fill: rgb(42, 63, 95); fill-opacity: 1; white-space: pre; opacity: 1;">0</text></g><g class="ytick"><text text-anchor="end" x="49" y="4.199999999999999" style="font-family: 'Open Sans', verdana, arial, sans-serif; font-size: 12px; fill: rgb(42, 63, 95); fill-opacity: 1; white-space: pre; opacity: 1;" transform="translate(0,330.55)">2</text></g><g class="ytick"><text text-anchor="end" x="49" y="4.199999999999999" style="font-family: 'Open Sans', verdana, arial, sans-serif; font-size: 12px; fill: rgb(42, 63, 95); fill-opacity: 1; white-space: pre; opacity: 1;" transform="translate(0,274.31)">4</text></g><g class="ytick"><text text-anchor="end" x="49" y="4.199999999999999" style="font-family: 'Open Sans', verdana, arial, sans-serif; font-size: 12px; fill: rgb(42, 63, 95); fill-opacity: 1; white-space: pre; opacity: 1;" transform="translate(0,218.06)">6</text></g><g class="ytick"><text text-anchor="end" x="49" y="4.199999999999999" style="font-family: 'Open Sans', verdana, arial, sans-serif; font-size: 12px; fill: rgb(42, 63, 95); fill-opacity: 1; white-space: pre; opacity: 1;" transform="translate(0,161.81)">8</text></g><g class="ytick"><text text-anchor="end" x="49" y="4.199999999999999" style="font-family: 'Open Sans', verdana, arial, sans-serif; font-size: 12px; fill: rgb(42, 63, 95); fill-opacity: 1; white-space: pre; opacity: 1;" transform="translate(0,105.56)">10</text></g></g><g class="overaxes-above"/></g></g><g class="polarlayer"/><g class="ternarylayer"/><g class="geolayer"/><g class="funnelarealayer"/><g class="pielayer"/><g class="iciclelayer"/><g class="treemaplayer"/><g class="sunburstlayer"/><g class="glimages"/><defs id="topdefs-693a33"><g class="clips"/><clipPath id="legend693a33"><rect width="162" height="48" x="0" y="0"/></clipPath></defs><g class="layer-above"><g class="imagelayer"/><g class="shapelayer"/></g><g class="infolayer"><g class="legend" pointer-events="all" transform="translate(878.24,60)"><rect class="bg" shape-rendering="crispEdges" width="162" height="48" x="0" y="0" style="stroke: rgb(68, 68, 68); stroke-opacity: 1; fill: rgb(255, 255, 255); fill-opacity: 1; stroke-width: 0px;"/><g class="scrollbox" transform="" clip-path="url(#legend693a33)"><g class="groups"><g class="traces" transform="translate(0,14.5)" style="opacity: 1;"><text class="legendtext" text-anchor="start" x="40" y="4.680000000000001" style="font-family: 'Open Sans', verdana, arial, sans-serif; font-size: 12px; fill: rgb(42, 63, 95); fill-opacity: 1; white-space: pre;">2D-s SHG hatásfok</text><g class="layers" style="opacity: 1;"><g class="legendfill"/><g class="legendlines"><path class="js-line" d="M5,0h30" style="fill: none; stroke: rgb(99, 110, 250); stroke-opacity: 1; stroke-width: 2px;"/></g><g class="legendsymbols"><g class="legendpoints"/></g></g><rect class="legendtoggle" x="0" y="-9.5" width="156.029296875" height="19" style="fill: rgb(0, 0, 0); fill-opacity: 0;"/></g><g class="traces" transform="translate(0,33.5)" style="opacity: 1;"><text class="legendtext" text-anchor="start" x="40" y="4.680000000000001" style="font-family: 'Open Sans', verdana, arial, sans-serif; font-size: 12px; fill: rgb(42, 63, 95); fill-opacity: 1; white-space: pre;">1D-s SHG hatásfok</text><g class="layers" style="opacity: 1;"><g class="legendfill"/><g class="legendlines"><path class="js-line" d="M5,0h30" style="fill: none; stroke: rgb(239, 85, 59); stroke-opacity: 1; stroke-width: 2px;"/></g><g class="legendsymbols"><g class="legendpoints"/></g></g><rect class="legendtoggle" x="0" y="-9.5" width="156.029296875" height="19" style="fill: rgb(0, 0, 0); fill-opacity: 0;"/></g></g></g><rect class="scrollbar" rx="20" ry="3" width="0" height="0" x="0" y="0" style="fill: rgb(128, 139, 164); fill-opacity: 1;"/></g><g class="g-gtitle"/><g class="g-xtitle"/><g class="g-ytitle"/></g></svg>