<?xml version="1.0" encoding="UTF-8" standalone="no"?>
<svg
   class="main-svg"
   width="597.19861"
   height="412.13242"
   viewBox="0 0 597.19861 412.13242"
   version="1.1"
   id="svg106"
   sodipodi:docname="waveform2D-mult.svg"
   inkscape:version="1.3 (0e150ed6c4, 2023-07-21)"
   xmlns:inkscape="http://www.inkscape.org/namespaces/inkscape"
   xmlns:sodipodi="http://sodipodi.sourceforge.net/DTD/sodipodi-0.dtd"
   xmlns="http://www.w3.org/2000/svg"
   xmlns:svg="http://www.w3.org/2000/svg">
  <sodipodi:namedview
     id="namedview106"
     pagecolor="#ffffff"
     bordercolor="#000000"
     borderopacity="0.25"
     inkscape:showpageshadow="2"
     inkscape:pageopacity="0.0"
     inkscape:pagecheckerboard="0"
     inkscape:deskcolor="#d1d1d1"
     inkscape:zoom="1.775"
     inkscape:cx="316.05634"
     inkscape:cy="180.84507"
     inkscape:window-width="1920"
     inkscape:window-height="1056"
     inkscape:window-x="0"
     inkscape:window-y="0"
     inkscape:window-maximized="1"
     inkscape:current-layer="g106" />
  <defs
     id="defs-940a53">
    <g
       class="clips"
       id="g5">
      <clipPath
         id="clip940a53xyplot"
         class="plotclip">
        <rect
           width="509"
           height="360"
           id="rect2"
           x="0"
           y="0" />
      </clipPath>
      <clipPath
         class="axesclip"
         id="clip940a53x">
        <rect
           x="81"
           y="0"
           width="509"
           height="480"
           id="rect3" />
      </clipPath>
      <clipPath
         class="axesclip"
         id="clip940a53y">
        <rect
           x="0"
           y="60"
           width="640"
           height="360"
           id="rect4" />
      </clipPath>
      <clipPath
         class="axesclip"
         id="clip940a53xy">
        <rect
           x="81"
           y="60"
           width="509"
           height="360"
           id="rect5" />
      </clipPath>
    </g>
    <g
       class="gradients"
       id="g6" />
  </defs>
  <g
     class="bglayer"
     id="g7"
     transform="translate(-4.0013672,-59)" />
  <g
     class="layer-below"
     id="g10"
     transform="translate(-4.0013672,-59)">
    <g
       class="imagelayer"
       id="g8" />
    <g
       class="shapelayer"
       id="g9" />
  </g>
  <g
     class="cartesianlayer"
     id="g69"
     transform="translate(-4.0013672,-59)">
    <g
       class="subplot xy"
       id="g68">
      <g
         class="layer-subplot"
         id="g13">
        <g
           class="shapelayer"
           id="g11" />
        <g
           class="imagelayer"
           id="g12" />
      </g>
      <g
         class="gridlayer"
         id="g16">
        <g
           class="x"
           id="g14" />
        <g
           class="y"
           id="g15" />
      </g>
      <g
         class="zerolinelayer"
         id="g17" />
      <path
         class="xlines-below"
         id="path17"
         d="" />
      <path
         class="ylines-below"
         id="path18"
         d="" />
      <g
         class="overlines-below"
         id="g18" />
      <g
         class="xaxislayer-below"
         id="g19" />
      <g
         class="yaxislayer-below"
         id="g20" />
      <g
         class="overaxes-below"
         id="g21" />
      <g
         class="plot"
         transform="translate(81,60)"
         clip-path="url(#clip940a53xyplot)"
         id="g41">
        <g
           class="scatterlayer mlayer"
           id="g40">
          <g
             class="trace scatter tracef4e0f2"
             style="opacity:1;stroke-miterlimit:2"
             id="g27">
            <g
               class="fills"
               id="g22" />
            <g
               class="errorbars"
               id="g23" />
            <g
               class="lines"
               id="g24">
              <path
                 class="js-line"
                 d="m -1781.5,174.68 1870.81,0.75 3.98,0.22 15.92,1.92 3.98,0.9 7.96,2.59 3.99,1.82 7.96,5.03 3.98,3.37 7.96,8.81 3.98,5.58 7.96,13.78 3.98,8.22 7.96,18.91 3.98,10.49 19.9,54.73 3.98,9.35 7.96,14.39 3.98,4.37 3.99,2.09 3.98,-0.49 3.98,-3.33 3.98,-6.38 3.98,-9.58 3.98,-12.85 7.96,-35.11 3.98,-21.7 11.94,-74.69 3.98,-25.52 7.96,-47.89 3.98,-21.32 7.96,-34.55 3.98,-12.25 3.98,-8.81 3.98,-5.69 3.98,-3.05 3.99,-0.79 3.98,1.22 3.98,3.05 3.98,4.75 3.98,6.26 7.96,16.16 3.98,9.36 23.88,58.02 3.98,8.19 7.96,14.18 3.98,5.95 7.96,9.71 3.98,3.83 7.97,5.91 3.98,2.2 7.96,3.21 3.98,1.14 11.94,2.1 3.98,0.39 19.9,0.89 3.98,0.06 1846.93,0.1"
                 style="opacity:1;vector-effect:non-scaling-stroke;fill:none;stroke:#636efa;stroke-width:2px;stroke-opacity:1"
                 id="path23" />
            </g>
            <g
               class="points"
               id="g25" />
            <g
               class="text"
               id="g26" />
          </g>
          <g
             class="trace scatter trace92f066"
             style="opacity:1;stroke-miterlimit:2"
             id="g33">
            <g
               class="fills"
               id="g28" />
            <g
               class="errorbars"
               id="g29" />
            <g
               class="lines"
               id="g30">
              <path
                 class="js-line"
                 d="m -1781.5,174.76 1874.79,0.68 3.98,0.23 15.92,1.9 3.98,0.86 7.97,2.47 3.98,1.69 7.96,4.61 3.98,3.02 7.96,7.77 3.98,4.83 7.96,11.65 3.98,6.8 11.94,23.53 3.98,8.47 11.94,24.54 3.98,7.07 7.96,10.84 3.98,3.24 3.99,1.45 3.98,-0.54 3.98,-2.71 3.98,-4.97 3.98,-7.32 3.98,-9.63 7.96,-25.82 3.98,-15.77 11.94,-54.56 3.98,-19.02 11.94,-52.15 3.98,-14.22 7.96,-22.16 3.98,-7.8 3.98,-5.64 3.98,-3.55 3.99,-1.53 3.98,0.35 3.98,2.08 3.98,3.62 7.96,10.98 3.98,6.89 15.92,31.32 3.98,7.75 11.94,20.73 3.98,5.82 7.96,9.79 3.98,4 7.96,6.36 3.98,2.45 7.97,3.67 3.98,1.34 11.94,2.57 3.98,0.51 15.92,1.07 3.98,0.11 43.78,0.29 h 3.99 l 1811.1,0.04"
                 style="opacity:1;vector-effect:non-scaling-stroke;fill:none;stroke:#ef553b;stroke-width:2px;stroke-opacity:1"
                 id="path29" />
            </g>
            <g
               class="points"
               id="g31" />
            <g
               class="text"
               id="g32" />
          </g>
          <g
             class="trace scatter trace2a5833"
             style="opacity:1;stroke-miterlimit:2"
             id="g39">
            <g
               class="fills"
               id="g34" />
            <g
               class="errorbars"
               id="g35" />
            <g
               class="lines"
               id="g36">
              <path
                 class="js-line"
                 d="m -1781.5,174.75 1874.79,0.6 3.98,0.22 15.92,1.77 3.98,0.81 7.97,2.31 3.98,1.6 7.96,4.34 3.98,2.86 7.96,7.37 3.98,4.59 7.96,11.13 3.98,6.52 11.94,22.74 3.98,8.27 11.94,24.39 3.98,7.2 7.96,11.39 3.98,3.65 3.99,1.95 3.98,0.02 3.98,-2.11 3.98,-4.43 3.98,-6.84 3.98,-9.32 7.96,-25.79 3.98,-16.05 11.94,-55.66 3.98,-19.23 7.96,-36.32 3.98,-16.11 7.96,-25.85 3.98,-9.19 3.98,-6.69 3.98,-4.42 3.98,-2.4 3.99,-0.62 3.98,0.98 3.98,2.44 3.98,3.75 3.98,4.9 7.96,12.44 3.98,7.12 23.88,43.23 3.98,6.03 7.96,10.41 3.98,4.36 7.96,7.11 3.98,2.8 7.97,4.32 3.98,1.61 11.94,3.18 3.98,0.65 15.92,1.4 3.98,0.16 35.82,0.4 h 3.98 l 1823.05,0.01"
                 style="opacity:1;vector-effect:non-scaling-stroke;fill:none;stroke:#00cc96;stroke-width:2px;stroke-opacity:1"
                 id="path35" />
            </g>
            <g
               class="points"
               id="g37" />
            <g
               class="text"
               id="g38" />
          </g>
        </g>
      </g>
      <g
         class="overplot"
         id="g42" />
      <path
         class="xlines-above crisp"
         d="M 80,420.5 H 591 M 80,59.5 h 511"
         style="fill:none;stroke:#000000;stroke-width:1px;stroke-opacity:1"
         id="path42" />
      <path
         class="ylines-above crisp"
         d="M 80.5,60 V 420 M 590.5,60 V 420"
         style="fill:none;stroke:#000000;stroke-width:1px;stroke-opacity:1"
         id="path43" />
      <g
         class="overlines-above"
         id="g43" />
      <g
         class="xaxislayer-above"
         id="g53">
        <path
           class="xtick ticks crisp"
           d="m 0,420 v -5 M 0,60 v 5"
           transform="translate(131.9)"
           style="stroke:#444444;stroke-width:1px;stroke-opacity:1"
           id="path44" />
        <path
           class="xtick ticks crisp"
           d="m 0,420 v -5 M 0,60 v 5"
           transform="translate(233.7)"
           style="stroke:#444444;stroke-width:1px;stroke-opacity:1"
           id="path45" />
        <path
           class="xtick ticks crisp"
           d="m 0,420 v -5 M 0,60 v 5"
           transform="translate(335.5)"
           style="stroke:#444444;stroke-width:1px;stroke-opacity:1"
           id="path46" />
        <path
           class="xtick ticks crisp"
           d="m 0,420 v -5 M 0,60 v 5"
           transform="translate(437.3)"
           style="stroke:#444444;stroke-width:1px;stroke-opacity:1"
           id="path47" />
        <path
           class="xtick ticks crisp"
           d="m 0,420 v -5 M 0,60 v 5"
           transform="translate(539.1)"
           style="stroke:#444444;stroke-width:1px;stroke-opacity:1"
           id="path48" />
        <g
           class="xtick"
           id="g48">
          <text
             text-anchor="middle"
             x="0"
             y="437.79999"
             transform="translate(131.9)"
             style="font-size:14px;font-family:'Open Sans', verdana, arial, sans-serif;white-space:pre;fill:#000000;fill-opacity:1"
             id="text48">−4</text>
        </g>
        <g
           class="xtick"
           id="g49">
          <text
             text-anchor="middle"
             x="0"
             y="437.79999"
             transform="translate(233.7)"
             style="font-size:14px;font-family:'Open Sans', verdana, arial, sans-serif;white-space:pre;fill:#000000;fill-opacity:1"
             id="text49">−2</text>
        </g>
        <g
           class="xtick"
           id="g50">
          <text
             text-anchor="middle"
             x="0"
             y="437.79999"
             transform="translate(335.5)"
             style="font-size:14px;font-family:'Open Sans', verdana, arial, sans-serif;white-space:pre;fill:#000000;fill-opacity:1"
             id="text50">0</text>
        </g>
        <g
           class="xtick"
           id="g51">
          <text
             text-anchor="middle"
             x="0"
             y="437.79999"
             transform="translate(437.3)"
             style="font-size:14px;font-family:'Open Sans', verdana, arial, sans-serif;white-space:pre;fill:#000000;fill-opacity:1"
             id="text51">2</text>
        </g>
        <g
           class="xtick"
           id="g52">
          <text
             text-anchor="middle"
             x="0"
             y="437.79999"
             transform="translate(539.1)"
             style="font-size:14px;font-family:'Open Sans', verdana, arial, sans-serif;white-space:pre;fill:#000000;fill-opacity:1"
             id="text52">4</text>
        </g>
      </g>
      <g
         class="yaxislayer-above"
         id="g66">
        <path
           class="ytick ticks crisp"
           d="m 81,0 h 5 m 504,0 h -5"
           transform="translate(0,402.39)"
           style="stroke:#444444;stroke-width:1px;stroke-opacity:1"
           id="path53" />
        <path
           class="ytick ticks crisp"
           d="m 81,0 h 5 m 504,0 h -5"
           transform="translate(0,346.53)"
           style="stroke:#444444;stroke-width:1px;stroke-opacity:1"
           id="path54" />
        <path
           class="ytick ticks crisp"
           d="m 81,0 h 5 m 504,0 h -5"
           transform="translate(0,290.66)"
           style="stroke:#444444;stroke-width:1px;stroke-opacity:1"
           id="path55" />
        <path
           class="ytick ticks crisp"
           d="m 81,0 h 5 m 504,0 h -5"
           transform="translate(0,234.79)"
           style="stroke:#444444;stroke-width:1px;stroke-opacity:1"
           id="path56" />
        <path
           class="ytick ticks crisp"
           d="m 81,0 h 5 m 504,0 h -5"
           transform="translate(0,178.92)"
           style="stroke:#444444;stroke-width:1px;stroke-opacity:1"
           id="path57" />
        <path
           class="ytick ticks crisp"
           d="m 81,0 h 5 m 504,0 h -5"
           transform="translate(0,123.05)"
           style="stroke:#444444;stroke-width:1px;stroke-opacity:1"
           id="path58" />
        <path
           class="ytick ticks crisp"
           d="m 81,0 h 5 m 504,0 h -5"
           transform="translate(0,67.18)"
           style="stroke:#444444;stroke-width:1px;stroke-opacity:1"
           id="path59" />
        <g
           class="ytick"
           id="g59">
          <text
             text-anchor="end"
             x="77.199997"
             y="4.9000001"
             transform="translate(0,402.39)"
             style="font-size:14px;font-family:'Open Sans', verdana, arial, sans-serif;white-space:pre;fill:#000000;fill-opacity:1"
             id="text59">−300</text>
        </g>
        <g
           class="ytick"
           id="g60">
          <text
             text-anchor="end"
             x="77.199997"
             y="4.9000001"
             transform="translate(0,346.53)"
             style="font-size:14px;font-family:'Open Sans', verdana, arial, sans-serif;white-space:pre;fill:#000000;fill-opacity:1"
             id="text60">−200</text>
        </g>
        <g
           class="ytick"
           id="g61">
          <text
             text-anchor="end"
             x="77.199997"
             y="4.9000001"
             transform="translate(0,290.66)"
             style="font-size:14px;font-family:'Open Sans', verdana, arial, sans-serif;white-space:pre;fill:#000000;fill-opacity:1"
             id="text61">−100</text>
        </g>
        <g
           class="ytick"
           id="g62">
          <text
             text-anchor="end"
             x="77.199997"
             y="4.9000001"
             transform="translate(0,234.79)"
             style="font-size:14px;font-family:'Open Sans', verdana, arial, sans-serif;white-space:pre;fill:#000000;fill-opacity:1"
             id="text62">0</text>
        </g>
        <g
           class="ytick"
           id="g63">
          <text
             text-anchor="end"
             x="77.199997"
             y="4.9000001"
             transform="translate(0,178.92)"
             style="font-size:14px;font-family:'Open Sans', verdana, arial, sans-serif;white-space:pre;fill:#000000;fill-opacity:1"
             id="text63">100</text>
        </g>
        <g
           class="ytick"
           id="g64">
          <text
             text-anchor="end"
             x="77.199997"
             y="4.9000001"
             transform="translate(0,123.05)"
             style="font-size:14px;font-family:'Open Sans', verdana, arial, sans-serif;white-space:pre;fill:#000000;fill-opacity:1"
             id="text64">200</text>
        </g>
        <g
           class="ytick"
           id="g65">
          <text
             text-anchor="end"
             x="77.199997"
             y="4.9000001"
             transform="translate(0,67.18)"
             style="font-size:14px;font-family:'Open Sans', verdana, arial, sans-serif;white-space:pre;fill:#000000;fill-opacity:1"
             id="text65">300</text>
        </g>
      </g>
      <g
         class="overaxes-above"
         id="g67" />
    </g>
  </g>
  <g
     class="polarlayer"
     id="g70"
     transform="translate(-4.0013672,-59)" />
  <g
     class="ternarylayer"
     id="g71"
     transform="translate(-4.0013672,-59)" />
  <g
     class="geolayer"
     id="g72"
     transform="translate(-4.0013672,-59)" />
  <g
     class="funnelarealayer"
     id="g73"
     transform="translate(-4.0013672,-59)" />
  <g
     class="pielayer"
     id="g74"
     transform="translate(-4.0013672,-59)" />
  <g
     class="treemaplayer"
     id="g75"
     transform="translate(-4.0013672,-59)" />
  <g
     class="sunburstlayer"
     id="g76"
     transform="translate(-4.0013672,-59)" />
  <g
     class="glimages"
     id="g77"
     transform="translate(-4.0013672,-59)" />
  <defs
     id="topdefs-940a53">
    <g
       class="clips"
       id="g78" />
    <clipPath
       id="legend940a53">
      <rect
         width="113"
         height="74"
         x="0"
         y="0"
         id="rect78" />
    </clipPath>
  </defs>
  <g
     class="layer-above"
     id="g81"
     transform="translate(-4.0013672,-59)">
    <g
       class="imagelayer"
       id="g79" />
    <g
       class="shapelayer"
       id="g80" />
  </g>
  <g
     class="infolayer"
     id="g106"
     transform="translate(-4.0013672,-59)">
    <g
       class="legend"
       pointer-events="all"
       transform="translate(463.97465,72.291915)"
       id="g102">
      <rect
         class="bg"
         shape-rendering="crispEdges"
         style="fill:#ffffff;fill-opacity:1;stroke:#444444;stroke-width:0px;stroke-opacity:1"
         width="113"
         height="74"
         x="0"
         y="0"
         id="rect81" />
      <g
         class="scrollbox"
         clip-path="url(#legend940a53)"
         id="g101">
        <g
           class="groups"
           id="g100">
          <g
             class="traces"
             transform="translate(0,15.6)"
             style="opacity:1"
             id="g87">
            <text
               class="legendtext"
               text-anchor="start"
               x="40"
               y="5.46"
               style="font-size:14px;font-family:'Open Sans', verdana, arial, sans-serif;white-space:pre;fill:#000000;fill-opacity:1"
               id="text81">x=0 mm</text>
            <g
               class="layers"
               style="opacity:1"
               id="g86">
              <g
                 class="legendfill"
                 id="g82" />
              <g
                 class="legendlines"
                 id="g83">
                <path
                   class="js-line"
                   d="M 5,0 H 35"
                   style="fill:none;stroke:#636efa;stroke-width:2px;stroke-opacity:1"
                   id="path82" />
              </g>
              <g
                 class="legendsymbols"
                 id="g85">
                <g
                   class="legendpoints"
                   id="g84" />
              </g>
            </g>
            <rect
               class="legendtoggle"
               x="0"
               y="-10.6"
               width="107.15625"
               height="21.200001"
               style="fill:#000000;fill-opacity:0"
               id="rect86" />
          </g>
          <g
             class="traces"
             transform="translate(0,36.8)"
             style="opacity:1"
             id="g93">
            <text
               class="legendtext"
               text-anchor="start"
               x="40"
               y="5.46"
               style="font-size:14px;font-family:'Open Sans', verdana, arial, sans-serif;white-space:pre;fill:#000000;fill-opacity:1"
               id="text87">x=-2 mm</text>
            <g
               class="layers"
               style="opacity:1"
               id="g92">
              <g
                 class="legendfill"
                 id="g88" />
              <g
                 class="legendlines"
                 id="g89">
                <path
                   class="js-line"
                   d="M 5,0 H 35"
                   style="fill:none;stroke:#ef553b;stroke-width:2px;stroke-opacity:1"
                   id="path88" />
              </g>
              <g
                 class="legendsymbols"
                 id="g91">
                <g
                   class="legendpoints"
                   id="g90" />
              </g>
            </g>
            <rect
               class="legendtoggle"
               x="0"
               y="-10.6"
               width="107.15625"
               height="21.200001"
               style="fill:#000000;fill-opacity:0"
               id="rect92" />
          </g>
          <g
             class="traces"
             transform="translate(0,58)"
             style="opacity:1"
             id="g99">
            <text
               class="legendtext"
               text-anchor="start"
               x="40"
               y="5.46"
               style="font-size:14px;font-family:'Open Sans', verdana, arial, sans-serif;white-space:pre;fill:#000000;fill-opacity:1"
               id="text93">x=-2 mm</text>
            <g
               class="layers"
               style="opacity:1"
               id="g98">
              <g
                 class="legendfill"
                 id="g94" />
              <g
                 class="legendlines"
                 id="g95">
                <path
                   class="js-line"
                   d="M 5,0 H 35"
                   style="fill:none;stroke:#00cc96;stroke-width:2px;stroke-opacity:1"
                   id="path94" />
              </g>
              <g
                 class="legendsymbols"
                 id="g97">
                <g
                   class="legendpoints"
                   id="g96" />
              </g>
            </g>
            <rect
               class="legendtoggle"
               x="0"
               y="-10.6"
               width="107.15625"
               height="21.200001"
               style="fill:#000000;fill-opacity:0"
               id="rect98" />
          </g>
        </g>
      </g>
      <rect
         class="scrollbar"
         rx="20"
         ry="3"
         width="0"
         height="0"
         style="fill:#808ba4;fill-opacity:1"
         x="0"
         y="0"
         id="rect101" />
    </g>
    <g
       class="g-gtitle"
       id="g103" />
    <g
       class="g-xtitle"
       id="g104">
      <text
         class="xtitle"
         x="335.5"
         y="467.71249"
         text-anchor="middle"
         style="font-weight:normal;font-size:17px;font-family:'Open Sans', verdana, arial, sans-serif;white-space:pre;opacity:1;fill:#000000"
         id="text103">Time (ps)</text>
    </g>
    <g
       class="g-ytitle"
       transform="translate(4.8691406)"
       id="g105">
      <text
         class="ytitle"
         transform="rotate(-90,12.13125,240)"
         x="12.13125"
         y="240"
         text-anchor="middle"
         style="font-weight:normal;font-size:17px;font-family:'Open Sans', verdana, arial, sans-serif;white-space:pre;opacity:1;fill:#000000"
         id="text104">Electric field (kV/cm)</text>
    </g>
  </g>
</svg>
