<?xml version="1.0" encoding="UTF-8" standalone="no"?>
<svg
   class="main-svg"
   width="589.77209"
   height="412.13242"
   viewBox="0 0 589.77209 412.13242"
   version="1.1"
   id="svg184"
   sodipodi:docname="field-1ps-1d.svg"
   inkscape:version="1.1.1 (3bf5ae0d25, 2021-09-20)"
   xmlns:inkscape="http://www.inkscape.org/namespaces/inkscape"
   xmlns:sodipodi="http://sodipodi.sourceforge.net/DTD/sodipodi-0.dtd"
   xmlns="http://www.w3.org/2000/svg"
   xmlns:svg="http://www.w3.org/2000/svg">
  <sodipodi:namedview
     id="namedview186"
     pagecolor="#ffffff"
     bordercolor="#666666"
     borderopacity="1.0"
     inkscape:pageshadow="2"
     inkscape:pageopacity="0.0"
     inkscape:pagecheckerboard="0"
     showgrid="false"
     fit-margin-top="0"
     fit-margin-left="0"
     fit-margin-right="0"
     fit-margin-bottom="0"
     inkscape:zoom="0.86666667"
     inkscape:cx="400.96154"
     inkscape:cy="250.96154"
     inkscape:window-width="1920"
     inkscape:window-height="1017"
     inkscape:window-x="-8"
     inkscape:window-y="-8"
     inkscape:window-maximized="1"
     inkscape:current-layer="svg184" />
  <defs
     id="defs-5c35eb">
    <g
       class="clips"
       id="g16">
      <clipPath
         id="clip5c35ebxyplot"
         class="plotclip">
        <rect
           width="500"
           height="360"
           id="rect4"
           x="0"
           y="0" />
      </clipPath>
      <clipPath
         class="axesclip"
         id="clip5c35ebx">
        <rect
           x="90"
           y="0"
           width="500"
           height="480"
           id="rect7" />
      </clipPath>
      <clipPath
         class="axesclip"
         id="clip5c35eby">
        <rect
           x="0"
           y="60"
           width="640"
           height="360"
           id="rect10" />
      </clipPath>
      <clipPath
         class="axesclip"
         id="clip5c35ebxy">
        <rect
           x="90"
           y="60"
           width="500"
           height="360"
           id="rect13" />
      </clipPath>
    </g>
    <g
       class="gradients"
       id="g18" />
  </defs>
  <g
     class="bglayer"
     id="g21"
     transform="translate(-4.0013672,-59)" />
  <g
     class="layer-below"
     id="g27"
     transform="translate(-4.0013672,-59)">
    <g
       class="imagelayer"
       id="g23" />
    <g
       class="shapelayer"
       id="g25" />
  </g>
  <g
     class="cartesianlayer"
     id="g145"
     transform="translate(-4.0013672,-59)">
    <g
       class="subplot xy"
       id="g143">
      <g
         class="layer-subplot"
         id="g33">
        <g
           class="shapelayer"
           id="g29" />
        <g
           class="imagelayer"
           id="g31" />
      </g>
      <g
         class="gridlayer"
         id="g39">
        <g
           class="x"
           id="g35" />
        <g
           class="y"
           id="g37" />
      </g>
      <g
         class="zerolinelayer"
         id="g41" />
      <path
         class="xlines-below"
         id="path43"
         d="" />
      <path
         class="ylines-below"
         id="path45"
         d="" />
      <g
         class="overlines-below"
         id="g47" />
      <g
         class="xaxislayer-below"
         id="g49" />
      <g
         class="yaxislayer-below"
         id="g51" />
      <g
         class="overaxes-below"
         id="g53" />
      <g
         class="plot"
         transform="translate(90,60)"
         clip-path="url(#clip5c35ebxyplot)"
         id="g71">
        <g
           class="scatterlayer mlayer"
           id="g69">
          <g
             class="trace scatter trace842d63"
             style="opacity:1;stroke-miterlimit:2"
             id="g67">
            <g
               class="fills"
               id="g55" />
            <g
               class="errorbars"
               id="g57" />
            <g
               class="lines"
               id="g61">
              <path
                 class="js-line"
                 d="m -4166.56,197.18 4005.92,-0.03 h 0.22 l 309.61,0.71 0.22,0.02 10.38,1.69 0.22,0.06 7.95,2.94 0.22,0.12 3.53,1.1 0.23,0.03 3.53,1.34 0.22,0.13 4.64,3.56 0.22,0.24 4.64,6.38 0.22,0.36 6.84,11.76 0.22,0.09 4.42,1.45 0.22,0.25 2.65,4.16 0.22,0.41 7.29,12.84 0.22,0.22 3.53,4.57 0.22,0.32 2.43,2.2 0.22,0.06 2.21,1.14 0.22,0.31 1.33,3.39 0.22,0.85 1.99,11.66 0.22,1.7 4.86,44.63 0.22,1.93 2.87,18.93 0.22,0.81 1.54,2.49 0.22,-0.09 0.89,-1.39 0.22,-0.59 1.77,-7.79 0.22,-1.34 2.43,-19.76 0.22,-2.24 6.4,-74.51 0.22,-2.76 9.06,-123.79 0.22,-3.94 4.85,-84.98 0.23,-0.65 0.22,-0.17 0.22,0.29 0.22,0.74 0.88,7.2 0.22,2.84 1.55,32.68 0.22,6.42 4.86,134.92 0.22,2.56 1.32,7.4 0.22,0.03 0.67,-1.67 0.22,-1.08 1.54,-13.28 0.22,-2.61 2.43,-40.16 0.22,-4.74 5.3,-108.76 0.22,-1.37 0.67,-1.61 0.22,0.32 0.22,0.75 1.1,9.96 0.22,3.14 2.43,49.66 0.22,5.03 3.1,55.34 0.22,2.39 1.98,12.7 0.22,0.64 1.77,2.44 0.22,0.17 2.87,1.25 0.22,-0.22 1.11,-2.67 0.22,-0.88 1.99,-12.22 0.22,-1.62 2.65,-14.29 0.22,-0.37 0.66,-0.11 0.22,0.29 0.22,0.45 1.33,5.81 0.22,1.42 5.08,33.01 0.22,0.39 1.1,0.29 0.22,-0.23 1.99,-3.96 0.22,-0.44 1.55,-1.59 0.22,0.03 1.32,1.37 0.22,0.36 2.65,3.13 0.22,-0.04 1.11,-1.07 0.22,-0.37 3.97,-6.51 0.23,0.08 1.1,1.63 0.22,0.58 1.99,8.15 0.22,1.12 2.87,11.57 0.22,0.32 0.88,0.11 0.22,-0.26 1.11,-2.88 0.22,-0.82 3.75,-12.8 0.22,-0.11 0.89,0.51 0.22,0.35 1.99,5.36 0.22,0.67 2.21,4.43 0.22,0.12 1.1,-0.38 0.22,-0.24 4.2,-5.31 0.22,0.08 1.32,1.54 0.22,0.39 3.1,4.41 h 0.22 l 1.1,-0.87 0.22,-0.33 3.76,-5.48 0.22,0.03 1.32,1.38 0.22,0.39 3.76,5.92 0.22,-0.02 1.1,-0.96 0.22,-0.34 4.2,-7 0.22,0.04 1.1,1.12 0.22,0.38 3.98,6.82 0.22,-0.05 1.1,-1.13 0.22,-0.39 3.98,-6.4 0.22,0.06 1.33,1.47 0.22,0.4 3.53,5.62 0.22,0.02 1.33,-1.07 0.22,-0.35 3.75,-5.77 h 0.22 l 1.11,0.85 0.22,0.32 3.97,5.79 0.22,-0.04 1.33,-1.35 0.22,-0.36 3.31,-4.92 0.22,-0.04 1.33,0.83 0.22,0.29 3.97,5.24 0.22,-0.02 1.33,-1.1 0.22,-0.32 3.53,-4.67 0.22,-0.01 1.33,0.97 0.22,0.31 3.75,4.64 0.22,-0.03 1.33,-1.11 0.22,-0.3 3.53,-4.11 0.22,0.01 1.55,1.18 0.22,0.29 3.53,3.67 0.22,-0.03 1.55,-1.16 0.22,-0.28 3.31,-3.37 h 0.22 l 1.55,1.03 0.22,0.26 3.31,3.25 0.22,0.01 1.55,-0.92 0.22,-0.24 3.53,-3.02 0.23,0.02 1.76,1.15 0.22,0.23 3.09,2.39 h 0.23 l 1.76,-0.96 0.22,-0.2 3.32,-2.34 0.22,0.02 1.76,1.02 0.22,0.2 3.1,2.01 0.22,-0.02 1.98,-1.09 0.22,-0.19 3.1,-1.64 0.22,0.03 2.21,1.23 0.22,0.17 2.65,1.22 0.22,-0.02 2.21,-1.08 0.22,-0.16 2.87,-1.16 0.22,0.03 2.43,1.25 0.22,0.14 2.43,0.78 0.22,-0.03 2.43,-1.12 0.22,-0.13 2.65,-0.67 0.22,0.04 6.18,1.42 0.22,-0.09 4.42,-1.16 0.22,0.06 5.74,1.06 0.22,-0.07 4.64,-0.83 0.22,0.05 6.18,0.59 0.23,-0.06 4.85,-0.31 0.22,0.06 5.75,0.15 0.22,-0.05 5.52,0.12 0.22,0.03 6.4,-0.32 0.22,-0.01 36.22,0.28 h 0.22 l 60.29,-0.06 h 0.22 4029.77"
                 style="opacity:1;vector-effect:non-scaling-stroke;fill:none;stroke:#636efa;stroke-width:2px;stroke-opacity:1"
                 id="path59" />
            </g>
            <g
               class="points"
               id="g63" />
            <g
               class="text"
               id="g65" />
          </g>
        </g>
      </g>
      <g
         class="overplot"
         id="g73" />
      <path
         class="xlines-above crisp"
         d="M 89,420.5 H 591 M 89,59.5 h 502"
         style="fill:none;stroke:#000000;stroke-width:1px;stroke-opacity:1"
         id="path75" />
      <path
         class="ylines-above crisp"
         d="M 89.5,60 V 420 M 590.5,60 V 420"
         style="fill:none;stroke:#000000;stroke-width:1px;stroke-opacity:1"
         id="path77" />
      <g
         class="overlines-above"
         id="g79" />
      <g
         class="xaxislayer-above"
         id="g107">
        <path
           class="xtick ticks crisp"
           d="m 0,420 v -5 M 0,60 v 5"
           transform="translate(215)"
           style="stroke:#444444;stroke-width:1px;stroke-opacity:1"
           id="path81" />
        <path
           class="xtick ticks crisp"
           d="m 0,420 v -5 M 0,60 v 5"
           transform="translate(340)"
           style="stroke:#444444;stroke-width:1px;stroke-opacity:1"
           id="path83" />
        <path
           class="xtick ticks crisp"
           d="m 0,420 v -5 M 0,60 v 5"
           transform="translate(465)"
           style="stroke:#444444;stroke-width:1px;stroke-opacity:1"
           id="path85" />
        <g
           class="xtick"
           id="g89">
          <text
             text-anchor="middle"
             x="0"
             y="437.79999"
             transform="translate(90)"
             style="font-size:14px;font-family:'Open Sans', verdana, arial, sans-serif;white-space:pre;fill:#000000;fill-opacity:1"
             id="text87">−4</text>
        </g>
        <g
           class="xtick"
           id="g93">
          <text
             text-anchor="middle"
             x="0"
             y="437.79999"
             transform="translate(215)"
             style="font-size:14px;font-family:'Open Sans', verdana, arial, sans-serif;white-space:pre;fill:#000000;fill-opacity:1"
             id="text91">−2</text>
        </g>
        <g
           class="xtick"
           id="g97">
          <text
             text-anchor="middle"
             x="0"
             y="437.79999"
             transform="translate(340)"
             style="font-size:14px;font-family:'Open Sans', verdana, arial, sans-serif;white-space:pre;fill:#000000;fill-opacity:1"
             id="text95">0</text>
        </g>
        <g
           class="xtick"
           id="g101">
          <text
             text-anchor="middle"
             x="0"
             y="437.79999"
             transform="translate(465)"
             style="font-size:14px;font-family:'Open Sans', verdana, arial, sans-serif;white-space:pre;fill:#000000;fill-opacity:1"
             id="text99">2</text>
        </g>
        <g
           class="xtick"
           id="g105">
          <text
             text-anchor="middle"
             x="0"
             y="437.79999"
             transform="translate(590)"
             style="font-size:14px;font-family:'Open Sans', verdana, arial, sans-serif;white-space:pre;fill:#000000;fill-opacity:1"
             id="text103">4</text>
        </g>
      </g>
      <g
         class="yaxislayer-above"
         id="g139">
        <path
           class="ytick ticks crisp"
           d="m 90,0 h 5 m 495,0 h -5"
           transform="translate(0,399.44)"
           style="stroke:#444444;stroke-width:1px;stroke-opacity:1"
           id="path109" />
        <path
           class="ytick ticks crisp"
           d="m 90,0 h 5 m 495,0 h -5"
           transform="translate(0,328.31)"
           style="stroke:#444444;stroke-width:1px;stroke-opacity:1"
           id="path111" />
        <path
           class="ytick ticks crisp"
           d="m 90,0 h 5 m 495,0 h -5"
           transform="translate(0,257.18)"
           style="stroke:#444444;stroke-width:1px;stroke-opacity:1"
           id="path113" />
        <path
           class="ytick ticks crisp"
           d="m 90,0 h 5 m 495,0 h -5"
           transform="translate(0,186.05)"
           style="stroke:#444444;stroke-width:1px;stroke-opacity:1"
           id="path115" />
        <path
           class="ytick ticks crisp"
           d="m 90,0 h 5 m 495,0 h -5"
           transform="translate(0,114.92)"
           style="stroke:#444444;stroke-width:1px;stroke-opacity:1"
           id="path117" />
        <g
           class="ytick"
           id="g121">
          <text
             text-anchor="end"
             x="86.199997"
             y="4.9000001"
             transform="translate(0,399.44)"
             style="font-size:14px;font-family:'Open Sans', verdana, arial, sans-serif;white-space:pre;fill:#000000;fill-opacity:1"
             id="text119">−1000</text>
        </g>
        <g
           class="ytick"
           id="g125">
          <text
             text-anchor="end"
             x="86.199997"
             y="4.9000001"
             transform="translate(0,328.31)"
             style="font-size:14px;font-family:'Open Sans', verdana, arial, sans-serif;white-space:pre;fill:#000000;fill-opacity:1"
             id="text123">−500</text>
        </g>
        <g
           class="ytick"
           id="g129">
          <text
             text-anchor="end"
             x="86.199997"
             y="4.9000001"
             transform="translate(0,257.18)"
             style="font-size:14px;font-family:'Open Sans', verdana, arial, sans-serif;white-space:pre;fill:#000000;fill-opacity:1"
             id="text127">0</text>
        </g>
        <g
           class="ytick"
           id="g133">
          <text
             text-anchor="end"
             x="86.199997"
             y="4.9000001"
             transform="translate(0,186.05)"
             style="font-size:14px;font-family:'Open Sans', verdana, arial, sans-serif;white-space:pre;fill:#000000;fill-opacity:1"
             id="text131">500</text>
        </g>
        <g
           class="ytick"
           id="g137">
          <text
             text-anchor="end"
             x="86.199997"
             y="4.9000001"
             transform="translate(0,114.92)"
             style="font-size:14px;font-family:'Open Sans', verdana, arial, sans-serif;white-space:pre;fill:#000000;fill-opacity:1"
             id="text135">1000</text>
        </g>
      </g>
      <g
         class="overaxes-above"
         id="g141" />
    </g>
  </g>
  <g
     class="polarlayer"
     id="g147"
     transform="translate(-4.0013672,-59)" />
  <g
     class="ternarylayer"
     id="g149"
     transform="translate(-4.0013672,-59)" />
  <g
     class="geolayer"
     id="g151"
     transform="translate(-4.0013672,-59)" />
  <g
     class="funnelarealayer"
     id="g153"
     transform="translate(-4.0013672,-59)" />
  <g
     class="pielayer"
     id="g155"
     transform="translate(-4.0013672,-59)" />
  <g
     class="treemaplayer"
     id="g157"
     transform="translate(-4.0013672,-59)" />
  <g
     class="sunburstlayer"
     id="g159"
     transform="translate(-4.0013672,-59)" />
  <g
     class="glimages"
     id="g161"
     transform="translate(-4.0013672,-59)" />
  <defs
     id="topdefs-5c35eb">
    <g
       class="clips"
       id="g163" />
  </defs>
  <g
     class="layer-above"
     id="g170"
     transform="translate(-4.0013672,-59)">
    <g
       class="imagelayer"
       id="g166" />
    <g
       class="shapelayer"
       id="g168" />
  </g>
  <g
     class="infolayer"
     id="g182"
     transform="translate(-4.0013672,-59)">
    <g
       class="g-gtitle"
       id="g172" />
    <g
       class="g-xtitle"
       id="g176">
      <text
         class="xtitle"
         x="340"
         y="467.71249"
         text-anchor="middle"
         style="font-weight:normal;font-size:17px;font-family:'Open Sans', verdana, arial, sans-serif;white-space:pre;opacity:1;fill:#000000"
         id="text174">Time (ps)</text>
    </g>
    <g
       class="g-ytitle"
       transform="translate(4.7597656)"
       id="g180">
      <text
         class="ytitle"
         transform="rotate(-90,12.240625,240)"
         x="12.240625"
         y="240"
         text-anchor="middle"
         style="font-weight:normal;font-size:17px;font-family:'Open Sans', verdana, arial, sans-serif;white-space:pre;opacity:1;fill:#000000"
         id="text178">Electric field (kV/cm)</text>
    </g>
  </g>
</svg>
