<svg class="main-svg" xmlns="http://www.w3.org/2000/svg" xmlns:xlink="http://www.w3.org/1999/xlink" width="600" height="400" style=""><rect x="0" y="0" width="600" height="400" style="fill: rgb(255, 255, 255); fill-opacity: 1;"/><defs id="defs-9853df"><g class="clips"><clipPath id="clip9853dfxyplot" class="plotclip"><rect width="565.4593175853018" height="342.9133858267717"/></clipPath><clipPath class="axesclip" id="clip9853dfx"><rect x="30.603674540682416" y="0" width="565.4593175853018" height="400"/></clipPath><clipPath class="axesclip" id="clip9853dfy"><rect x="0" y="23.543307086614167" width="600" height="342.9133858267717"/></clipPath><clipPath class="axesclip" id="clip9853dfxy"><rect x="30.603674540682416" y="23.543307086614167" width="565.4593175853018" height="342.9133858267717"/></clipPath></g><g class="gradients"/><g class="patterns"/></defs><g class="bglayer"/><g class="layer-below"><g class="imagelayer"/><g class="shapelayer"/></g><g class="cartesianlayer"><g class="subplot xy"><g class="layer-subplot"><g class="shapelayer"/><g class="imagelayer"/></g><g class="gridlayer"><g class="x"><path class="xgrid crisp" transform="translate(62.64367454068241,0)" d="M0,23.543307086614167v342.9133858267717" style="stroke: rgb(0, 0, 0); stroke-opacity: 0.1; stroke-width: 0.5px;"/><path class="xgrid crisp" transform="translate(329.69367454068237,0)" d="M0,23.543307086614167v342.9133858267717" style="stroke: rgb(0, 0, 0); stroke-opacity: 0.1; stroke-width: 0.5px;"/></g><g class="y"><path class="ygrid crisp" transform="translate(0,350.18330708661415)" d="M30.603674540682416,0h565.4593175853018" style="stroke: rgb(0, 0, 0); stroke-opacity: 0.1; stroke-width: 0.5px;"/><path class="ygrid crisp" transform="translate(0,208.45330708661416)" d="M30.603674540682416,0h565.4593175853018" style="stroke: rgb(0, 0, 0); stroke-opacity: 0.1; stroke-width: 0.5px;"/><path class="ygrid crisp" transform="translate(0,66.73330708661416)" d="M30.603674540682416,0h565.4593175853018" style="stroke: rgb(0, 0, 0); stroke-opacity: 0.1; stroke-width: 0.5px;"/></g></g><g class="zerolinelayer"/><path class="xlines-below"/><path class="ylines-below"/><g class="overlines-below"/><g class="xaxislayer-below"/><g class="yaxislayer-below"/><g class="overaxes-below"/><g class="plot" transform="translate(30.603674540682416,23.543307086614167)" clip-path="url(#clip9853dfxyplot)"><g class="scatterlayer mlayer"><g class="trace scatter trace698002" style="stroke-miterlimit: 2; opacity: 1;"><g class="fills"/><g class="errorbars"/><g class="lines"><path class="js-line" d="M32.04,326.64L80.11,325.74L82.78,325.64L130.85,323.1L133.52,322.92L186.93,318.58L189.6,318.32L243.01,312.58L245.68,312.25L296.42,305.28L299.09,304.85L325.79,299.65L328.46,298.99L341.81,294.96L344.48,293.95L355.16,288.76L357.83,287.08L365.85,280.76L368.52,278.14L376.53,268.32L379.2,264.35L387.21,250.33L389.88,245.02L403.23,215.6L405.9,209.53L419.25,181.05L421.92,176L429.94,162.56L432.61,158.68L440.62,148.82L443.29,146.08L451.3,139.13L453.97,137.13L475.33,121.05L478,118.58L488.68,107.4L491.36,104.32L507.38,84.45L510.05,80.98L534.08,48.45L536.75,44.66L560.79,8.89L563.46,4.84L582.15,-21.49L584.82,-24.71L598.17,-37.65L600.84,-39.55L611.52,-44.89L614.19,-45.73L632.89,-48.81L635.56,-49.26L648.91,-53.72L651.58,-55.23L664.93,-66.14L667.6,-68.86L699.65,-99.3L702.32,-100.83L721.01,-107.13L723.68,-107.66L766.41,-119.12L769.08,-119.96L822.49,-140.17L825.16,-141.49L865.21,-155.74L867.88,-156.09L899.93,-164.74L902.6,-165.97L934.64,-172.57L937.31,-173.09L1100.21,-215.94" style="vector-effect: non-scaling-stroke; fill: none; stroke: rgb(0, 154, 250); stroke-opacity: 1; stroke-width: 1px; opacity: 1;"/></g><g class="points"/><g class="text"/></g></g></g><g class="overplot"/><path class="xlines-above crisp" d="M29.603674540682416,366.95669291338584H596.0629921259842" style="fill: none; stroke-width: 1px; stroke: rgb(0, 0, 0); stroke-opacity: 1;"/><path class="ylines-above crisp" d="M30.103674540682416,23.543307086614167V366.45669291338584" style="fill: none; stroke-width: 1px; stroke: rgb(0, 0, 0); stroke-opacity: 1;"/><g class="overlines-above"/><g class="xaxislayer-above"><path class="xtick ticks crisp" d="M0,366.45669291338584v-5" transform="translate(62.64367454068241,0)" style="stroke: rgb(0, 0, 0); stroke-opacity: 1; stroke-width: 1px;"/><path class="xtick ticks crisp" d="M0,366.45669291338584v-5" transform="translate(329.69367454068237,0)" style="stroke: rgb(0, 0, 0); stroke-opacity: 1; stroke-width: 1px;"/><g class="xtick"><text text-anchor="middle" x="0" y="380.6566929133858" transform="translate(62.64367454068241,0)" style="font-family: sans-serif; font-size: 11px; fill: rgb(0, 0, 0); fill-opacity: 1; white-space: pre; opacity: 1;">0.000</text></g><g class="xtick"><text text-anchor="middle" x="0" y="380.6566929133858" style="font-family: sans-serif; font-size: 11px; fill: rgb(0, 0, 0); fill-opacity: 1; white-space: pre; opacity: 1;" transform="translate(329.69367454068237,0)">0.002</text></g></g><g class="yaxislayer-above"><path class="ytick ticks crisp" d="M30.603674540682416,0h5" transform="translate(0,350.18330708661415)" style="stroke: rgb(0, 0, 0); stroke-opacity: 1; stroke-width: 1px;"/><path class="ytick ticks crisp" d="M30.603674540682416,0h5" transform="translate(0,208.45330708661416)" style="stroke: rgb(0, 0, 0); stroke-opacity: 1; stroke-width: 1px;"/><path class="ytick ticks crisp" d="M30.603674540682416,0h5" transform="translate(0,66.73330708661416)" style="stroke: rgb(0, 0, 0); stroke-opacity: 1; stroke-width: 1px;"/><g class="ytick"><text text-anchor="end" x="27.403674540682417" y="3.8499999999999996" transform="translate(0,350.18330708661415)" style="font-family: sans-serif; font-size: 11px; fill: rgb(0, 0, 0); fill-opacity: 1; white-space: pre; opacity: 1;">0.0</text></g><g class="ytick"><text text-anchor="end" x="27.403674540682417" y="3.8499999999999996" style="font-family: sans-serif; font-size: 11px; fill: rgb(0, 0, 0); fill-opacity: 1; white-space: pre; opacity: 1;" transform="translate(0,208.45330708661416)">0.5</text></g><g class="ytick"><text text-anchor="end" x="27.403674540682417" y="3.8499999999999996" style="font-family: sans-serif; font-size: 11px; fill: rgb(0, 0, 0); fill-opacity: 1; white-space: pre; opacity: 1;" transform="translate(0,66.73330708661416)">1.0</text></g></g><g class="overaxes-above"/></g></g><g class="polarlayer"/><g class="ternarylayer"/><g class="geolayer"/><g class="funnelarealayer"/><g class="pielayer"/><g class="iciclelayer"/><g class="treemaplayer"/><g class="sunburstlayer"/><g class="glimages"/><defs id="topdefs-9853df"><g class="clips"/><clipPath id="legend9853df"><rect width="57" height="29" x="1" y="1"/></clipPath></defs><g class="layer-above"><g class="imagelayer"/><g class="shapelayer"/></g><g class="infolayer"><g class="legend" pointer-events="all" transform="translate(541,20)"><rect class="bg" shape-rendering="crispEdges" width="58" height="30" x="0.5" y="0.5" style="stroke: rgb(0, 0, 0); stroke-opacity: 1; fill: rgb(255, 255, 255); fill-opacity: 1; stroke-width: 1px;"/><g class="scrollbox" transform="" clip-path="url(#legend9853df)"><g class="groups"><g class="traces" transform="translate(1,15.5)" style="opacity: 1;"><text class="legendtext" text-anchor="start" x="40" y="4.29" style="font-family: sans-serif; font-size: 11px; fill: rgb(0, 0, 0); fill-opacity: 1; white-space: pre;">y1</text><g class="layers" style="opacity: 1;"><g class="legendfill"/><g class="legendlines"><path class="js-line" d="M5,0h30" style="fill: none; stroke: rgb(0, 154, 250); stroke-opacity: 1; stroke-width: 1px;"/></g><g class="legendsymbols"><g class="legendpoints"/></g></g><rect class="legendtoggle" x="0" y="-9.5" width="51.625" height="19" style="fill: rgb(0, 0, 0); fill-opacity: 0;"/></g></g></g><rect class="scrollbar" rx="20" ry="3" width="0" height="0" x="0" y="0" style="fill: rgb(128, 139, 164); fill-opacity: 1;"/></g><g class="g-gtitle"/><g class="g-xtitle"/><g class="g-ytitle"/></g></svg>