<svg class="main-svg" xmlns="http://www.w3.org/2000/svg" xmlns:xlink="http://www.w3.org/1999/xlink" width="600" height="400" style=""><rect x="0" y="0" width="600" height="400" style="fill: rgb(255, 255, 255); fill-opacity: 1;"/><defs id="defs-5d6754"><g class="clips"><clipPath id="clip5d6754xyplot" class="plotclip"><rect width="583.2370953630796" height="342.9133858267717"/></clipPath><clipPath class="axesclip" id="clip5d6754x"><rect x="12.825896762904636" y="0" width="583.2370953630796" height="400"/></clipPath><clipPath class="axesclip" id="clip5d6754y"><rect x="0" y="23.543307086614167" width="600" height="342.9133858267717"/></clipPath><clipPath class="axesclip" id="clip5d6754xy"><rect x="12.825896762904636" y="23.543307086614167" width="583.2370953630796" height="342.9133858267717"/></clipPath></g><g class="gradients"/><g class="patterns"/></defs><g class="bglayer"/><g class="layer-below"><g class="imagelayer"/><g class="shapelayer"/></g><g class="cartesianlayer"><g class="subplot xy"><g class="layer-subplot"><g class="shapelayer"/><g class="imagelayer"/></g><g class="gridlayer"><g class="x"><path class="xgrid crisp" transform="translate(29.33589676290464,0)" d="M0,23.543307086614167v342.9133858267717" style="stroke: rgb(0, 0, 0); stroke-opacity: 0.1; stroke-width: 0.5px;"/><path class="xgrid crisp" transform="translate(166.88589676290465,0)" d="M0,23.543307086614167v342.9133858267717" style="stroke: rgb(0, 0, 0); stroke-opacity: 0.1; stroke-width: 0.5px;"/><path class="xgrid crisp" transform="translate(304.4458967629046,0)" d="M0,23.543307086614167v342.9133858267717" style="stroke: rgb(0, 0, 0); stroke-opacity: 0.1; stroke-width: 0.5px;"/><path class="xgrid crisp" transform="translate(441.99589676290464,0)" d="M0,23.543307086614167v342.9133858267717" style="stroke: rgb(0, 0, 0); stroke-opacity: 0.1; stroke-width: 0.5px;"/><path class="xgrid crisp" transform="translate(579.5558967629047,0)" d="M0,23.543307086614167v342.9133858267717" style="stroke: rgb(0, 0, 0); stroke-opacity: 0.1; stroke-width: 0.5px;"/></g><g class="y"><path class="ygrid crisp" transform="translate(0,356.75330708661414)" d="M12.825896762904636,0h583.2370953630796" style="stroke: rgb(0, 0, 0); stroke-opacity: 0.1; stroke-width: 0.5px;"/><path class="ygrid crisp" transform="translate(0,267.68330708661415)" d="M12.825896762904636,0h583.2370953630796" style="stroke: rgb(0, 0, 0); stroke-opacity: 0.1; stroke-width: 0.5px;"/><path class="ygrid crisp" transform="translate(0,178.62330708661418)" d="M12.825896762904636,0h583.2370953630796" style="stroke: rgb(0, 0, 0); stroke-opacity: 0.1; stroke-width: 0.5px;"/><path class="ygrid crisp" transform="translate(0,89.56330708661416)" d="M12.825896762904636,0h583.2370953630796" style="stroke: rgb(0, 0, 0); stroke-opacity: 0.1; stroke-width: 0.5px;"/></g></g><g class="zerolinelayer"/><path class="xlines-below"/><path class="ylines-below"/><g class="overlines-below"/><g class="xaxislayer-below"/><g class="yaxislayer-below"/><g class="overaxes-below"/><g class="plot" transform="translate(12.825896762904636,23.543307086614167)" clip-path="url(#clip5d6754xyplot)"><g class="scatterlayer mlayer"><g class="trace scatter trace82deb8" style="stroke-miterlimit: 2; opacity: 1;"><g class="fills"/><g class="errorbars"/><g class="lines"><path class="js-line" d="M16.51,333.21L17.88,333.15L19.25,311.19L22,171.19L23.37,92.87L24.74,38.61L26.11,23.6L27.48,51.89L28.86,115.31L32.97,318.86L34.34,327.09L35.72,293.38L37.09,227.58L39.83,78.27L41.21,36.57L42.58,34.63L43.95,72.44L49.44,314.15L50.81,310.39L52.18,269.72L53.55,204.13L56.3,74.18L57.67,45.59L59.04,53.7L60.41,95.38L64.53,276.42L65.9,298.63L67.28,285.77L68.65,242.41L72.76,73.86L74.14,56.16L75.51,70.18L76.88,110.95L81,260.33L82.37,274.09L83.74,259.76L85.11,222.29L89.23,90.23L90.6,78.4L91.97,90.86L93.35,123.02L97.46,235.34L98.83,245.39L100.21,234.95L101.58,207.82L105.7,110.66L107.07,100.03L108.44,106.38L109.81,127.63L113.93,207.17L115.3,215.36L116.67,209.72L118.04,192.51L122.16,124.12L123.53,113.33L124.9,113.12L126.28,122.57L131.77,184.63L133.14,187.88L134.51,183.1L135.88,171.63L141.37,116.79L142.74,114.14L144.11,117.94L145.49,127.02L149.6,161.82L150.98,167.31L152.35,166.93L153.72,160.6L160.58,106.64L161.95,105.21L163.32,109.2L164.7,117.64L168.81,148.42L170.19,152.69L171.56,151.36L172.93,144.36L179.79,87.48L181.16,87.73L182.53,94.41L183.91,106.28L188.02,145.34L189.39,149.15L190.77,144.97L192.14,133.04L197.63,66.91L199,65.14L200.37,73.91L201.74,91.73L205.86,152.4L207.23,157.9L208.6,150.82L209.98,132.15L214.09,56.03L215.47,45.03L216.84,48.44L218.21,65.86L223.7,164.78L225.07,164.08L226.44,147.78L227.81,119.77L230.56,57.98L231.93,39.99L233.3,37.74L234.68,51.8L240.16,159.66L241.54,163.57L242.91,151.4L244.28,126.56L248.4,47.78L249.77,42.61L251.14,52.3L252.51,73.78L256.63,144.25L258,149.59L259.37,141.98L260.75,124.17L264.86,64.94L266.23,60.06L267.61,65.57L268.98,79.1L273.09,123.26L274.47,126.72L275.84,122.82L277.21,113.66L279.96,92.72L281.33,86.81L282.7,85.79L284.07,89.06L288.19,105.34L289.56,107.1L290.93,106.32L292.3,104.21L295.05,101.71L296.42,102.92L300.54,110.8L301.91,110.72L303.28,108.11L304.65,103.6L307.4,95.14L308.77,94.66L310.14,97.98L311.51,104.67L315.63,126.22L317,126.84L318.38,122.54L319.75,114.35L322.49,95.66L323.86,90.57L325.24,90.83L326.61,96.61L332.1,135.05L333.47,135.87L334.84,131.04L336.21,121.99L338.96,101.63L340.33,95.98L341.7,95.33L343.07,99.71L348.56,132.33L349.93,134.11L351.31,131.63L352.68,125.86L356.79,106.37L358.17,104.4L359.54,105.76L360.91,109.89L365.03,126.47L366.4,129.19L367.77,129.29L369.14,126.86L374.63,108.78L376,107.35L377.38,108.47L378.75,111.98L384.24,132.42L385.61,133.3L386.98,130.76L388.35,125.16L392.47,103.48L393.84,100.35L395.21,101.31L396.59,106.33L402.07,136.5L403.45,137.05L404.82,132.92L406.19,125.07L410.31,100.23L411.68,98.5L413.05,101.64L414.42,108.82L418.54,133.17L419.91,134.97L421.28,131.93L422.66,124.79L426.77,99.58L428.15,97.46L429.52,100.43L430.89,107.87L435.01,134.6L436.38,136.77L437.75,133.52L439.12,125.56L443.24,95.11L444.61,90.83L445.98,91.87L447.36,97.99L452.84,137.41L454.22,139.37L455.59,135.25L456.96,125.81L461.08,90.82L462.45,86.78L463.82,89.31L465.19,97.64L469.31,132.56L470.68,138.31L472.05,138.16L473.43,131.96L478.91,85.92L480.29,84.06L481.66,89.76L483.03,101.73L487.15,139.72L488.52,141.49L489.89,135.74L491.26,124.16L495.38,87.28L496.75,84.18L498.12,87.86L499.5,97.44L503.61,135.32L504.98,140.27L506.36,138.04L507.73,129.22L511.85,91.84L513.22,86.92L514.59,88.84L515.96,96.76L520.08,130.65L521.45,135.99L522.82,135.91L524.19,130.81L529.68,95.7L531.06,92.74L532.43,94.23L533.8,99.88L539.29,132.2L540.66,133.25L542.03,129.8L543.4,122.99L547.52,102.4L548.89,100.27L550.26,101.04L551.64,104.25L558.5,129.4L559.87,128.49L561.24,123.69L562.61,116.12L565.36,101.42L566.73,98.52" style="vector-effect: non-scaling-stroke; fill: none; stroke: rgb(0, 154, 250); stroke-opacity: 1; stroke-width: 1px; opacity: 1;"/></g><g class="points"/><g class="text"/></g><g class="trace scatter traced950ed" style="stroke-miterlimit: 2; opacity: 1;"><g class="fills"/><g class="errorbars"/><g class="lines"><path class="js-line" d="M16.51,333.21L17.19,328.37L17.54,322.4L18.91,277.57L19.26,262.07L24.07,50.09L24.42,46.02L24.76,44.35L25.1,45.13L25.45,48.32L26.48,71.72L26.82,83.67L29.57,220.86L29.92,238.8L32.33,326.11L32.67,330.58L33.01,332.66L33.36,332.32L33.7,329.55L34.73,307.4L35.08,295.82L37.83,159.79L38.17,141.72L40.58,52.07L40.92,47.15L41.61,44.51L41.95,46.83L42.99,67.77L43.33,79.01L46.08,213.72L46.43,231.84L48.83,322.91L49.18,328.18L49.86,331.57L50.21,329.64L51.24,309.86L51.58,298.97L53.99,184.08L54.33,165.49L57.09,54.02L57.43,48.33L58.12,44.05L58.46,45.54L58.81,49.43L60.18,87.06L60.52,101.18L65.68,324.96L66.03,328.61L66.37,329.86L66.71,328.7L67.06,325.15L68.43,288.78L68.78,274.91L73.94,49.21L74.28,45.15L74.62,43.47L74.97,44.22L75.31,47.37L76.34,70.49L76.69,82.31L79.78,235.57L80.13,252.41L82.19,321.22L82.53,325.49L82.88,327.39L83.22,326.89L83.57,323.99L84.6,301.6L84.94,289.99L87.69,154.85L88.04,137.01L90.44,49.29L90.79,44.64L91.13,42.37L91.47,42.5L91.82,45.05L92.85,66.46L93.19,77.79L95.6,193.32L95.95,211.59L98.7,317.28L99.04,322.03L99.73,324.4L100.07,321.98L101.1,300.92L101.45,289.68L104.2,155.68L104.54,137.71L106.95,47.9L107.29,42.85L107.98,39.89L108.33,42.03L109.36,62.37L109.7,73.4L112.11,188.01L112.45,206.32L115.2,313.51L115.55,318.5L116.23,321.34L116.58,319.14L117.61,298.6L117.95,287.48L120.36,171.82L120.71,153.28L123.46,44.18L123.8,38.99L124.49,35.79L124.83,37.85L125.86,58.09L126.21,69.13L128.61,184.3L128.96,202.72L131.71,310.13L132.05,315.02L132.74,317.57L133.09,315.17L134.12,293.85L134.46,282.44L137.21,145.99L137.56,127.72L139.96,37.12L140.31,32.22L140.99,29.76L141.34,32.24L142.37,53.91L142.71,65.45L145.12,183.27L145.47,201.82L147.87,300.27L148.22,306.83L148.9,312.71L149.25,311.9L149.59,308.6L150.62,284.45L150.97,272.11L154.06,112.69L154.41,95.34L156.47,26.21L156.81,22.41L157.16,21.13L157.5,22.4L157.85,26.18L159.22,64.48L159.56,78.98L164.72,301.38L165.07,303.66L165.41,303.38L165.75,300.54L166.79,277.34L167.13,265.16L169.88,123.31L170.23,104.81L172.63,17.67L172.98,13.94L173.32,12.78L173.66,14.2L174.01,18.16L175.38,57.28L175.73,71.94L180.54,282.68L180.89,286.28L181.23,287.33L181.57,285.83L182.61,266.42L182.95,255.39L185.36,138.33L185.7,119.67L188.11,21.33L188.45,15L189.14,9.71L189.48,10.83L189.83,14.43L191.2,51.44L191.55,65.4L196.36,260.09L196.7,262.6L197.05,262.67L197.39,260.33L198.42,239.53L198.77,228.48L202.21,71.48L202.55,58L204.27,18.22L204.61,16.81L204.96,17.7L205.3,20.88L206.33,43.17L206.68,54.31L211.84,239.34L212.18,241.06L212.52,240.59L212.87,237.96L213.9,218L214.24,207.81L219.4,33.9L219.75,32.07L220.09,32.29L220.43,34.54L221.47,52.8L221.81,62.29L226.97,230.38L227.31,232.68L227.66,233.06L228,231.52L229.03,216.06L229.37,207.68L232.13,111.77L232.47,99.89L234.53,53.25L234.88,51L235.22,50.54L235.56,51.89L236.6,66.24L236.94,74.14L239.69,167.44L240.04,179.42L242.1,229.68L242.44,233.02L243.13,234.66L243.47,232.96L244.51,218.4L244.85,210.77L250.35,70.96L250.7,70.42L251.38,74.04L251.73,78.13L253.45,117.37L253.79,127.92L257.57,231.07L257.92,234.73L258.61,237.7L258.95,236.97L259.29,234.79L260.67,213.05L261.01,204.92L265.83,91.46L266.17,89.73L266.51,89.37L266.86,90.38L267.89,101.26L268.23,107.27L270.64,169.8L270.99,179.68L273.39,232.12L273.74,235.66L274.42,238.98L274.77,238.71L275.11,237.19L276.14,225.5L276.49,219.5L281.99,106.77L282.33,105.63L282.68,105.69L283.02,106.93L284.05,117.41L284.4,122.95L287.15,187.59L287.49,196.06L289.9,236.91L290.24,238.94L290.59,239.84L290.93,239.61L291.27,238.27L292.31,227.92L292.65,222.59L296.09,147.24L296.43,140.52L298.5,117.5L298.84,117.16L299.53,119.69L299.87,122.5L301.25,142.79L301.59,149.68L306.06,237.12L306.41,239.5L307.09,241.16L307.44,240.42L308.47,232.16L308.81,227.56L311.22,179.19L311.56,171.43L314.32,126.26L314.66,124.2L315.35,123.12L315.69,124.12L316.72,133L317.07,137.76L319.82,194.42L320.16,201.97L322.57,239.1L322.91,241.05L323.6,241.9L323.94,240.79L324.98,231.62L325.32,226.8L328.07,170.48L328.41,163.09L330.82,127.49L331.17,125.78L331.51,125.07L331.85,125.37L332.2,126.68L333.23,136.34L333.57,141.29L336.32,197.59L336.67,204.86L339.08,239.07L339.42,240.56L339.76,241.06L340.11,240.55L340.45,239.06L341.83,223.99L342.17,218.29L347.33,129.74L347.67,128.56L348.02,128.36L348.36,129.12L349.39,137.01L349.74,141.35L352.14,186.51L352.49,193.71L355.24,235.37L355.58,237.25L356.27,238.27L356.61,237.39L357.65,229.49L357.99,225.28L360.74,176.1L361.08,169.69L363.49,139.27L363.84,137.88L364.18,137.36L364.52,137.7L364.87,138.9L366.24,151.6L366.59,156.44L371.74,233.48L372.09,234.8L372.43,235.34L372.78,235.1L373.12,234.09L374.5,223.11L374.84,218.92L380,154.84L380.34,154L381.03,154.33L381.37,155.48L382.75,165.95L383.09,169.77L388.25,227.51L388.6,228.55L389.28,229.01L389.63,228.46L390.66,223.98L391,221.68L394.44,190.13L394.79,187.38L396.85,177.44L397.19,177.04L397.88,177.34L398.22,178.01L399.6,183.58L399.94,185.55L405.1,214.53L405.45,215.29L406.82,216.39L407.17,216.23L408.54,214.23L408.88,213.49L416.11,197.47L416.45,197.1L418.51,196.09L418.86,196.17L420.23,197.33L420.58,197.85L422.64,202.95L422.98,204.1L428.14,220.15L428.49,220.37L429.52,219.85L429.86,219.29L431.58,213.84L431.93,212.32L436.4,193.65L436.74,193.22L437.77,193.38L438.12,193.93L439.49,198.47L439.84,200.12L444.99,226.42L445.34,226.95L446.37,226.93L446.71,226.39L448.09,221.89L448.43,220.27L453.25,197.5L453.59,197.04L454.62,197.18L454.97,197.73L456.34,202.23L456.69,203.82L461.84,227.54L462.19,227.94L463.22,227.77L463.56,227.27L464.94,223.47L465.28,222.17L469.75,206.34L470.1,205.99L471.13,206.06L471.47,206.45L472.85,209.61L473.19,210.73L478.01,226.1L478.35,226.47L479.73,226.53L480.07,226.21L482.13,222.37L482.48,221.56L485.57,215.94L485.92,215.72L487.29,215.83L487.64,216.09L490.04,219.6L490.39,220.19L493.14,223.58L493.48,223.72L495.2,223.45L495.55,223.23L499.67,220.82L500.02,220.91L501.74,222.3L502.08,222.74L505.86,227.17L506.21,227.22L507.58,226.42L507.93,225.96L510.33,220.57L510.68,219.65L513.43,214.31L513.77,214.15L514.8,214.6L515.15,215.08L516.87,219.7L517.21,220.98L521.34,235.7L521.68,236.13L522.71,236.14L523.06,235.69L524.43,231.78L524.78,230.33L529.93,207.39L530.28,207.1L530.97,207.35L531.31,207.89L532.69,212.63L533.03,214.37L538.19,241.53L538.53,241.89L539.22,241.7L539.56,241.15L540.94,236.1L541.28,234.23L546.44,205.92L546.78,205.62L547.47,205.98L547.82,206.64L549.19,212.18L549.54,214.16L554.35,241.94L554.69,242.45L555.38,242.49L555.73,242.02L557.1,237.19L557.45,235.36L562.26,208.26L562.6,207.72L563.29,207.62L563.64,208.05L565.01,212.75L565.35,214.57L566.73,223.38" style="vector-effect: non-scaling-stroke; fill: none; stroke: rgb(227, 111, 71); stroke-opacity: 1; stroke-width: 1px; opacity: 1;"/></g><g class="points"/><g class="text"/></g></g></g><g class="overplot"/><path class="xlines-above crisp" d="M11.825896762904636,366.95669291338584H596.0629921259842" style="fill: none; stroke-width: 1px; stroke: rgb(0, 0, 0); stroke-opacity: 1;"/><path class="ylines-above crisp" d="M12.325896762904636,23.543307086614167V366.45669291338584" style="fill: none; stroke-width: 1px; stroke: rgb(0, 0, 0); stroke-opacity: 1;"/><g class="overlines-above"/><g class="xaxislayer-above"><path class="xtick ticks crisp" d="M0,366.45669291338584v-5" transform="translate(29.33589676290464,0)" style="stroke: rgb(0, 0, 0); stroke-opacity: 1; stroke-width: 1px;"/><path class="xtick ticks crisp" d="M0,366.45669291338584v-5" transform="translate(166.88589676290465,0)" style="stroke: rgb(0, 0, 0); stroke-opacity: 1; stroke-width: 1px;"/><path class="xtick ticks crisp" d="M0,366.45669291338584v-5" transform="translate(304.4458967629046,0)" style="stroke: rgb(0, 0, 0); stroke-opacity: 1; stroke-width: 1px;"/><path class="xtick ticks crisp" d="M0,366.45669291338584v-5" transform="translate(441.99589676290464,0)" style="stroke: rgb(0, 0, 0); stroke-opacity: 1; stroke-width: 1px;"/><path class="xtick ticks crisp" d="M0,366.45669291338584v-5" transform="translate(579.5558967629047,0)" style="stroke: rgb(0, 0, 0); stroke-opacity: 1; stroke-width: 1px;"/><g class="xtick"><text text-anchor="middle" x="0" y="380.6566929133858" transform="translate(29.33589676290464,0)" style="font-family: sans-serif; font-size: 11px; fill: rgb(0, 0, 0); fill-opacity: 1; white-space: pre; opacity: 1;">0.000</text></g><g class="xtick"><text text-anchor="middle" x="0" y="380.6566929133858" style="font-family: sans-serif; font-size: 11px; fill: rgb(0, 0, 0); fill-opacity: 1; white-space: pre; opacity: 1;" transform="translate(166.88589676290465,0)">0.002</text></g><g class="xtick"><text text-anchor="middle" x="0" y="380.6566929133858" style="font-family: sans-serif; font-size: 11px; fill: rgb(0, 0, 0); fill-opacity: 1; white-space: pre; opacity: 1;" transform="translate(304.4458967629046,0)">0.004</text></g><g class="xtick"><text text-anchor="middle" x="0" y="380.6566929133858" style="font-family: sans-serif; font-size: 11px; fill: rgb(0, 0, 0); fill-opacity: 1; white-space: pre; opacity: 1;" transform="translate(441.99589676290464,0)">0.006</text></g><g class="xtick"><text text-anchor="middle" x="0" y="380.6566929133858" style="font-family: sans-serif; font-size: 11px; fill: rgb(0, 0, 0); fill-opacity: 1; white-space: pre; opacity: 1;" transform="translate(579.5558967629047,0)">0.008</text></g></g><g class="yaxislayer-above"><path class="ytick ticks crisp" d="M12.825896762904636,0h5" transform="translate(0,356.75330708661414)" style="stroke: rgb(0, 0, 0); stroke-opacity: 1; stroke-width: 1px;"/><path class="ytick ticks crisp" d="M12.825896762904636,0h5" transform="translate(0,267.68330708661415)" style="stroke: rgb(0, 0, 0); stroke-opacity: 1; stroke-width: 1px;"/><path class="ytick ticks crisp" d="M12.825896762904636,0h5" transform="translate(0,178.62330708661418)" style="stroke: rgb(0, 0, 0); stroke-opacity: 1; stroke-width: 1px;"/><path class="ytick ticks crisp" d="M12.825896762904636,0h5" transform="translate(0,89.56330708661416)" style="stroke: rgb(0, 0, 0); stroke-opacity: 1; stroke-width: 1px;"/><g class="ytick"><text text-anchor="end" x="9.625896762904635" y="3.8499999999999996" transform="translate(0,356.75330708661414)" style="font-family: sans-serif; font-size: 11px; fill: rgb(0, 0, 0); fill-opacity: 1; white-space: pre; opacity: 1;">0</text></g><g class="ytick"><text text-anchor="end" x="9.625896762904635" y="3.8499999999999996" style="font-family: sans-serif; font-size: 11px; fill: rgb(0, 0, 0); fill-opacity: 1; white-space: pre; opacity: 1;" transform="translate(0,267.68330708661415)">1</text></g><g class="ytick"><text text-anchor="end" x="9.625896762904635" y="3.8499999999999996" style="font-family: sans-serif; font-size: 11px; fill: rgb(0, 0, 0); fill-opacity: 1; white-space: pre; opacity: 1;" transform="translate(0,178.62330708661418)">2</text></g><g class="ytick"><text text-anchor="end" x="9.625896762904635" y="3.8499999999999996" style="font-family: sans-serif; font-size: 11px; fill: rgb(0, 0, 0); fill-opacity: 1; white-space: pre; opacity: 1;" transform="translate(0,89.56330708661416)">3</text></g></g><g class="overaxes-above"/></g></g><g class="polarlayer"/><g class="ternarylayer"/><g class="geolayer"/><g class="funnelarealayer"/><g class="pielayer"/><g class="iciclelayer"/><g class="treemaplayer"/><g class="sunburstlayer"/><g class="glimages"/><defs id="topdefs-5d6754"><g class="clips"/><clipPath id="legend5d6754"><rect width="57" height="48" x="1" y="1"/></clipPath></defs><g class="layer-above"><g class="imagelayer"/><g class="shapelayer"/></g><g class="infolayer"><g class="legend" pointer-events="all" transform="translate(541,20)"><rect class="bg" shape-rendering="crispEdges" width="58" height="49" x="0.5" y="0.5" style="stroke: rgb(0, 0, 0); stroke-opacity: 1; fill: rgb(255, 255, 255); fill-opacity: 1; stroke-width: 1px;"/><g class="scrollbox" transform="" clip-path="url(#legend5d6754)"><g class="groups"><g class="traces" transform="translate(1,15.5)" style="opacity: 1;"><text class="legendtext" text-anchor="start" x="40" y="4.29" style="font-family: sans-serif; font-size: 11px; fill: rgb(0, 0, 0); fill-opacity: 1; white-space: pre;">y1</text><g class="layers" style="opacity: 1;"><g class="legendfill"/><g class="legendlines"><path class="js-line" d="M5,0h30" style="fill: none; stroke: rgb(0, 154, 250); stroke-opacity: 1; stroke-width: 1px;"/></g><g class="legendsymbols"><g class="legendpoints"/></g></g><rect class="legendtoggle" x="0" y="-9.5" width="51.625" height="19" style="fill: rgb(0, 0, 0); fill-opacity: 0;"/></g><g class="traces" transform="translate(1,34.5)" style="opacity: 1;"><text class="legendtext" text-anchor="start" x="40" y="4.29" style="font-family: sans-serif; font-size: 11px; fill: rgb(0, 0, 0); fill-opacity: 1; white-space: pre;">y2</text><g class="layers" style="opacity: 1;"><g class="legendfill"/><g class="legendlines"><path class="js-line" d="M5,0h30" style="fill: none; stroke: rgb(227, 111, 71); stroke-opacity: 1; stroke-width: 1px;"/></g><g class="legendsymbols"><g class="legendpoints"/></g></g><rect class="legendtoggle" x="0" y="-9.5" width="51.625" height="19" style="fill: rgb(0, 0, 0); fill-opacity: 0;"/></g></g></g><rect class="scrollbar" rx="20" ry="3" width="0" height="0" x="0" y="0" style="fill: rgb(128, 139, 164); fill-opacity: 1;"/></g><g class="g-gtitle"/><g class="g-xtitle"/><g class="g-ytitle"/></g></svg>